<svg width="691" height="298" viewBox="0 0 691 298" fill="none" xmlns="http://www.w3.org/2000/svg">
<g clip-path="url(#clip0_406_569)">
<rect width="691" height="298" fill="#191D2F"/>
<g opacity="0.4" filter="url(#filter0_f_406_569)">
<ellipse cx="345.417" cy="149.296" rx="285.918" ry="72.5952" transform="rotate(174.47 345.417 149.296)" fill="#8249E4"/>
</g>
<g clip-path="url(#clip1_406_569)">
<path d="M338.748 31.9857L330.975 36.2419L235.218 88.679L227.446 92.9351C223.674 95.0059 220.875 98.4935 219.663 102.633C218.45 106.772 218.924 111.225 220.978 115.015L292.286 246.182C294.35 249.967 297.825 252.776 301.949 253.993C306.073 255.21 310.51 254.735 314.286 252.673L314.306 252.662L425.568 191.734L425.588 191.723C429.36 189.652 432.158 186.165 433.371 182.025C434.583 177.886 434.11 173.433 432.056 169.643L360.748 38.4767C358.684 34.6916 355.209 31.8825 351.085 30.6656C346.961 29.4487 342.524 29.9235 338.748 31.9857Z" fill="#F2F2F2"/>
<path d="M340.984 36.098L331.778 41.1391L238.887 92.0064L229.682 97.0475C226.996 98.5221 225.003 101.006 224.139 103.953C223.276 106.901 223.613 110.072 225.076 112.771L296.384 243.938C297.853 246.633 300.328 248.633 303.265 249.5C306.202 250.367 309.362 250.028 312.051 248.56L312.071 248.549L423.332 187.621L423.353 187.61C426.038 186.136 428.031 183.652 428.895 180.704C429.758 177.757 429.421 174.586 427.958 171.887L356.65 40.7204C355.181 38.025 352.706 36.0245 349.769 35.1579C346.832 34.2914 343.673 34.6294 340.984 36.098Z" fill="white"/>
<path d="M342.519 76.812L301.022 99.5356C300.394 99.8799 299.654 99.9594 298.967 99.7567C298.28 99.554 297.702 99.0856 297.359 98.4547C297.016 97.8238 296.936 97.082 297.138 96.3924C297.34 95.7028 297.807 95.1221 298.436 94.7778L339.932 72.0542C340.561 71.71 341.3 71.6305 341.987 71.8332C342.674 72.0359 343.253 72.5042 343.596 73.1351C343.939 73.7661 344.018 74.5079 343.816 75.1975C343.614 75.887 343.147 76.4678 342.519 76.812Z" fill="#F2F2F2"/>
<path d="M356.661 79.4867L305.387 107.565C304.758 107.909 304.019 107.988 303.332 107.786C302.645 107.583 302.066 107.115 301.723 106.484C301.38 105.853 301.301 105.111 301.503 104.421C301.705 103.732 302.172 103.151 302.8 102.807L354.074 74.7289C354.386 74.5584 354.727 74.4512 355.08 74.4133C355.432 74.3753 355.789 74.4075 356.129 74.5078C356.469 74.6082 356.786 74.7749 357.062 74.9983C357.338 75.2216 357.568 75.4974 357.738 75.8098C357.908 76.1222 358.015 76.4651 358.052 76.819C358.09 77.1728 358.058 77.5307 357.958 77.8721C357.858 78.2136 357.692 78.5319 357.469 78.8089C357.247 79.0859 356.972 79.3163 356.661 79.4867Z" fill="#F2F2F2"/>
<path d="M283.962 90.0767L245.705 111.027C245.404 111.192 245.181 111.47 245.084 111.8C244.987 112.131 245.025 112.486 245.189 112.788L261.48 142.754C261.645 143.057 261.922 143.281 262.251 143.378C262.58 143.475 262.934 143.437 263.235 143.272L301.493 122.322C301.794 122.157 302.017 121.879 302.114 121.549C302.211 121.218 302.173 120.863 302.009 120.561L285.718 90.5946C285.553 90.2924 285.276 90.068 284.947 89.9709C284.618 89.8738 284.264 89.9118 283.962 90.0767Z" fill="#F2F2F2"/>
<path d="M363.108 114.834L306.823 145.656C306.512 145.826 306.17 145.934 305.818 145.971C305.465 146.009 305.108 145.977 304.768 145.877C304.428 145.777 304.111 145.61 303.835 145.386C303.559 145.163 303.329 144.887 303.159 144.575C302.99 144.263 302.883 143.92 302.845 143.566C302.807 143.212 302.839 142.854 302.939 142.513C303.039 142.171 303.205 141.853 303.428 141.576C303.65 141.299 303.925 141.068 304.236 140.898L360.521 110.076C361.15 109.732 361.889 109.653 362.576 109.855C363.263 110.058 363.842 110.526 364.185 111.157C364.528 111.788 364.607 112.53 364.405 113.22C364.203 113.909 363.736 114.49 363.108 114.834Z" fill="#F2F2F2"/>
<path d="M377.25 117.509L311.188 153.685C310.56 154.029 309.82 154.108 309.133 153.906C308.446 153.703 307.868 153.235 307.525 152.604C307.182 151.973 307.102 151.231 307.304 150.541C307.506 149.852 307.973 149.271 308.602 148.927L374.664 112.751C375.292 112.407 376.032 112.327 376.719 112.53C377.406 112.733 377.984 113.201 378.327 113.832C378.67 114.463 378.75 115.205 378.548 115.894C378.346 116.584 377.879 117.165 377.25 117.509Z" fill="#F2F2F2"/>
<path d="M285.388 170.898C291.714 170.898 296.843 165.75 296.843 159.401C296.843 153.051 291.714 147.904 285.388 147.904C279.061 147.904 273.932 153.051 273.932 159.401C273.932 165.75 279.061 170.898 285.388 170.898Z" fill="#F2F2F2"/>
<path d="M456.785 86.0323H329.994C325.695 86.0372 321.574 87.7533 318.534 90.8041C315.494 93.855 313.784 97.9914 313.779 102.306V251.726C313.784 256.041 315.494 260.177 318.534 263.228C321.574 266.279 325.695 267.995 329.994 268H456.785C461.084 267.995 465.206 266.279 468.245 263.228C471.285 260.177 472.995 256.041 473 251.726V102.306C472.995 97.9914 471.285 93.855 468.245 90.8041C465.206 87.7533 461.084 86.0372 456.785 86.0323Z" fill="#E6E6E6"/>
<path d="M456.786 90.7172H329.994C326.933 90.7206 323.998 91.9427 321.833 94.1152C319.668 96.2878 318.451 99.2334 318.447 102.306V251.726C318.451 254.799 319.668 257.745 321.833 259.917C323.998 262.09 326.933 263.312 329.994 263.315H456.786C459.847 263.312 462.782 262.09 464.947 259.917C467.111 257.745 468.329 254.799 468.332 251.727V102.306C468.329 99.2334 467.111 96.2878 464.947 94.1153C462.782 91.9427 459.847 90.7206 456.786 90.7172Z" fill="white"/>
<path d="M438.703 127.195H391.432C390.715 127.195 390.029 126.91 389.522 126.401C389.016 125.893 388.731 125.204 388.731 124.485C388.731 123.766 389.016 123.077 389.522 122.569C390.029 122.061 390.715 121.775 391.432 121.775H438.703C439.058 121.775 439.409 121.845 439.737 121.981C440.065 122.117 440.363 122.316 440.614 122.568C440.865 122.82 441.064 123.118 441.2 123.447C441.336 123.776 441.406 124.129 441.406 124.485C441.406 124.841 441.336 125.194 441.2 125.523C441.064 125.852 440.865 126.151 440.614 126.403C440.363 126.654 440.065 126.854 439.737 126.99C439.409 127.126 439.058 127.196 438.703 127.195Z" fill="#B68CFF"/>
<path d="M449.841 136.341H391.432C390.715 136.341 390.029 136.056 389.522 135.548C389.016 135.039 388.731 134.35 388.731 133.631C388.731 132.913 389.016 132.223 389.522 131.715C390.029 131.207 390.715 130.921 391.432 130.921H449.841C450.557 130.921 451.244 131.207 451.75 131.715C452.257 132.223 452.541 132.913 452.541 133.631C452.541 134.35 452.257 135.039 451.75 135.548C451.244 136.056 450.557 136.341 449.841 136.341Z" fill="#B68CFF"/>
<path d="M380.97 110.691H337.389C337.046 110.691 336.717 110.828 336.474 111.072C336.232 111.315 336.095 111.645 336.095 111.99V146.126C336.095 146.47 336.232 146.801 336.474 147.044C336.717 147.288 337.046 147.424 337.389 147.424H380.97C381.313 147.424 381.643 147.288 381.885 147.044C382.128 146.801 382.264 146.47 382.264 146.126V111.99C382.264 111.645 382.128 111.315 381.885 111.072C381.642 110.828 381.313 110.691 380.97 110.691Z" fill="#E6E6E6"/>
<path d="M349.344 131.653C349.362 134.535 348.303 137.319 346.377 139.456C344.472 141.555 341.635 142.947 338.772 142.371C336.136 141.841 333.994 139.529 334.261 136.731C334.305 136.125 334.481 135.536 334.775 135.005C335.069 134.475 335.476 134.015 335.965 133.657C336.455 133.3 337.016 133.054 337.61 132.937C338.204 132.82 338.817 132.835 339.405 132.979C341.909 133.632 342.907 137.254 340.82 138.954C340.319 139.362 339.6 138.649 340.105 138.237C341.485 137.113 341.059 134.654 339.393 134.037C337.455 133.319 335.401 134.864 335.262 136.853C335.096 139.211 336.896 140.987 339.104 141.405C341.492 141.857 343.86 140.631 345.478 138.938C347.332 136.971 348.356 134.361 348.333 131.653C348.338 131.522 348.393 131.397 348.487 131.306C348.581 131.214 348.707 131.163 348.838 131.163C348.969 131.163 349.095 131.214 349.19 131.306C349.284 131.397 349.339 131.522 349.344 131.653Z" fill="#2F2E41"/>
<path d="M359.214 138.102C369.172 138.102 377.246 130 377.246 120.005C377.246 110.01 369.172 101.907 359.214 101.907C349.255 101.907 341.182 110.01 341.182 120.005C341.182 130 349.255 138.102 359.214 138.102Z" fill="#B68CFF"/>
<path d="M358.291 127.727L358.272 127.05C359.526 127.015 360.631 126.936 361.462 126.327C361.697 126.145 361.891 125.914 362.029 125.65C362.168 125.385 362.248 125.094 362.264 124.796C362.279 124.614 362.251 124.431 362.184 124.261C362.116 124.092 362.011 123.94 361.876 123.817C361.324 123.35 360.437 123.501 359.791 123.799L359.233 124.056L360.302 116.214L360.97 116.305L360.061 122.976C360.939 122.717 361.753 122.828 362.311 123.301C362.525 123.489 362.693 123.723 362.801 123.987C362.91 124.25 362.957 124.535 362.937 124.82C362.918 125.221 362.811 125.612 362.625 125.967C362.439 126.321 362.177 126.631 361.859 126.874C360.792 127.656 359.405 127.695 358.291 127.727Z" fill="#2F2E41"/>
<path d="M367.901 116.881H364.271V117.557H367.901V116.881Z" fill="#2F2E41"/>
<path d="M356.445 116.881H352.816V117.557H356.445V116.881Z" fill="#2F2E41"/>
<path d="M349.225 147.425C350.577 146.564 352.037 145.889 353.568 145.419C353.422 144.898 353.424 144.346 353.575 143.827C353.778 143.17 354.187 142.597 354.742 142.193C355.296 141.789 355.966 141.575 356.651 141.585H361.044C361.731 141.576 362.401 141.79 362.957 142.194C363.512 142.599 363.923 143.172 364.127 143.83C364.278 144.349 364.28 144.899 364.134 145.419C365.664 145.89 367.125 146.564 368.477 147.425H349.225Z" fill="#2F2E41"/>
<path d="M379.868 113.288C379.54 112.889 379.136 112.559 378.679 112.318C378.279 112.108 377.834 111.998 377.382 111.996C376.761 112.004 376.159 112.208 375.66 112.578C374.289 113.552 373.339 115.652 373.339 118.083C373.339 121.133 374.835 123.663 376.779 124.102C376.977 124.147 377.179 124.169 377.382 124.17C379.609 124.17 381.425 121.441 381.425 118.083C381.425 116.135 380.815 114.401 379.868 113.288Z" fill="#3F3D56"/>
<path d="M342.834 112.433H342.831C342.38 112.152 341.861 112.001 341.331 111.996C340.879 111.998 340.435 112.108 340.034 112.318C339.577 112.559 339.173 112.889 338.845 113.288L338.841 113.292C337.898 114.404 337.288 116.139 337.288 118.083C337.288 120.707 338.393 122.946 339.943 123.801C340.367 124.04 340.845 124.167 341.331 124.17C341.439 124.17 341.547 124.163 341.655 124.15H341.658C343.733 123.899 345.374 121.275 345.374 118.083C345.374 115.527 344.32 113.332 342.834 112.433Z" fill="#3F3D56"/>
<path d="M340.196 123.219C340.276 123.219 340.355 123.2 340.426 123.163C340.498 123.126 340.559 123.073 340.606 123.008C340.653 122.942 340.683 122.867 340.695 122.787C340.707 122.707 340.7 122.626 340.674 122.55C339.709 119.667 339.418 116.6 339.825 113.586C340.233 110.572 341.327 107.693 343.023 105.173C344.719 102.652 346.972 100.558 349.606 99.0537C352.239 97.5491 355.183 96.6742 358.208 96.497C361.233 96.3199 364.259 96.8452 367.049 98.0323C369.839 99.2193 372.319 101.036 374.295 103.341C376.272 105.647 377.693 108.378 378.446 111.324C379.2 114.27 379.267 117.351 378.642 120.327C378.614 120.458 378.64 120.595 378.713 120.708C378.786 120.821 378.901 120.9 379.032 120.928C379.163 120.955 379.3 120.93 379.412 120.856C379.525 120.783 379.603 120.668 379.631 120.536C380.289 117.407 380.219 114.168 379.426 111.071C378.634 107.973 377.141 105.101 375.063 102.677C372.984 100.253 370.377 98.3431 367.444 97.095C364.51 95.8469 361.329 95.2945 358.149 95.4808C354.968 95.6672 351.873 96.5872 349.104 98.1693C346.335 99.7515 343.967 101.953 342.184 104.603C340.401 107.253 339.25 110.28 338.822 113.449C338.395 116.618 338.701 119.843 339.717 122.874C339.75 122.975 339.815 123.062 339.901 123.124C339.987 123.186 340.09 123.219 340.196 123.219Z" fill="#3F3D56"/>
<path d="M368.272 108.279C368.986 109.257 368.634 110.575 367.882 111.419C366.903 112.516 365.342 112.586 363.986 112.382C362.465 112.153 360.852 111.438 359.312 111.92C358 112.331 357.063 113.526 355.7 113.826C354.491 114.092 353.044 113.74 352.621 112.446C352.417 111.824 353.393 111.558 353.595 112.176C353.87 113.013 355.054 112.996 355.732 112.765C356.819 112.393 357.657 111.49 358.726 111.058C359.985 110.549 361.352 110.779 362.635 111.069C363.844 111.342 365.235 111.747 366.44 111.237C367.331 110.859 368.04 109.669 367.399 108.791C367.014 108.264 367.891 107.757 368.272 108.279Z" fill="#2F2E41"/>
<path d="M438.632 170.47H374.514C374.16 170.47 373.808 170.4 373.481 170.263C373.153 170.127 372.856 169.928 372.605 169.676C372.354 169.424 372.155 169.126 372.02 168.797C371.884 168.468 371.814 168.116 371.814 167.76C371.814 167.404 371.884 167.051 372.02 166.723C372.155 166.394 372.354 166.095 372.605 165.843C372.856 165.592 373.153 165.392 373.481 165.256C373.808 165.12 374.16 165.05 374.514 165.05H438.632C439.347 165.051 440.033 165.336 440.539 165.845C441.045 166.353 441.329 167.042 441.329 167.76C441.329 168.478 441.045 169.167 440.539 169.675C440.033 170.183 439.347 170.469 438.632 170.47Z" fill="#E6E6E6"/>
<path d="M449.77 179.616H374.514C374.159 179.616 373.808 179.546 373.48 179.41C373.152 179.274 372.854 179.075 372.603 178.823C372.352 178.572 372.153 178.273 372.017 177.944C371.881 177.615 371.811 177.262 371.811 176.906C371.811 176.55 371.881 176.197 372.017 175.868C372.153 175.539 372.352 175.24 372.603 174.989C372.854 174.737 373.152 174.537 373.48 174.401C373.808 174.265 374.159 174.196 374.514 174.196H449.77C450.125 174.196 450.476 174.265 450.804 174.401C451.132 174.537 451.43 174.737 451.681 174.989C451.932 175.24 452.131 175.539 452.267 175.868C452.403 176.197 452.473 176.55 452.473 176.906C452.473 177.262 452.403 177.615 452.267 177.944C452.131 178.273 451.932 178.572 451.681 178.823C451.43 179.075 451.132 179.274 450.804 179.41C450.476 179.546 450.125 179.616 449.77 179.616Z" fill="#E6E6E6"/>
<path d="M438.632 203.343H374.514C373.798 203.343 373.111 203.057 372.605 202.549C372.098 202.041 371.814 201.351 371.814 200.633C371.814 199.914 372.098 199.225 372.605 198.716C373.111 198.208 373.798 197.923 374.514 197.923H438.632C439.348 197.923 440.035 198.208 440.541 198.716C441.047 199.225 441.332 199.914 441.332 200.633C441.332 201.351 441.047 202.041 440.541 202.549C440.035 203.057 439.348 203.343 438.632 203.343Z" fill="#E6E6E6"/>
<path d="M449.77 212.489H374.514C373.798 212.489 373.111 212.203 372.605 211.695C372.098 211.187 371.814 210.497 371.814 209.779C371.814 209.06 372.098 208.371 372.605 207.862C373.111 207.354 373.798 207.069 374.514 207.069H449.77C450.486 207.069 451.173 207.354 451.679 207.862C452.186 208.371 452.47 209.06 452.47 209.779C452.47 210.497 452.186 211.187 451.679 211.695C451.173 212.203 450.486 212.489 449.77 212.489Z" fill="#E6E6E6"/>
<path d="M349.138 183.728C355.464 183.728 360.593 178.581 360.593 172.231C360.593 165.881 355.464 160.734 349.138 160.734C342.811 160.734 337.682 165.881 337.682 172.231C337.682 178.581 342.811 183.728 349.138 183.728Z" fill="#E6E6E6"/>
<path d="M349.138 216.867C355.464 216.867 360.593 211.719 360.593 205.37C360.593 199.02 355.464 193.873 349.138 193.873C342.811 193.873 337.682 199.02 337.682 205.37C337.682 211.719 342.811 216.867 349.138 216.867Z" fill="#E6E6E6"/>
<path d="M438.632 236.481H374.514C373.798 236.481 373.111 236.196 372.605 235.688C372.098 235.179 371.814 234.49 371.814 233.771C371.814 233.053 372.098 232.363 372.605 231.855C373.111 231.347 373.798 231.061 374.514 231.061H438.632C439.348 231.061 440.035 231.347 440.541 231.855C441.047 232.363 441.332 233.053 441.332 233.771C441.332 234.49 441.047 235.179 440.541 235.688C440.035 236.196 439.348 236.481 438.632 236.481Z" fill="#E6E6E6"/>
<path d="M449.77 245.627H374.514C373.798 245.627 373.111 245.342 372.605 244.834C372.098 244.326 371.814 243.636 371.814 242.917C371.814 242.199 372.098 241.509 372.605 241.001C373.111 240.493 373.798 240.208 374.514 240.208H449.77C450.486 240.208 451.173 240.493 451.679 241.001C452.186 241.509 452.47 242.199 452.47 242.917C452.47 243.636 452.186 244.326 451.679 244.834C451.173 245.342 450.486 245.627 449.77 245.627Z" fill="#E6E6E6"/>
<path d="M349.138 250.006C355.464 250.006 360.593 244.858 360.593 238.509C360.593 232.159 355.464 227.011 349.138 227.011C342.811 227.011 337.682 232.159 337.682 238.509C337.682 244.858 342.811 250.006 349.138 250.006Z" fill="#E6E6E6"/>
</g>
</g>
<defs>
<filter id="filter0_f_406_569" x="-87.2573" y="-76.0571" width="865.349" height="450.707" filterUnits="userSpaceOnUse" color-interpolation-filters="sRGB">
<feFlood flood-opacity="0" result="BackgroundImageFix"/>
<feBlend mode="normal" in="SourceGraphic" in2="BackgroundImageFix" result="shape"/>
<feGaussianBlur stdDeviation="74" result="effect1_foregroundBlur_406_569"/>
</filter>
<clipPath id="clip0_406_569">
<rect width="691" height="298" fill="white"/>
</clipPath>
<clipPath id="clip1_406_569">
<rect width="254" height="238" fill="white" transform="translate(219 30)"/>
</clipPath>
</defs>
</svg>
