<svg width="44" height="44" viewBox="0 0 44 44" fill="none" xmlns="http://www.w3.org/2000/svg">
<path d="M11.0002 3.66663C8.96516 3.66663 7.3335 5.29829 7.3335 7.33329V36.6666C7.3335 37.6391 7.7198 38.5717 8.40744 39.2594C9.09507 39.947 10.0277 40.3333 11.0002 40.3333H18.3335V36.8316L22.1652 33H11.0002V29.3333H25.8318L29.4985 25.6666H11.0002V22H33.1652L36.6668 18.4983V14.6666L25.6668 3.66663H11.0002ZM23.8335 6.41663L33.9168 16.5H23.8335V6.41663ZM36.9418 23.8333C36.8061 23.8303 36.6713 23.8548 36.5452 23.9052C36.4192 23.9556 36.3047 24.0309 36.2085 24.1266L34.3385 25.9966L38.1702 29.81L40.0402 27.9583C40.4252 27.555 40.4252 26.895 40.0402 26.51L37.6568 24.1266C37.5634 24.0323 37.452 23.9577 37.3291 23.9073C37.2063 23.8569 37.0746 23.8317 36.9418 23.8333ZM33.2568 27.0783L22.0002 38.3533V42.1666H25.8135L37.0885 30.8916L33.2568 27.0783Z" fill="white"/>
</svg>
