<svg width="48" height="48" viewBox="0 0 48 48" fill="none" xmlns="http://www.w3.org/2000/svg">
<circle cx="24" cy="24" r="24" fill="#8249E4"/>
<path fill-rule="evenodd" clip-rule="evenodd" d="M14.8877 9.66877C14.6878 10.5305 12.0316 21.7376 12.0024 21.8424C11.9817 21.9168 12.0667 21.9218 13.3726 21.9218C14.4797 21.9218 14.7649 21.9337 14.7649 21.9802C14.7649 22.0123 14.7083 22.3438 14.6391 22.7169C14.5075 23.4261 14.0541 25.8948 13.7983 27.2946C13.7163 27.7435 13.6126 28.3045 13.5679 28.5414C13.5233 28.7783 13.429 29.2884 13.3586 29.675C12.8641 32.3878 12.5771 33.9422 12.5393 34.1125C12.515 34.2215 12.5019 34.3178 12.51 34.3263C12.5181 34.3349 12.9012 33.8071 13.3613 33.1533C13.8213 32.4996 15.1174 30.6588 16.2414 29.0629C17.3654 27.4669 18.4755 25.8893 18.7081 25.5571C18.9408 25.2249 19.9526 23.7865 20.9566 22.3606C21.9606 20.9347 22.9105 19.5845 23.0676 19.36L23.3532 18.952L20.7985 18.9293L18.2437 18.9066L18.5095 18.0452C18.6557 17.5714 19.0482 16.2962 19.3817 15.2114C19.7152 14.1266 20.0425 13.0657 20.1091 12.8537C20.1756 12.6417 20.4648 11.7032 20.7516 10.768C21.0385 9.8329 21.2817 9.05246 21.2921 9.03378C21.3024 9.01505 19.9006 8.99986 18.1769 9L15.0428 9.00023L14.8877 9.66877Z" fill="white"/>
<path d="M24.7467 35.9732V34.2266H23V23.7467H24.7467V22H26.4933V23.7467H28.24V34.2266H26.4933V35.9732H24.7467ZM31.7333 35.9732V31.6066H29.9866V25.4933H31.7333V22H33.4799V25.4933H35.2266V31.6066H33.4799V35.9732H31.7333Z" fill="white"/>
</svg>
