<svg width="48" height="48" viewBox="0 0 48 48" fill="none" xmlns="http://www.w3.org/2000/svg">
<circle cx="24" cy="24" r="24" fill="#8249E4"/>
<path d="M19 33V31H23V27.9C22.1833 27.7167 21.4543 27.371 20.813 26.863C20.1717 26.355 19.7007 25.7173 19.4 24.95C18.15 24.8 17.1043 24.2543 16.263 23.313C15.4217 22.3717 15.0007 21.2673 15 20V19C15 18.45 15.196 17.9793 15.588 17.588C15.98 17.1967 16.4507 17.0007 17 17H19V15H29V17H31C31.55 17 32.021 17.196 32.413 17.588C32.805 17.98 33.0007 18.4507 33 19V20C33 21.2667 32.579 22.371 31.737 23.313C30.895 24.255 29.8493 24.8007 28.6 24.95C28.3 25.7167 27.8293 26.3543 27.188 26.863C26.5467 27.3717 25.8173 27.7173 25 27.9V31H29V33H19ZM19 22.8V19H17V20C17 20.6333 17.1833 21.2043 17.55 21.713C17.9167 22.2217 18.4 22.584 19 22.8ZM29 22.8C29.6 22.5833 30.0833 22.2207 30.45 21.712C30.8167 21.2033 31 20.6327 31 20V19H29V22.8Z" fill="white"/>
</svg>
