<svg width="44" height="44" viewBox="0 0 44 44" fill="none" xmlns="http://www.w3.org/2000/svg">
<path d="M33 27.5L31.0613 29.4387L35.9838 34.375H13.75C12.2913 34.375 10.8924 33.7955 9.86091 32.7641C8.82946 31.7326 8.25 30.3337 8.25 28.875C8.25 27.4163 8.82946 26.0174 9.86091 24.9859C10.8924 23.9545 12.2913 23.375 13.75 23.375H30.25C32.438 23.375 34.5365 22.5058 36.0836 20.9586C37.6308 19.4115 38.5 17.313 38.5 15.125C38.5 12.937 37.6308 10.8385 36.0836 9.29137C34.5365 7.74419 32.438 6.875 30.25 6.875H8.01625L12.9387 1.93875L11 0L2.75 8.25L11 16.5L12.9387 14.5613L8.01625 9.625H30.25C31.7087 9.625 33.1076 10.2045 34.1391 11.2359C35.1705 12.2674 35.75 13.6663 35.75 15.125C35.75 16.5837 35.1705 17.9826 34.1391 19.0141C33.1076 20.0455 31.7087 20.625 30.25 20.625H13.75C11.562 20.625 9.46354 21.4942 7.91637 23.0414C6.36919 24.5885 5.5 26.687 5.5 28.875C5.5 31.063 6.36919 33.1615 7.91637 34.7086C9.46354 36.2558 11.562 37.125 13.75 37.125H35.9838L31.0613 42.0613L33 44L41.25 35.75L33 27.5Z" fill="white"/>
</svg>
