<svg width="44" height="44" viewBox="0 0 44 44" fill="none" xmlns="http://www.w3.org/2000/svg">
<path fill-rule="evenodd" clip-rule="evenodd" d="M6.6 4.125C5.94359 4.125 5.31406 4.38576 4.84991 4.84991C4.38576 5.31406 4.125 5.94359 4.125 6.6V37.4C4.125 38.7677 5.23233 39.875 6.6 39.875H37.4C37.725 39.875 38.0469 39.811 38.3471 39.6866C38.6474 39.5622 38.9203 39.3799 39.1501 39.1501C39.3799 38.9203 39.5622 38.6474 39.6866 38.3471C39.811 38.0469 39.875 37.725 39.875 37.4V6.6C39.875 6.27498 39.811 5.95314 39.6866 5.65286C39.5622 5.35258 39.3799 5.07974 39.1501 4.84991C38.9203 4.62009 38.6474 4.43778 38.3471 4.3134C38.0469 4.18902 37.725 4.125 37.4 4.125H6.6ZM30.7083 14.6667C30.7083 14.302 30.5635 13.9523 30.3056 13.6944C30.0477 13.4365 29.698 13.2917 29.3333 13.2917C28.9687 13.2917 28.6189 13.4365 28.3611 13.6944C28.1032 13.9523 27.9583 14.302 27.9583 14.6667V29.3333C27.9583 29.698 28.1032 30.0477 28.3611 30.3056C28.6189 30.5635 28.9687 30.7083 29.3333 30.7083C29.698 30.7083 30.0477 30.5635 30.3056 30.3056C30.5635 30.0477 30.7083 29.698 30.7083 29.3333V14.6667ZM22 18.7917C22.3647 18.7917 22.7144 18.9365 22.9723 19.1944C23.2301 19.4523 23.375 19.802 23.375 20.1667V29.3333C23.375 29.698 23.2301 30.0477 22.9723 30.3056C22.7144 30.5635 22.3647 30.7083 22 30.7083C21.6353 30.7083 21.2856 30.5635 21.0277 30.3056C20.7699 30.0477 20.625 29.698 20.625 29.3333V20.1667C20.625 19.802 20.7699 19.4523 21.0277 19.1944C21.2856 18.9365 21.6353 18.7917 22 18.7917ZM16.0417 23.8333C16.0417 23.4687 15.8968 23.1189 15.6389 22.8611C15.3811 22.6032 15.0313 22.4583 14.6667 22.4583C14.302 22.4583 13.9523 22.6032 13.6944 22.8611C13.4365 23.1189 13.2917 23.4687 13.2917 23.8333V29.3333C13.2917 29.698 13.4365 30.0477 13.6944 30.3056C13.9523 30.5635 14.302 30.7083 14.6667 30.7083C15.0313 30.7083 15.3811 30.5635 15.6389 30.3056C15.8968 30.0477 16.0417 29.698 16.0417 29.3333V23.8333Z" fill="white"/>
</svg>
