<svg width="44" height="44" viewBox="0 0 44 44" fill="none" xmlns="http://www.w3.org/2000/svg">
<path d="M22 5.5C25.5002 5.50114 28.9094 6.61536 31.7348 8.6816C34.5601 10.7478 36.6551 13.659 37.717 16.9943C38.7789 20.3296 38.7526 23.9162 37.642 27.2355C36.5313 30.5549 34.3938 33.4351 31.5386 35.4597C28.6833 37.4843 25.2581 38.5485 21.7582 38.4983C18.2583 38.4482 14.865 37.2863 12.0689 35.1807C9.27283 33.0751 7.21877 30.1348 6.20369 26.785C5.18862 23.4352 5.26512 19.8493 6.42215 16.5458L22 22V5.5Z" fill="white"/>
<path d="M5.5 22C5.5 24.1668 5.92678 26.3124 6.75599 28.3143C7.58519 30.3161 8.80057 32.1351 10.3327 33.6673C11.8649 35.1994 13.6839 36.4148 15.6857 37.244C17.6876 38.0732 19.8332 38.5 22 38.5C24.1668 38.5 26.3124 38.0732 28.3143 37.244C30.3161 36.4148 32.1351 35.1994 33.6673 33.6673C35.1994 32.1351 36.4148 30.3161 37.244 28.3143C38.0732 26.3124 38.5 24.1668 38.5 22C38.5 17.6239 36.7616 13.4271 33.6673 10.3327C30.5729 7.23839 26.3761 5.5 22 5.5C17.6239 5.5 13.4271 7.23839 10.3327 10.3327C7.23839 13.4271 5.5 17.6239 5.5 22Z" stroke="white" stroke-width="2" stroke-linecap="round" stroke-linejoin="round"/>
</svg>
