<svg width="44" height="44" viewBox="0 0 44 44" fill="none" xmlns="http://www.w3.org/2000/svg">
<path d="M40.0109 16.5016L40.047 16.6045L40.1814 17.0492L40.2937 17.4483L40.3417 17.6306L40.4202 17.9606C41.4394 22.5591 40.6955 27.3727 38.3357 31.449C35.9812 35.5379 32.1754 38.5921 27.6736 40.0054L27.3562 40.0997L26.9665 40.2003L26.4031 40.3338C26.2041 40.3791 25.9979 40.3829 25.7974 40.345C25.5969 40.3071 25.4063 40.2282 25.2376 40.1133C25.0689 39.9985 24.9257 39.8501 24.8169 39.6774C24.7082 39.5047 24.6361 39.3115 24.6054 39.1097C24.5422 38.6956 24.6368 38.2729 24.8705 37.9253C25.1042 37.5776 25.4599 37.3304 25.8672 37.2326L26.3206 37.1187C26.6035 37.0443 26.8468 36.9728 27.0505 36.9042C30.6658 35.6836 33.711 33.1849 35.614 29.8776C37.5283 26.5727 38.1687 22.6821 37.4149 18.9381L37.3607 18.6921L37.2884 18.4053L37.198 18.0769L37.0896 17.7076C36.9682 17.3048 37.0025 16.871 37.1859 16.4923C37.3693 16.1137 37.6883 15.8177 38.0796 15.6632C38.2615 15.5913 38.4557 15.556 38.6512 15.5593C38.8467 15.5626 39.0396 15.6043 39.219 15.6822C39.3983 15.76 39.5606 15.8725 39.6965 16.0131C39.8323 16.1536 39.9392 16.3196 40.0109 16.5016ZM5.80246 15.6514C5.83651 15.6619 5.87003 15.6734 5.90303 15.686C6.2935 15.8382 6.61254 16.1315 6.79692 16.5078C6.98131 16.8842 7.01757 17.316 6.89853 17.7178C6.7571 18.194 6.65496 18.5902 6.5921 18.9066C5.84154 22.6477 6.48276 26.5342 8.39532 29.8359C10.3001 33.1462 13.349 35.6463 16.9682 36.8657L17.2087 36.9419L17.3454 36.9812L17.6518 37.0645L18.1971 37.1988C18.6068 37.2952 18.9652 37.5419 19.2014 37.8902C19.4377 38.2385 19.5343 38.6628 19.4723 39.0791C19.4141 39.4693 19.2033 39.8205 18.8862 40.0554C18.5691 40.2902 18.1718 40.3895 17.7815 40.3315L17.673 40.3118L17.2205 40.2058L16.8197 40.1036L16.4693 40.0054L16.3122 39.9583C11.8197 38.5411 8.02277 35.4893 5.67281 31.4066C3.30868 27.3231 2.5663 22.5 3.59303 17.8946L3.65353 17.6432L3.7321 17.3485L3.88453 16.8261L3.94424 16.6296C4.00196 16.4433 4.0958 16.2702 4.22043 16.1202C4.34505 15.9701 4.49801 15.8461 4.67056 15.7552C4.84312 15.6643 5.03189 15.6083 5.22611 15.5903C5.42032 15.5724 5.61616 15.5937 5.80246 15.6514ZM22.04 9.42855C28.9834 9.42855 34.6115 15.0566 34.6115 22C34.6115 28.9433 28.9834 34.5714 22.04 34.5714C15.0967 34.5714 9.4686 28.9433 9.4686 22C9.4686 15.0566 15.0975 9.42855 22.04 9.42855ZM22.04 12.5714C16.8331 12.5714 12.6115 16.793 12.6115 22C12.6115 27.2069 16.8331 31.4286 22.04 31.4286C27.2477 31.4286 31.4686 27.2069 31.4686 22C31.4686 16.793 27.2477 12.5714 22.04 12.5714ZM22.04 3.14284C26.7586 3.13705 31.3068 4.90564 34.782 8.09755L34.9697 8.27591L35.1858 8.49119L35.4294 8.74419L35.7012 9.03412C35.8399 9.18378 35.9463 9.36042 36.0137 9.553C36.0811 9.74559 36.1081 9.95 36.0929 10.1535C36.0778 10.357 36.0209 10.5551 35.9258 10.7357C35.8307 10.9162 35.6995 11.0752 35.5402 11.2027C35.2131 11.4647 34.7996 11.5943 34.3815 11.5658C33.9634 11.5373 33.5712 11.3527 33.2828 11.0487C33.1121 10.868 32.9536 10.7064 32.8075 10.5639L32.5325 10.3015L32.4067 10.1891C29.5422 7.66839 25.8558 6.28034 22.04 6.28569C18.2208 6.28016 14.5311 7.67061 11.6655 10.1954L11.5759 10.2756L11.3771 10.4641L11.1516 10.6881L10.7627 11.0927C10.1655 11.7283 9.18024 11.7998 8.49746 11.2577C8.34433 11.1361 8.21666 10.9856 8.12174 10.8147C8.02682 10.6438 7.96651 10.4558 7.94425 10.2616C7.922 10.0673 7.93824 9.8706 7.99204 9.68264C8.04584 9.49468 8.13615 9.31917 8.25782 9.16612L8.32853 9.08284L8.64674 8.74419L8.93589 8.44719C9.07312 8.30943 9.19989 8.18765 9.31617 8.08184C12.7889 4.90005 17.3293 3.13749 22.0392 3.14284" fill="white"/>
</svg>
