<svg width="44" height="44" viewBox="0 0 44 44" fill="none" xmlns="http://www.w3.org/2000/svg">
<path d="M35.75 5.5H8.25C7.52065 5.5 6.82118 5.78973 6.30546 6.30546C5.78973 6.82118 5.5 7.52065 5.5 8.25V35.75C5.5 36.4793 5.78973 37.1788 6.30546 37.6945C6.82118 38.2103 7.52065 38.5 8.25 38.5H35.75C36.4793 38.5 37.1788 38.2103 37.6945 37.6945C38.2103 37.1788 38.5 36.4793 38.5 35.75V8.25C38.5 7.52065 38.2103 6.82118 37.6945 6.30546C37.1788 5.78973 36.4793 5.5 35.75 5.5ZM31.625 23.375H23.375V31.625C23.375 31.9897 23.2301 32.3394 22.9723 32.5973C22.7144 32.8551 22.3647 33 22 33C21.6353 33 21.2856 32.8551 21.0277 32.5973C20.7699 32.3394 20.625 31.9897 20.625 31.625V23.375H12.375C12.0103 23.375 11.6606 23.2301 11.4027 22.9723C11.1449 22.7144 11 22.3647 11 22C11 21.6353 11.1449 21.2856 11.4027 21.0277C11.6606 20.7699 12.0103 20.625 12.375 20.625H20.625V12.375C20.625 12.0103 20.7699 11.6606 21.0277 11.4027C21.2856 11.1449 21.6353 11 22 11C22.3647 11 22.7144 11.1449 22.9723 11.4027C23.2301 11.6606 23.375 12.0103 23.375 12.375V20.625H31.625C31.9897 20.625 32.3394 20.7699 32.5973 21.0277C32.8551 21.2856 33 21.6353 33 22C33 22.3647 32.8551 22.7144 32.5973 22.9723C32.3394 23.2301 31.9897 23.375 31.625 23.375Z" fill="white"/>
</svg>
