<svg width="44" height="44" viewBox="0 0 44 44" fill="none" xmlns="http://www.w3.org/2000/svg">
<path d="M15.8126 15.5834H7.56258C7.07635 15.5834 6.61004 15.3903 6.26622 15.0464C5.9224 14.7026 5.72925 14.2363 5.72925 13.7501V5.50008C5.72925 5.01385 5.9224 4.54754 6.26622 4.20372C6.61004 3.8599 7.07635 3.66675 7.56258 3.66675C8.04881 3.66675 8.51513 3.8599 8.85894 4.20372C9.20276 4.54754 9.39591 5.01385 9.39591 5.50008V11.9167H15.8126C16.2988 11.9167 16.7651 12.1099 17.1089 12.4537C17.4528 12.7975 17.6459 13.2639 17.6459 13.7501C17.6459 14.2363 17.4528 14.7026 17.1089 15.0464C16.7651 15.3903 16.2988 15.5834 15.8126 15.5834Z" fill="white"/>
<path d="M38.4999 23.8334C38.0137 23.8334 37.5474 23.6402 37.2035 23.2964C36.8597 22.9526 36.6666 22.4863 36.6666 22C36.668 18.7725 35.604 15.6348 33.6399 13.0737C31.6758 10.5127 28.9213 8.67149 25.8038 7.83592C22.6863 7.00034 19.3802 7.21708 16.3985 8.45251C13.4168 9.68793 10.9262 11.873 9.31324 14.6685C9.06964 15.0894 8.66884 15.3962 8.19901 15.5215C7.72919 15.6468 7.22882 15.5804 6.80799 15.3368C6.38716 15.0932 6.08033 14.6924 5.95501 14.2225C5.82969 13.7527 5.89614 13.2524 6.13974 12.8315C8.15687 9.33763 11.2707 6.60707 14.9981 5.06348C18.7255 3.51989 22.8581 3.24955 26.7548 4.2944C30.6515 5.33925 34.0945 7.64088 36.5496 10.8422C39.0047 14.0436 40.3347 17.9657 40.3332 22C40.3332 22.4863 40.1401 22.9526 39.7963 23.2964C39.4525 23.6402 38.9861 23.8334 38.4999 23.8334ZM36.4374 40.3334C35.9512 40.3334 35.4849 40.1402 35.141 39.7964C34.7972 39.4526 34.6041 38.9863 34.6041 38.5V32.0834H28.1874C27.7012 32.0834 27.2349 31.8902 26.891 31.5464C26.5472 31.2026 26.3541 30.7363 26.3541 30.25C26.3541 29.7638 26.5472 29.2975 26.891 28.9537C27.2349 28.6098 27.7012 28.4167 28.1874 28.4167H36.4374C36.9236 28.4167 37.39 28.6098 37.7338 28.9537C38.0776 29.2975 38.2707 29.7638 38.2707 30.25V38.5C38.2707 38.9863 38.0776 39.4526 37.7338 39.7964C37.39 40.1402 36.9236 40.3334 36.4374 40.3334Z" fill="white"/>
<path d="M22.0001 40.3334C17.1393 40.3286 12.4789 38.3955 9.04182 34.9583C5.6047 31.5212 3.6716 26.8609 3.66675 22.0001C3.66675 21.5139 3.8599 21.0475 4.20372 20.7037C4.54754 20.3599 5.01385 20.1667 5.50008 20.1667C5.98631 20.1667 6.45263 20.3599 6.79644 20.7037C7.14026 21.0475 7.33341 21.5139 7.33341 22.0001C7.33202 25.2276 8.39594 28.3653 10.3601 30.9264C12.3242 33.4874 15.0787 35.3286 18.1962 36.1642C21.3137 36.9998 24.6198 36.783 27.6015 35.5476C30.5832 34.3122 33.0738 32.1271 34.6867 29.3316C34.8074 29.1232 34.9678 28.9406 35.159 28.7943C35.3502 28.6479 35.5683 28.5407 35.801 28.4786C36.0336 28.4165 36.2762 28.4009 36.5149 28.4326C36.7535 28.4643 36.9836 28.5427 37.192 28.6633C37.4004 28.7839 37.583 28.9444 37.7293 29.1356C37.8757 29.3268 37.9829 29.5449 38.045 29.7776C38.107 30.0102 38.1227 30.2528 38.091 30.4914C38.0593 30.7301 37.9809 30.9602 37.8602 31.1686C36.2481 33.949 33.9354 36.2584 31.1526 37.8664C28.3698 39.4745 25.2141 40.3251 22.0001 40.3334Z" fill="white"/>
</svg>
