<svg width="44" height="44" viewBox="0 0 44 44" fill="none" xmlns="http://www.w3.org/2000/svg">
<path d="M27.5 5.49994C29.876 5.49994 32.076 6.25161 33.8745 7.53494L17.1288 24.2788C16.9537 24.4479 16.8141 24.6502 16.718 24.8739C16.6219 25.0975 16.5713 25.3381 16.5692 25.5815C16.5671 25.825 16.6135 26.0664 16.7057 26.2917C16.7978 26.517 16.934 26.7217 17.1061 26.8938C17.2782 27.066 17.4829 27.2021 17.7083 27.2943C17.9336 27.3865 18.175 27.4328 18.4184 27.4307C18.6618 27.4286 18.9024 27.378 19.1261 27.282C19.3497 27.1859 19.552 27.0462 19.7212 26.8711L36.4668 10.1254C37.79 11.9876 38.5006 14.2155 38.5 16.4999V34.8333C38.5 35.8057 38.1137 36.7384 37.4261 37.426C36.7384 38.1136 35.8058 38.4999 34.8333 38.4999H9.16667C8.19421 38.4999 7.26157 38.1136 6.57394 37.426C5.88631 36.7384 5.5 35.8057 5.5 34.8333V9.16661C5.5 8.19415 5.88631 7.26152 6.57394 6.57388C7.26157 5.88625 8.19421 5.49994 9.16667 5.49994H27.5ZM39.7045 4.29544C40.0482 4.63924 40.2413 5.10547 40.2413 5.59161C40.2413 6.07774 40.0482 6.54397 39.7045 6.88778L36.465 10.1254C35.752 9.1224 34.8757 8.24613 33.8727 7.53311L37.1103 4.29544C37.4541 3.95175 37.9204 3.75867 38.4065 3.75867C38.8926 3.75867 39.3607 3.95175 39.7045 4.29544Z" fill="white"/>
</svg>
