<svg width="44" height="44" viewBox="0 0 44 44" fill="none" xmlns="http://www.w3.org/2000/svg">
<path fill-rule="evenodd" clip-rule="evenodd" d="M15.5038 13.0593C15.5038 11.2858 14.0266 9.84208 12.2078 9.84208C10.3909 9.84208 8.91171 11.2858 8.91171 13.0593C8.91171 14.8328 10.3909 16.2765 12.2078 16.2765C14.0266 16.2765 15.5038 14.8328 15.5038 13.0593ZM18.4155 13.0593C18.4155 16.3997 15.6319 19.1186 12.2078 19.1186C8.78555 19.1186 6 16.3997 6 13.0593C6 9.71891 8.78555 7 12.2078 7C15.6319 7 18.4155 9.71891 18.4155 13.0593ZM39 13.0597C39 12.2753 38.3478 11.6386 37.5442 11.6386H25.6061C24.8024 11.6386 24.1503 12.2753 24.1503 13.0597C24.1503 13.8441 24.8024 14.4807 25.6061 14.4807H37.5442C38.3478 14.4807 39 13.8441 39 13.0597ZM29.4955 31.9406C29.4955 33.7142 30.9727 35.158 32.7917 35.158C34.6105 35.158 36.0878 33.7142 36.0878 31.9406C36.0878 30.1653 34.6105 28.7235 32.7917 28.7235C30.9727 28.7235 29.4955 30.1653 29.4955 31.9406ZM26.5839 31.9406C26.5839 28.5984 29.3675 25.8814 32.7917 25.8814C36.2158 25.8814 38.9993 28.5984 38.9993 31.9406C38.9993 35.2811 36.2158 38 32.7917 38C29.3675 38 26.5839 35.2811 26.5839 31.9406ZM7.45721 30.519H19.3934C20.1969 30.519 20.8492 31.1557 20.8492 31.9402C20.8492 32.7246 20.1969 33.3611 19.3934 33.3611H7.45721C6.65358 33.3611 6.00135 32.7246 6.00135 31.9402C6.00135 31.1557 6.65358 30.519 7.45721 30.519Z" fill="white"/>
</svg>
