<svg width="44" height="44" viewBox="0 0 44 44" fill="none" xmlns="http://www.w3.org/2000/svg">
<path d="M38.8116 28.2334L27.9766 10.1751C26.5466 7.79173 24.3833 6.43506 21.9999 6.43506C19.6166 6.43506 17.4533 7.79173 16.0233 10.1567L5.18827 28.2334C4.3816 29.5717 3.97827 30.9651 3.97827 32.2851C3.97827 33.3301 4.23494 34.3567 4.74827 35.2551C5.9216 37.3084 8.19494 38.5001 10.9999 38.5001H32.9999C35.8049 38.5001 38.0783 37.3084 39.2516 35.2551C39.7649 34.3567 40.0216 33.3851 40.0216 32.3584C40.0399 31.0017 39.6366 29.5901 38.8116 28.2334ZM21.9999 15.4917C23.5583 15.4917 24.8416 16.7751 24.8416 18.3334C24.8416 19.8917 23.5766 21.1751 21.9999 21.1751C20.4416 21.1751 19.1583 19.8917 19.1583 18.3334C19.1583 16.7567 20.4233 15.4917 21.9999 15.4917ZM25.0983 31.0017C25.0433 31.0751 23.6316 32.6884 21.3033 32.6884H21.0283C20.0933 32.6334 19.3233 32.2301 18.8649 31.5334C18.2966 30.6717 18.2049 29.4984 18.6449 28.1967L19.3966 25.9601C19.8183 24.7134 19.4149 24.5117 19.1949 24.4017L18.9383 24.3651C18.4799 24.3651 17.8383 24.6401 17.6366 24.7501C17.4533 24.8417 17.2149 24.8051 17.0683 24.6217C16.9399 24.4384 16.9399 24.2001 17.0866 24.0351C17.1416 23.9617 18.6816 22.2201 21.1566 22.3667C22.0916 22.4217 22.8616 22.8251 23.3199 23.5217C23.9066 24.3834 23.9799 25.5567 23.5399 26.8767L22.7883 29.1134C22.3666 30.3601 22.7699 30.5617 22.9899 30.6717L23.2466 30.7084C23.7049 30.7084 24.3466 30.4334 24.5483 30.3417C24.7499 30.2317 24.9699 30.2867 25.1166 30.4701C25.2449 30.5984 25.2449 30.8367 25.0983 31.0017Z" fill="white"/>
</svg>
