<svg width="44" height="44" viewBox="0 0 44 44" fill="none" xmlns="http://www.w3.org/2000/svg">
<path d="M16.6099 3.53841C13.1449 3.52007 9.77158 6.85674 11.3116 11.0001H5.49992C4.52746 11.0001 3.59483 11.3864 2.90719 12.074C2.21956 12.7616 1.83325 13.6943 1.83325 14.6667V18.3334C1.83325 18.8196 2.02641 19.286 2.37022 19.6298C2.71404 19.9736 3.18035 20.1667 3.66659 20.1667H20.1666V14.6667H23.8333V20.1667H40.3333C40.8195 20.1667 41.2858 19.9736 41.6296 19.6298C41.9734 19.286 42.1666 18.8196 42.1666 18.3334V14.6667C42.1666 13.6943 41.7803 12.7616 41.0926 12.074C40.405 11.3864 39.4724 11.0001 38.4999 11.0001H32.6882C34.8333 5.00507 26.7666 0.770072 23.0449 5.94007L21.9999 7.33341L20.9549 5.90341C19.7999 4.27174 18.2049 3.55674 16.6099 3.53841ZM16.4999 7.33341C18.1316 7.33341 18.9566 9.31341 17.8016 10.4684C16.6466 11.6234 14.6666 10.7984 14.6666 9.16674C14.6666 8.68051 14.8597 8.21419 15.2036 7.87038C15.5474 7.52656 16.0137 7.33341 16.4999 7.33341ZM27.4999 7.33341C29.1316 7.33341 29.9566 9.31341 28.8016 10.4684C27.6466 11.6234 25.6666 10.7984 25.6666 9.16674C25.6666 8.68051 25.8597 8.21419 26.2036 7.87038C26.5474 7.52656 27.0137 7.33341 27.4999 7.33341ZM3.66659 22.0001V36.6667C3.66659 37.6392 4.05289 38.5718 4.74053 39.2595C5.42816 39.9471 6.36079 40.3334 7.33325 40.3334H36.6666C37.639 40.3334 38.5717 39.9471 39.2593 39.2595C39.9469 38.5718 40.3333 37.6392 40.3333 36.6667V22.0001H23.8333V36.6667H20.1666V22.0001H3.66659Z" fill="white"/>
</svg>
