<svg width="44" height="44" viewBox="0 0 44 44" fill="none" xmlns="http://www.w3.org/2000/svg">
<path d="M12.8333 16.4999V12.8333H38.5V16.4999H12.8333ZM12.8333 23.8333V20.1666H38.5V23.8333H12.8333ZM12.8333 31.1666V27.4999H38.5V31.1666H12.8333ZM7.33334 16.4999C6.8139 16.4999 6.37878 16.3239 6.02801 15.9719C5.67723 15.6199 5.50123 15.1848 5.50001 14.6666C5.49878 14.1484 5.67478 13.7133 6.02801 13.3613C6.38123 13.0093 6.81634 12.8333 7.33334 12.8333C7.85034 12.8333 8.28606 13.0093 8.64051 13.3613C8.99495 13.7133 9.17034 14.1484 9.16667 14.6666C9.16301 15.1848 8.98701 15.6205 8.63867 15.9738C8.29034 16.327 7.85523 16.5024 7.33334 16.4999ZM7.33334 23.8333C6.8139 23.8333 6.37878 23.6573 6.02801 23.3053C5.67723 22.9533 5.50123 22.5181 5.50001 21.9999C5.49878 21.4817 5.67478 21.0466 6.02801 20.6946C6.38123 20.3426 6.81634 20.1666 7.33334 20.1666C7.85034 20.1666 8.28606 20.3426 8.64051 20.6946C8.99495 21.0466 9.17034 21.4817 9.16667 21.9999C9.16301 22.5181 8.98701 22.9539 8.63867 23.3071C8.29034 23.6603 7.85523 23.8357 7.33334 23.8333ZM7.33334 31.1666C6.8139 31.1666 6.37878 30.9906 6.02801 30.6386C5.67723 30.2866 5.50123 29.8515 5.50001 29.3333C5.49878 28.815 5.67478 28.3799 6.02801 28.0279C6.38123 27.6759 6.81634 27.4999 7.33334 27.4999C7.85034 27.4999 8.28606 27.6759 8.64051 28.0279C8.99495 28.3799 9.17034 28.815 9.16667 29.3333C9.16301 29.8515 8.98701 30.2872 8.63867 30.6404C8.29034 30.9936 7.85523 31.169 7.33334 31.1666Z" fill="white"/>
</svg>
