<svg width="44" height="44" viewBox="0 0 44 44" fill="none" xmlns="http://www.w3.org/2000/svg">
<path fill-rule="evenodd" clip-rule="evenodd" d="M9.20647 5.20647C8 6.41294 8 8.35235 8 12.2353V30.7647C8 34.6476 8 36.5871 9.20647 37.7935C10.4129 39 12.3524 39 16.2353 39H28.5882C32.4712 39 34.4106 39 35.6171 37.7935C36.8235 36.5871 36.8235 34.6476 36.8235 30.7647V12.2353C36.8235 8.35235 36.8235 6.41294 35.6171 5.20647C34.4106 4 32.4712 4 28.5882 4H16.2353C12.3524 4 10.4129 4 9.20647 5.20647ZM16.2353 12.2353C15.6893 12.2353 15.1656 12.4522 14.7795 12.8383C14.3934 13.2244 14.1765 13.7481 14.1765 14.2941C14.1765 14.8402 14.3934 15.3638 14.7795 15.7499C15.1656 16.136 15.6893 16.3529 16.2353 16.3529H28.5882C29.1343 16.3529 29.6579 16.136 30.044 15.7499C30.4301 15.3638 30.6471 14.8402 30.6471 14.2941C30.6471 13.7481 30.4301 13.2244 30.044 12.8383C29.6579 12.4522 29.1343 12.2353 28.5882 12.2353H16.2353ZM16.2353 20.4706C15.6893 20.4706 15.1656 20.6875 14.7795 21.0736C14.3934 21.4597 14.1765 21.9834 14.1765 22.5294C14.1765 23.0754 14.3934 23.5991 14.7795 23.9852C15.1656 24.3713 15.6893 24.5882 16.2353 24.5882H28.5882C29.1343 24.5882 29.6579 24.3713 30.044 23.9852C30.4301 23.5991 30.6471 23.0754 30.6471 22.5294C30.6471 21.9834 30.4301 21.4597 30.044 21.0736C29.6579 20.6875 29.1343 20.4706 28.5882 20.4706H16.2353ZM16.2353 28.7059C15.6893 28.7059 15.1656 28.9228 14.7795 29.3089C14.3934 29.695 14.1765 30.2187 14.1765 30.7647C14.1765 31.3107 14.3934 31.8344 14.7795 32.2205C15.1656 32.6066 15.6893 32.8235 16.2353 32.8235H24.4706C25.0166 32.8235 25.5403 32.6066 25.9264 32.2205C26.3125 31.8344 26.5294 31.3107 26.5294 30.7647C26.5294 30.2187 26.3125 29.695 25.9264 29.3089C25.5403 28.9228 25.0166 28.7059 24.4706 28.7059H16.2353Z" fill="white"/>
</svg>
