<svg width="60" height="60" viewBox="0 0 60 60" fill="none" xmlns="http://www.w3.org/2000/svg">
<g clip-path="url(#clip0_1_212)">
<path fill-rule="evenodd" clip-rule="evenodd" d="M57.6984 41.5371C57.6984 54.2743 46.157 60 29.9998 60C13.8427 60 2.30127 54.2743 2.30127 41.6271C2.30127 27.78 9.22698 20.7643 23.0741 13.7486L18.1713 4.6157C17.8787 4.15827 17.7158 3.63001 17.7 3.08726C17.6841 2.54452 17.8158 2.00764 18.081 1.53386C18.3463 1.06009 18.7352 0.667189 19.2062 0.397058C19.6772 0.126927 20.2127 -0.0103065 20.7556 -9.69332e-06H40.3284C40.8373 0.0130103 41.3344 0.155291 41.7731 0.413441C42.2118 0.671591 42.5776 1.03712 42.8361 1.47563C43.0946 1.91414 43.2372 2.4112 43.2506 2.92005C43.264 3.42889 43.1477 3.93277 42.9127 4.38428L36.9256 13.7486C50.7684 20.67 57.6984 27.6857 57.6984 41.5371ZM32.6784 20.9443C32.6784 20.2339 32.3962 19.5526 31.8939 19.0502C31.3915 18.5479 30.7102 18.2657 29.9998 18.2657C29.2894 18.2657 28.6081 18.5479 28.1058 19.0502C27.6035 19.5526 27.3213 20.2339 27.3213 20.9443V23.6314C25.5058 23.7014 23.7783 24.4317 22.4632 25.6853C21.148 26.9388 20.3358 28.6294 20.179 30.4394C20.0222 32.2495 20.5316 34.0546 21.6116 35.5156C22.6915 36.9766 24.2677 37.9932 26.0441 38.3743L32.357 39.7543C33.004 39.8936 33.5766 40.2675 33.9643 40.8039C34.3519 41.3404 34.5273 42.0014 34.4565 42.6594C34.3856 43.3175 34.0737 43.926 33.5808 44.3677C33.0878 44.8094 32.4488 45.053 31.787 45.0514H28.2127C27.6586 45.0523 27.1178 44.8813 26.665 44.562C26.2121 44.2427 25.8694 43.7908 25.6841 43.2686C25.5759 42.9259 25.3999 42.6086 25.1665 42.3354C24.9331 42.0622 24.6471 41.8387 24.3256 41.6783C24.004 41.5179 23.6535 41.4239 23.2949 41.4017C22.9362 41.3796 22.5768 41.4299 22.238 41.5495C21.8992 41.6692 21.5879 41.8558 21.3227 42.0982C21.0575 42.3406 20.8437 42.6339 20.6942 42.9607C20.5447 43.2874 20.4625 43.6409 20.4524 44.0001C20.4423 44.3593 20.5046 44.7168 20.6356 45.0514C21.1406 46.4739 22.0352 47.726 23.2173 48.6648C24.3993 49.6036 25.8213 50.1915 27.3213 50.3614V53.0871C27.3213 53.7975 27.6035 54.4788 28.1058 54.9812C28.6081 55.4835 29.2894 55.7657 29.9998 55.7657C30.7102 55.7657 31.3915 55.4835 31.8939 54.9812C32.3962 54.4788 32.6784 53.7975 32.6784 53.0871V50.3614C34.5695 50.1464 36.323 49.2676 37.627 47.8811C38.9309 46.4947 39.7007 44.6907 39.7995 42.79C39.8982 40.8893 39.3195 39.0152 38.1662 37.5011C37.0129 35.987 35.3599 34.9312 33.5013 34.5214L27.1884 33.1414C26.6762 33.0366 26.2216 32.7445 25.9133 32.3222C25.6051 31.8999 25.4655 31.3778 25.5217 30.8581C25.578 30.3383 25.8261 29.8582 26.2176 29.5117C26.609 29.1651 27.1157 28.9771 27.6384 28.9843H31.787C32.3418 28.9802 32.884 29.15 33.3375 29.4697C33.791 29.7895 34.133 30.2432 34.3156 30.7671C34.5648 31.4203 35.0596 31.9501 35.6942 32.2434C36.3288 32.5368 37.0529 32.5704 37.7119 32.3371C38.3709 32.1038 38.9126 31.6221 39.2214 30.9948C39.5301 30.3676 39.5813 29.6445 39.3641 28.98C38.8628 27.5556 37.9692 26.3018 36.7863 25.3631C35.6035 24.4244 34.1795 23.839 32.6784 23.6743V20.9443Z" fill="white"/>
</g>
<defs>
<clipPath id="clip0_1_212">
<rect width="60" height="60" fill="white"/>
</clipPath>
</defs>
</svg>
