<svg width="1512" height="982" viewBox="0 0 1512 982" fill="none" xmlns="http://www.w3.org/2000/svg">
<g opacity="0.4">
<mask id="mask0_1_427" style="mask-type:alpha" maskUnits="userSpaceOnUse" x="-687" y="-256" width="2733" height="1752">
<g opacity="0.4">
<path d="M1483.42 1495.25V-256V1495.25Z" fill="#D3D3D3" fill-opacity="0.3"/>
<path d="M1483.42 1495.25V-256" stroke="#DDDDDD" stroke-width="1.33333"/>
<path d="M-681.524 939.021H2033.56H-681.524Z" fill="#D3D3D3" fill-opacity="0.3"/>
<path d="M-681.524 939.021H2033.56" stroke="#DDDDDD" stroke-width="1.33333"/>
<path d="M1205.31 1495.25V-256V1495.25Z" fill="#D3D3D3" fill-opacity="0.3"/>
<path d="M1205.31 1495.25V-256" stroke="#DDDDDD" stroke-width="1.33333"/>
<path d="M-678.049 660.907H2035.3H-678.049Z" fill="#D3D3D3" fill-opacity="0.3"/>
<path d="M-678.049 660.907H2035.3" stroke="#DDDDDD" stroke-width="1.33333"/>
<path d="M927.189 1495.25V-256V1495.25Z" fill="#D3D3D3" fill-opacity="0.3"/>
<path d="M927.189 1495.25V-256" stroke="#DDDDDD" stroke-width="1.33333"/>
<path d="M-676.314 382.793H2038.77H-676.314Z" fill="#D3D3D3" fill-opacity="0.3"/>
<path d="M-676.314 382.793H2038.77" stroke="#DDDDDD" stroke-width="1.33333"/>
<path d="M649.075 1495.25V-256V1495.25Z" fill="#D3D3D3" fill-opacity="0.3"/>
<path d="M649.075 1495.25V-256" stroke="#DDDDDD" stroke-width="1.33333"/>
<path d="M-672.833 104.679H2042.25H-672.833Z" fill="#D3D3D3" fill-opacity="0.3"/>
<path d="M-672.833 104.679H2042.25" stroke="#DDDDDD" stroke-width="1.33333"/>
<path d="M370.961 1495.25V-256V1495.25Z" fill="#D3D3D3" fill-opacity="0.3"/>
<path d="M370.961 1495.25V-256" stroke="#DDDDDD" stroke-width="1.33333"/>
<path d="M92.8467 1495.25V-256V1495.25Z" fill="#D3D3D3" fill-opacity="0.3"/>
<path d="M92.8467 1495.25V-256" stroke="#DDDDDD" stroke-width="1.33333"/>
<path d="M1344.35 1495.25V-256V1495.25Z" fill="#D3D3D3" fill-opacity="0.3"/>
<path d="M1344.35 1495.25V-256" stroke="#DDDDDD" stroke-width="1.33333"/>
<path d="M-679.79 799.963H2035.3H-679.79Z" fill="#D3D3D3" fill-opacity="0.3"/>
<path d="M-679.79 799.963H2035.3" stroke="#DDDDDD" stroke-width="1.33333"/>
<path d="M1066.25 1495.25V-256V1495.25Z" fill="#D3D3D3" fill-opacity="0.3"/>
<path d="M1066.25 1495.25V-256" stroke="#DDDDDD" stroke-width="1.33333"/>
<path d="M-678.049 521.849H2037.04H-678.049Z" fill="#D3D3D3" fill-opacity="0.3"/>
<path d="M-678.049 521.849H2037.04" stroke="#DDDDDD" stroke-width="1.33333"/>
<path d="M788.129 1495.25V-256V1495.25Z" fill="#D3D3D3" fill-opacity="0.3"/>
<path d="M788.129 1495.25V-256" stroke="#DDDDDD" stroke-width="1.33333"/>
<path d="M-674.573 243.738H2040.52H-674.573Z" fill="#D3D3D3" fill-opacity="0.3"/>
<path d="M-674.573 243.738H2040.52" stroke="#DDDDDD" stroke-width="1.33333"/>
<path d="M510.02 1495.25V-256V1495.25Z" fill="#D3D3D3" fill-opacity="0.3"/>
<path d="M510.02 1495.25V-256" stroke="#DDDDDD" stroke-width="1.33333"/>
<path d="M231.906 1495.25V-256V1495.25Z" fill="#D3D3D3" fill-opacity="0.3"/>
<path d="M231.906 1495.25V-256" stroke="#DDDDDD" stroke-width="1.33333"/>
<path d="M1413.89 1495.25V-256V1495.25Z" fill="#D3D3D3" fill-opacity="0.3"/>
<path d="M1413.89 1495.25V-256" stroke="#DDDDDD" stroke-width="1.33333"/>
<path d="M-679.79 869.491H2033.56H-679.79Z" fill="#D3D3D3" fill-opacity="0.3"/>
<path d="M-679.79 869.491H2033.56" stroke="#DDDDDD" stroke-width="1.33333"/>
<path d="M1135.77 1495.25V-256V1495.25Z" fill="#D3D3D3" fill-opacity="0.3"/>
<path d="M1135.77 1495.25V-256" stroke="#DDDDDD" stroke-width="1.33333"/>
<path d="M-678.049 591.376H2037.04H-678.049Z" fill="#D3D3D3" fill-opacity="0.3"/>
<path d="M-678.049 591.376H2037.04" stroke="#DDDDDD" stroke-width="1.33333"/>
<path d="M857.658 1495.25V-256V1495.25Z" fill="#D3D3D3" fill-opacity="0.3"/>
<path d="M857.658 1495.25V-256" stroke="#DDDDDD" stroke-width="1.33333"/>
<path d="M-674.573 313.265H2038.77H-674.573Z" fill="#D3D3D3" fill-opacity="0.3"/>
<path d="M-674.573 313.265H2038.77" stroke="#DDDDDD" stroke-width="1.33333"/>
<path d="M579.545 1495.25V-256V1495.25Z" fill="#D3D3D3" fill-opacity="0.3"/>
<path d="M579.545 1495.25V-256" stroke="#DDDDDD" stroke-width="1.33333"/>
<path d="M-672.833 35.1514H2042.25H-672.833Z" fill="#D3D3D3" fill-opacity="0.3"/>
<path d="M-672.833 35.1514H2042.25" stroke="#DDDDDD" stroke-width="1.33333"/>
<path d="M301.431 1495.25V-256V1495.25Z" fill="#D3D3D3" fill-opacity="0.3"/>
<path d="M301.431 1495.25V-256" stroke="#DDDDDD" stroke-width="1.33333"/>
<path d="M23.3164 1495.25V-256V1495.25Z" fill="#D3D3D3" fill-opacity="0.3"/>
<path d="M23.3164 1495.25V-256" stroke="#DDDDDD" stroke-width="1.33333"/>
<path d="M1274.84 1495.25V-256V1495.25Z" fill="#D3D3D3" fill-opacity="0.3"/>
<path d="M1274.84 1495.25V-256" stroke="#DDDDDD" stroke-width="1.33333"/>
<path d="M-679.79 730.436H2035.3H-679.79Z" fill="#D3D3D3" fill-opacity="0.3"/>
<path d="M-679.79 730.436H2035.3" stroke="#DDDDDD" stroke-width="1.33333"/>
<path d="M996.719 1495.25V-256V1495.25Z" fill="#D3D3D3" fill-opacity="0.3"/>
<path d="M996.719 1495.25V-256" stroke="#DDDDDD" stroke-width="1.33333"/>
<path d="M-676.314 452.322H2038.77H-676.314Z" fill="#D3D3D3" fill-opacity="0.3"/>
<path d="M-676.314 452.322H2038.77" stroke="#DDDDDD" stroke-width="1.33333"/>
<path d="M718.605 1495.25V-256V1495.25Z" fill="#D3D3D3" fill-opacity="0.3"/>
<path d="M718.605 1495.25V-256" stroke="#DDDDDD" stroke-width="1.33333"/>
<path d="M-674.573 174.208H2040.52H-674.573Z" fill="#D3D3D3" fill-opacity="0.3"/>
<path d="M-674.573 174.208H2040.52" stroke="#DDDDDD" stroke-width="1.33333"/>
<path d="M440.491 1495.25V-256V1495.25Z" fill="#D3D3D3" fill-opacity="0.3"/>
<path d="M440.491 1495.25V-256" stroke="#DDDDDD" stroke-width="1.33333"/>
<path d="M162.377 1495.25V-256V1495.25Z" fill="#D3D3D3" fill-opacity="0.3"/>
<path d="M162.377 1495.25V-256" stroke="#DDDDDD" stroke-width="1.33333"/>
</g>
</mask>
<g mask="url(#mask0_1_427)">
<g filter="url(#filter0_f_1_427)">
<path d="M-572.014 607.021L1931.01 607.021L1931.01 -359.426L-572.014 -359.426V607.021Z" fill="#D3D3D3" fill-opacity="0.4"/>
</g>
</g>
</g>
<defs>
<filter id="filter0_f_1_427" x="-1105.35" y="-892.758" width="3569.69" height="2033.11" filterUnits="userSpaceOnUse" color-interpolation-filters="sRGB">
<feFlood flood-opacity="0" result="BackgroundImageFix"/>
<feBlend mode="normal" in="SourceGraphic" in2="BackgroundImageFix" result="shape"/>
<feGaussianBlur stdDeviation="266.666" result="effect1_foregroundBlur_1_427"/>
</filter>
</defs>
</svg>
