<svg width="60" height="60" viewBox="0 0 60 60" fill="none" xmlns="http://www.w3.org/2000/svg">
<path d="M28.3833 0V9.52115H31.6173V0H28.383H28.3833ZM15.1778 2.86125L12.5282 4.7164L17.9884 12.5137L20.6365 10.6585L15.1778 2.86125ZM44.8221 2.86125L39.3636 10.6586L42.0121 12.5138L47.4722 4.7164L44.8226 2.86125H44.8221ZM29.9996 12.1262C22.0883 12.1262 15.675 16.9303 15.675 22.8575L23.8136 47.5048H36.1871L44.325 22.8575C44.325 16.9305 37.9121 12.1262 30.0004 12.1262H29.9996ZM4.27341 14.9837L3.16846 18.0244L12.1109 21.2801L13.22 18.2408L4.27321 14.9837H4.27341ZM55.7265 14.9837L46.7797 18.2411L47.885 21.2807L56.8318 18.0244L55.7265 14.9837ZM12.788 28.8841L3.59296 31.3504L4.42726 34.4719L13.6223 32.0092L12.7881 28.8841H12.788ZM47.212 28.8841L46.3783 32.0091L55.5733 34.4715L56.407 31.3499L47.212 28.884V28.8841ZM23.6332 49.3016V53.5859H36.3675V49.3022H23.6332L23.6332 49.3016ZM23.6332 55.7157V60H36.3675V55.7164H23.6332L23.6332 55.7157Z" fill="white"/>
</svg>
