<svg width="60" height="60" viewBox="0 0 60 60" fill="none" xmlns="http://www.w3.org/2000/svg">
<g clip-path="url(#clip0_1_226)">
<path d="M18.2143 2.2286C18.2143 1.41022 18.536 0.625352 19.1087 0.0466679C19.6813 -0.532016 20.458 -0.857117 21.2679 -0.857117C22.0777 -0.857117 22.8544 -0.532016 23.4271 0.0466679C23.9997 0.625352 24.3214 1.41022 24.3214 2.2286V5.31431H36.5357V2.2286C36.5357 1.41022 36.8574 0.625352 37.4301 0.0466679C38.0027 -0.532016 38.7794 -0.857117 39.5893 -0.857117C40.3991 -0.857117 41.1758 -0.532016 41.7485 0.0466679C42.3211 0.625352 42.6429 1.41022 42.6429 2.2286V5.31431C45.8823 5.31431 48.989 6.61472 51.2797 8.92945C53.5703 11.2442 54.8571 14.3836 54.8571 17.6572V36.1715H39.5893C37.1597 36.1715 34.8296 37.1468 33.1117 38.8828C31.3937 40.6189 30.4286 42.9734 30.4286 45.4286V60.8572H18.2143C14.9749 60.8572 11.8681 59.5568 9.57748 57.242C7.28686 54.9273 6 51.7878 6 48.5143V17.6572C6 14.3836 7.28686 11.2442 9.57748 8.92945C11.8681 6.61472 14.9749 5.31431 18.2143 5.31431V2.2286ZM18.2143 20.7429C18.2143 21.5613 18.536 22.3461 19.1087 22.9248C19.6813 23.5035 20.458 23.8286 21.2679 23.8286H39.5893C40.3991 23.8286 41.1758 23.5035 41.7485 22.9248C42.3211 22.3461 42.6429 21.5613 42.6429 20.7429C42.6429 19.9245 42.3211 19.1396 41.7485 18.561C41.1758 17.9823 40.3991 17.6572 39.5893 17.6572H21.2679C20.458 17.6572 19.6813 17.9823 19.1087 18.561C18.536 19.1396 18.2143 19.9245 18.2143 20.7429ZM18.2143 33.0857C18.2143 33.9041 18.536 34.689 19.1087 35.2677C19.6813 35.8464 20.458 36.1715 21.2679 36.1715H27.375C28.1849 36.1715 28.9615 35.8464 29.5342 35.2677C30.1069 34.689 30.4286 33.9041 30.4286 33.0857C30.4286 32.2674 30.1069 31.4825 29.5342 30.9038C28.9615 30.3251 28.1849 30 27.375 30H21.2679C20.458 30 19.6813 30.3251 19.1087 30.9038C18.536 31.4825 18.2143 32.2674 18.2143 33.0857ZM21.2679 48.5143C22.0777 48.5143 22.8544 48.1892 23.4271 47.6105C23.9997 47.0318 24.3214 46.247 24.3214 45.4286C24.3214 44.6102 23.9997 43.8254 23.4271 43.2467C22.8544 42.668 22.0777 42.3429 21.2679 42.3429C20.458 42.3429 19.6813 42.668 19.1087 43.2467C18.536 43.8254 18.2143 44.6102 18.2143 45.4286C18.2143 46.247 18.536 47.0318 19.1087 47.6105C19.6813 48.1892 20.458 48.5143 21.2679 48.5143ZM36.5357 45.4286C36.5357 44.6102 36.8574 43.8254 37.4301 43.2467C38.0027 42.668 38.7794 42.3429 39.5893 42.3429H54.8571L36.5357 60.8572V45.4286Z" fill="white"/>
</g>
<defs>
<clipPath id="clip0_1_226">
<rect width="60" height="60" fill="white"/>
</clipPath>
</defs>
</svg>
