<svg width="213" height="207" viewBox="0 0 213 207" fill="none" xmlns="http://www.w3.org/2000/svg">
<path d="M4.21095 202.921C4.21672 201.761 3.28107 200.816 2.12113 200.81C0.961199 200.804 0.0162187 201.74 0.0104483 202.9C0.00467787 204.06 0.940302 205.005 2.10024 205.01C3.26017 205.016 4.20517 204.081 4.21095 202.921Z" fill="white"/>
<path d="M23.0308 203.014C23.0365 201.854 22.1009 200.909 20.941 200.904C19.781 200.898 18.836 201.834 18.8303 202.993C18.8245 204.153 19.7601 205.098 20.9201 205.104C22.08 205.11 23.025 204.174 23.0308 203.014Z" fill="white"/>
<path d="M41.8301 203.108C41.8359 201.948 40.9002 201.003 39.7403 200.997C38.5804 200.991 37.6354 201.927 37.6296 203.087C37.6238 204.247 38.5595 205.192 39.7194 205.198C40.8793 205.203 41.8243 204.268 41.8301 203.108Z" fill="white"/>
<path d="M60.6293 203.201C60.635 202.041 59.6994 201.096 58.5395 201.091C57.3795 201.085 56.4346 202.021 56.4288 203.18C56.423 204.34 57.3586 205.285 58.5186 205.291C59.6785 205.297 60.6235 204.361 60.6293 203.201Z" fill="white"/>
<path d="M79.4491 203.295C79.4549 202.135 78.5193 201.19 77.3593 201.184C76.1994 201.179 75.2544 202.114 75.2486 203.274C75.2428 204.434 76.1785 205.379 77.3384 205.385C78.4984 205.391 79.4434 204.455 79.4491 203.295Z" fill="white"/>
<path d="M98.2484 203.389C98.2542 202.229 97.3185 201.284 96.1586 201.278C94.9987 201.272 94.0537 202.208 94.0479 203.368C94.0422 204.528 94.9778 205.473 96.1377 205.478C97.2976 205.484 98.2427 204.548 98.2484 203.389Z" fill="white"/>
<path d="M117.068 203.482C117.074 202.322 116.138 201.377 114.979 201.371C113.819 201.366 112.874 202.301 112.868 203.461C112.862 204.621 113.798 205.566 114.958 205.572C116.118 205.578 117.063 204.642 117.068 203.482Z" fill="white"/>
<path d="M135.868 203.576C135.873 202.416 134.938 201.471 133.778 201.465C132.618 201.459 131.673 202.395 131.667 203.555C131.661 204.715 132.597 205.66 133.757 205.665C134.917 205.671 135.862 204.736 135.868 203.576Z" fill="white"/>
<path d="M154.687 203.669C154.693 202.509 153.758 201.564 152.598 201.559C151.438 201.553 150.493 202.488 150.487 203.648C150.481 204.808 151.417 205.753 152.577 205.759C153.737 205.765 154.682 204.829 154.687 203.669Z" fill="white"/>
<path d="M173.487 203.763C173.492 202.603 172.557 201.658 171.397 201.652C170.237 201.646 169.292 202.582 169.286 203.742C169.28 204.902 170.216 205.847 171.376 205.853C172.536 205.858 173.481 204.923 173.487 203.763Z" fill="white"/>
<path d="M192.307 203.856C192.312 202.697 191.377 201.752 190.217 201.746C189.057 201.74 188.112 202.676 188.106 203.836C188.1 204.995 189.036 205.94 190.196 205.946C191.356 205.952 192.301 205.016 192.307 203.856Z" fill="white"/>
<path d="M211.106 203.95C211.111 202.79 210.176 201.845 209.016 201.839C207.856 201.834 206.911 202.769 206.905 203.929C206.899 205.089 207.835 206.034 208.995 206.04C210.155 206.046 211.1 205.11 211.106 203.95Z" fill="white"/>
<path d="M4.3108 182.845C4.31657 181.685 3.38092 180.74 2.22099 180.734C1.06105 180.728 0.116072 181.664 0.110302 182.824C0.104531 183.984 1.04016 184.929 2.20009 184.935C3.36002 184.94 4.30503 184.005 4.3108 182.845Z" fill="white"/>
<path d="M23.1306 182.939C23.1364 181.779 22.2007 180.834 21.0408 180.828C19.8809 180.822 18.9359 181.758 18.9301 182.918C18.9244 184.078 19.86 185.023 21.0199 185.028C22.1798 185.034 23.1249 184.099 23.1306 182.939Z" fill="white"/>
<path d="M41.9299 183.032C41.9357 181.872 41.0001 180.927 39.8402 180.921C38.6802 180.916 37.7352 181.851 37.7294 183.011C37.7237 184.171 38.6593 185.116 39.8193 185.122C40.9792 185.128 41.9242 184.192 41.9299 183.032Z" fill="white"/>
<path d="M60.7291 183.126C60.7349 181.966 59.7993 181.021 58.6393 181.015C57.4794 181.009 56.5344 181.945 56.5286 183.105C56.5229 184.265 57.4585 185.21 58.6184 185.216C59.7784 185.221 60.7233 184.286 60.7291 183.126Z" fill="white"/>
<path d="M79.549 183.219C79.5548 182.059 78.6191 181.114 77.4592 181.109C76.2993 181.103 75.3542 182.039 75.3485 183.198C75.3427 184.358 76.2784 185.303 77.4383 185.309C78.5982 185.315 79.5432 184.379 79.549 183.219Z" fill="white"/>
<path d="M98.3483 183.313C98.3541 182.153 97.4184 181.208 96.2585 181.202C95.0985 181.196 94.1535 182.132 94.1478 183.292C94.142 184.452 95.0776 185.397 96.2376 185.403C97.3975 185.408 98.3425 184.473 98.3483 183.313Z" fill="white"/>
<path d="M117.168 183.406C117.174 182.247 116.238 181.302 115.078 181.296C113.918 181.29 112.973 182.226 112.968 183.386C112.962 184.546 113.898 185.491 115.058 185.496C116.217 185.502 117.162 184.566 117.168 183.406Z" fill="white"/>
<path d="M135.967 183.5C135.973 182.34 135.038 181.395 133.878 181.389C132.718 181.384 131.773 182.319 131.767 183.479C131.761 184.639 132.697 185.584 133.857 185.59C135.017 185.596 135.962 184.66 135.967 183.5Z" fill="white"/>
<path d="M154.787 183.594C154.793 182.434 153.857 181.489 152.697 181.483C151.537 181.477 150.593 182.413 150.587 183.573C150.581 184.733 151.517 185.678 152.677 185.683C153.836 185.689 154.781 184.754 154.787 183.594Z" fill="white"/>
<path d="M173.587 183.687C173.592 182.527 172.657 181.582 171.497 181.576C170.337 181.571 169.392 182.506 169.386 183.666C169.38 184.826 170.316 185.771 171.476 185.777C172.636 185.783 173.581 184.847 173.587 183.687Z" fill="white"/>
<path d="M192.406 183.781C192.412 182.621 191.477 181.676 190.317 181.67C189.157 181.664 188.212 182.6 188.206 183.76C188.2 184.92 189.136 185.865 190.296 185.871C191.456 185.876 192.401 184.941 192.406 183.781Z" fill="white"/>
<path d="M211.206 183.874C211.211 182.714 210.276 181.769 209.116 181.764C207.956 181.758 207.011 182.693 207.005 183.853C206.999 185.013 207.935 185.958 209.095 185.964C210.255 185.97 211.2 185.034 211.206 183.874Z" fill="white"/>
<path d="M4.41053 162.789C4.4163 161.63 3.48065 160.685 2.32072 160.679C1.16078 160.673 0.215804 161.609 0.210033 162.769C0.204263 163.928 1.13989 164.873 2.29982 164.879C3.45975 164.885 4.40476 163.949 4.41053 162.789Z" fill="white"/>
<path d="M23.2304 162.883C23.2361 161.723 22.3005 160.778 21.1405 160.773C19.9806 160.767 19.0356 161.702 19.0299 162.862C19.0241 164.022 19.9597 164.967 21.1196 164.973C22.2796 164.979 23.2246 164.043 23.2304 162.883Z" fill="white"/>
<path d="M42.0297 162.977C42.0354 161.817 41.0998 160.872 39.9399 160.866C38.7799 160.86 37.8349 161.796 37.8292 162.956C37.8234 164.116 38.7591 165.061 39.919 165.067C41.0789 165.072 42.0239 164.137 42.0297 162.977Z" fill="white"/>
<path d="M60.8288 163.07C60.8346 161.91 59.899 160.965 58.7391 160.96C57.5791 160.954 56.6341 161.889 56.6284 163.049C56.6226 164.209 57.5582 165.154 58.7182 165.16C59.8781 165.166 60.8231 164.23 60.8288 163.07Z" fill="white"/>
<path d="M79.6487 163.164C79.6545 162.004 78.7189 161.059 77.5589 161.053C76.399 161.047 75.454 161.983 75.4482 163.143C75.4424 164.303 76.3781 165.248 77.538 165.254C78.698 165.26 79.6429 164.324 79.6487 163.164Z" fill="white"/>
<path d="M98.448 163.257C98.4538 162.098 97.5181 161.153 96.3582 161.147C95.1983 161.141 94.2533 162.077 94.2475 163.237C94.2417 164.396 95.1774 165.341 96.3373 165.347C97.4972 165.353 98.4423 164.417 98.448 163.257Z" fill="white"/>
<path d="M117.268 163.351C117.274 162.191 116.338 161.246 115.178 161.24C114.018 161.235 113.073 162.17 113.067 163.33C113.062 164.49 113.997 165.435 115.157 165.441C116.317 165.447 117.262 164.511 117.268 163.351Z" fill="white"/>
<path d="M136.067 163.445C136.073 162.285 135.137 161.34 133.977 161.334C132.817 161.328 131.872 162.264 131.867 163.424C131.861 164.584 132.797 165.529 133.956 165.534C135.116 165.54 136.061 164.605 136.067 163.445Z" fill="white"/>
<path d="M154.887 163.538C154.893 162.378 153.957 161.433 152.797 161.428C151.637 161.422 150.692 162.357 150.686 163.517C150.681 164.677 151.616 165.622 152.776 165.628C153.936 165.634 154.881 164.698 154.887 163.538Z" fill="white"/>
<path d="M173.686 163.632C173.692 162.472 172.756 161.527 171.596 161.521C170.437 161.515 169.492 162.451 169.486 163.611C169.48 164.771 170.416 165.716 171.576 165.722C172.736 165.727 173.68 164.792 173.686 163.632Z" fill="white"/>
<path d="M192.506 163.725C192.512 162.565 191.576 161.62 190.416 161.615C189.256 161.609 188.311 162.545 188.306 163.704C188.3 164.864 189.235 165.809 190.395 165.815C191.555 165.821 192.5 164.885 192.506 163.725Z" fill="white"/>
<path d="M211.305 163.819C211.311 162.659 210.375 161.714 209.215 161.708C208.056 161.702 207.111 162.638 207.105 163.798C207.099 164.958 208.035 165.903 209.195 165.909C210.355 165.914 211.3 164.979 211.305 163.819Z" fill="white"/>
<path d="M4.51051 142.714C4.51628 141.554 3.58063 140.609 2.42069 140.603C1.26076 140.597 0.315779 141.533 0.310009 142.693C0.304238 143.853 1.23986 144.798 2.3998 144.803C3.55973 144.809 4.50474 143.874 4.51051 142.714Z" fill="white"/>
<path d="M23.3303 142.807C23.3361 141.647 22.4005 140.702 21.2405 140.696C20.0806 140.691 19.1356 141.626 19.1298 142.786C19.1241 143.946 20.0597 144.891 21.2196 144.897C22.3796 144.903 23.3246 143.967 23.3303 142.807Z" fill="white"/>
<path d="M42.1296 142.901C42.1354 141.741 41.1998 140.796 40.0399 140.79C38.8799 140.784 37.9349 141.72 37.9291 142.88C37.9234 144.04 38.859 144.985 40.019 144.99C41.1789 144.996 42.1239 144.061 42.1296 142.901Z" fill="white"/>
<path d="M60.9288 142.994C60.9346 141.834 59.999 140.889 58.839 140.883C57.6791 140.878 56.7341 141.813 56.7283 142.973C56.7226 144.133 57.6582 145.078 58.8181 145.084C59.9781 145.09 60.923 144.154 60.9288 142.994Z" fill="white"/>
<path d="M79.7487 143.088C79.7545 141.928 78.8188 140.983 77.6589 140.977C76.499 140.971 75.5539 141.907 75.5482 143.067C75.5424 144.227 76.4781 145.172 77.638 145.178C78.7979 145.183 79.7429 144.248 79.7487 143.088Z" fill="white"/>
<path d="M98.548 143.181C98.5538 142.021 97.6181 141.076 96.4582 141.071C95.2982 141.065 94.3533 142 94.3475 143.16C94.3417 144.32 95.2773 145.265 96.4373 145.271C97.5972 145.277 98.5422 144.341 98.548 143.181Z" fill="white"/>
<path d="M117.368 143.275C117.374 142.115 116.438 141.17 115.278 141.164C114.118 141.158 113.173 142.094 113.167 143.254C113.162 144.414 114.097 145.359 115.257 145.365C116.417 145.37 117.362 144.435 117.368 143.275Z" fill="white"/>
<path d="M136.167 143.368C136.173 142.209 135.237 141.264 134.077 141.258C132.917 141.252 131.972 142.188 131.967 143.348C131.961 144.507 132.897 145.452 134.056 145.458C135.216 145.464 136.161 144.528 136.167 143.368Z" fill="white"/>
<path d="M154.987 143.462C154.993 142.302 154.057 141.357 152.897 141.351C151.737 141.346 150.792 142.281 150.786 143.441C150.781 144.601 151.716 145.546 152.876 145.552C154.036 145.558 154.981 144.622 154.987 143.462Z" fill="white"/>
<path d="M173.786 143.556C173.792 142.396 172.856 141.451 171.696 141.445C170.537 141.439 169.592 142.375 169.586 143.535C169.58 144.695 170.516 145.64 171.676 145.645C172.835 145.651 173.78 144.716 173.786 143.556Z" fill="white"/>
<path d="M192.606 143.649C192.612 142.489 191.676 141.544 190.516 141.539C189.356 141.533 188.411 142.468 188.406 143.628C188.4 144.788 189.335 145.733 190.495 145.739C191.655 145.745 192.6 144.809 192.606 143.649Z" fill="white"/>
<path d="M211.405 143.743C211.411 142.583 210.475 141.638 209.315 141.632C208.156 141.626 207.211 142.562 207.205 143.722C207.199 144.882 208.135 145.827 209.295 145.833C210.455 145.838 211.399 144.903 211.405 143.743Z" fill="white"/>
<path d="M4.61036 122.638C4.61613 121.478 3.68048 120.533 2.52055 120.527C1.36061 120.521 0.415633 121.457 0.409862 122.617C0.404092 123.777 1.33972 124.722 2.49965 124.727C3.65958 124.733 4.60459 123.798 4.61036 122.638Z" fill="white"/>
<path d="M23.4302 122.731C23.436 121.571 22.5003 120.626 21.3404 120.62C20.1804 120.615 19.2355 121.55 19.2297 122.71C19.2239 123.87 20.1595 124.815 21.3195 124.821C22.4794 124.827 23.4244 123.891 23.4302 122.731Z" fill="white"/>
<path d="M42.2295 122.825C42.2353 121.665 41.2996 120.72 40.1397 120.714C38.9798 120.708 38.0348 121.644 38.029 122.804C38.0232 123.964 38.9589 124.909 40.1188 124.914C41.2787 124.92 42.2237 123.985 42.2295 122.825Z" fill="white"/>
<path d="M61.0287 122.918C61.0344 121.758 60.0988 120.813 58.9389 120.807C57.7789 120.802 56.834 121.737 56.8282 122.897C56.8224 124.057 57.7581 125.002 58.918 125.008C60.0779 125.014 61.0229 124.078 61.0287 122.918Z" fill="white"/>
<path d="M79.8485 123.012C79.8543 121.852 78.9187 120.907 77.7588 120.901C76.5988 120.895 75.6538 121.831 75.648 122.991C75.6423 124.151 76.5779 125.096 77.7379 125.102C78.8978 125.107 79.8428 124.172 79.8485 123.012Z" fill="white"/>
<path d="M98.6479 123.105C98.6536 121.945 97.718 121 96.558 120.995C95.3981 120.989 94.4531 121.924 94.4473 123.084C94.4416 124.244 95.3772 125.189 96.5371 125.195C97.6971 125.201 98.6421 124.265 98.6479 123.105Z" fill="white"/>
<path d="M117.468 123.199C117.474 122.039 116.538 121.094 115.378 121.088C114.218 121.082 113.273 122.018 113.267 123.178C113.262 124.338 114.197 125.283 115.357 125.289C116.517 125.294 117.462 124.359 117.468 123.199Z" fill="white"/>
<path d="M136.267 123.292C136.273 122.132 135.337 121.187 134.177 121.182C133.017 121.176 132.072 122.112 132.066 123.272C132.061 124.431 132.996 125.376 134.156 125.382C135.316 125.388 136.261 124.452 136.267 123.292Z" fill="white"/>
<path d="M155.087 123.386C155.093 122.226 154.157 121.281 152.997 121.275C151.837 121.27 150.892 122.205 150.886 123.365C150.881 124.525 151.816 125.47 152.976 125.476C154.136 125.482 155.081 124.546 155.087 123.386Z" fill="white"/>
<path d="M173.886 123.48C173.892 122.32 172.956 121.375 171.796 121.369C170.636 121.363 169.691 122.299 169.686 123.459C169.68 124.619 170.615 125.564 171.775 125.569C172.935 125.575 173.88 124.64 173.886 123.48Z" fill="white"/>
<path d="M192.706 123.573C192.712 122.413 191.776 121.468 190.616 121.462C189.456 121.457 188.511 122.392 188.505 123.552C188.5 124.712 189.435 125.657 190.595 125.663C191.755 125.669 192.7 124.733 192.706 123.573Z" fill="white"/>
<path d="M211.505 123.667C211.511 122.507 210.575 121.562 209.415 121.556C208.255 121.55 207.31 122.486 207.305 123.646C207.299 124.806 208.234 125.751 209.394 125.757C210.554 125.762 211.499 124.827 211.505 123.667Z" fill="white"/>
<path d="M4.71021 102.562C4.71598 101.402 3.78033 100.457 2.6204 100.451C1.46047 100.445 0.515486 101.381 0.509716 102.541C0.503945 103.701 1.43957 104.646 2.5995 104.652C3.75944 104.657 4.70444 103.722 4.71021 102.562Z" fill="white"/>
<path d="M23.53 102.655C23.5358 101.495 22.6002 100.55 21.4402 100.545C20.2803 100.539 19.3353 101.475 19.3295 102.635C19.3238 103.794 20.2594 104.739 21.4193 104.745C22.5793 104.751 23.5243 103.815 23.53 102.655Z" fill="white"/>
<path d="M42.3294 102.749C42.3351 101.589 41.3995 100.644 40.2396 100.638C39.0796 100.632 38.1346 101.568 38.1289 102.728C38.1231 103.888 39.0587 104.833 40.2187 104.839C41.3786 104.845 42.3236 103.909 42.3294 102.749Z" fill="white"/>
<path d="M61.1285 102.842C61.1343 101.683 60.1987 100.738 59.0387 100.732C57.8788 100.726 56.9338 101.662 56.9281 102.822C56.9223 103.982 57.8579 104.926 59.0178 104.932C60.1778 104.938 61.1228 104.002 61.1285 102.842Z" fill="white"/>
<path d="M79.9484 102.936C79.9542 101.776 79.0185 100.831 77.8586 100.825C76.6987 100.82 75.7536 101.755 75.7479 102.915C75.7421 104.075 76.6778 105.02 77.8377 105.026C78.9976 105.032 79.9426 104.096 79.9484 102.936Z" fill="white"/>
<path d="M98.7477 103.03C98.7535 101.87 97.8178 100.925 96.6579 100.919C95.4979 100.913 94.553 101.849 94.5472 103.009C94.5414 104.169 95.477 105.114 96.637 105.119C97.7969 105.125 98.7419 104.19 98.7477 103.03Z" fill="white"/>
<path d="M117.568 103.123C117.573 101.963 116.638 101.018 115.478 101.013C114.318 101.007 113.373 101.942 113.367 103.102C113.361 104.262 114.297 105.207 115.457 105.213C116.617 105.219 117.562 104.283 117.568 103.123Z" fill="white"/>
<path d="M136.367 103.217C136.373 102.057 135.437 101.112 134.277 101.106C133.117 101.1 132.172 102.036 132.166 103.196C132.161 104.356 133.096 105.301 134.256 105.307C135.416 105.312 136.361 104.377 136.367 103.217Z" fill="white"/>
<path d="M155.187 103.31C155.192 102.15 154.257 101.205 153.097 101.2C151.937 101.194 150.992 102.13 150.986 103.289C150.98 104.449 151.916 105.394 153.076 105.4C154.236 105.406 155.181 104.47 155.187 103.31Z" fill="white"/>
<path d="M173.986 103.404C173.992 102.244 173.056 101.299 171.896 101.293C170.736 101.287 169.791 102.223 169.785 103.383C169.78 104.543 170.715 105.488 171.875 105.494C173.035 105.499 173.98 104.564 173.986 103.404Z" fill="white"/>
<path d="M192.806 103.498C192.812 102.338 191.876 101.393 190.716 101.387C189.556 101.381 188.611 102.317 188.605 103.477C188.6 104.637 189.535 105.582 190.695 105.587C191.855 105.593 192.8 104.657 192.806 103.498Z" fill="white"/>
<path d="M211.605 103.591C211.611 102.431 210.675 101.486 209.515 101.48C208.355 101.475 207.41 102.41 207.404 103.57C207.399 104.73 208.334 105.675 209.494 105.681C210.654 105.687 211.599 104.751 211.605 103.591Z" fill="white"/>
<path d="M4.80994 82.5067C4.81571 81.3467 3.88007 80.4017 2.72013 80.396C1.5602 80.3902 0.615218 81.3258 0.609447 82.4858C0.603677 83.6457 1.5393 84.5907 2.69923 84.5965C3.85917 84.6022 4.80417 83.6666 4.80994 82.5067Z" fill="white"/>
<path d="M23.6298 82.6004C23.6355 81.4405 22.6999 80.4955 21.54 80.4897C20.38 80.4839 19.435 81.4196 19.4293 82.5795C19.4235 83.7394 20.3591 84.6844 21.5191 84.6902C22.679 84.6959 23.624 83.7603 23.6298 82.6004Z" fill="white"/>
<path d="M42.4291 82.6939C42.4349 81.534 41.4992 80.589 40.3393 80.5832C39.1794 80.5774 38.2344 81.5131 38.2286 82.673C38.2228 83.8329 39.1585 84.7779 40.3184 84.7837C41.4783 84.7895 42.4233 83.8538 42.4291 82.6939Z" fill="white"/>
<path d="M61.2283 82.7874C61.234 81.6275 60.2984 80.6825 59.1385 80.6767C57.9785 80.671 57.0336 81.6066 57.0278 82.7665C57.022 83.9265 57.9576 84.8715 59.1176 84.8772C60.2775 84.883 61.2225 83.9474 61.2283 82.7874Z" fill="white"/>
<path d="M80.0481 82.8811C80.0539 81.7211 79.1183 80.7761 77.9583 80.7703C76.7984 80.7646 75.8534 81.7002 75.8476 82.8602C75.8418 84.0201 76.7775 84.9651 77.9374 84.9708C79.0974 84.9766 80.0424 84.041 80.0481 82.8811Z" fill="white"/>
<path d="M98.8474 82.9746C98.8532 81.8146 97.9175 80.8696 96.7576 80.8639C95.5977 80.8581 94.6527 81.7938 94.6469 82.9537C94.6412 84.1136 95.5768 85.0586 96.7367 85.0644C97.8966 85.0701 98.8417 84.1345 98.8474 82.9746Z" fill="white"/>
<path d="M117.667 83.0682C117.673 81.9083 116.737 80.9633 115.578 80.9575C114.418 80.9517 113.473 81.8874 113.467 83.0473C113.461 84.2072 114.397 85.1522 115.557 85.158C116.717 85.1638 117.662 84.2281 117.667 83.0682Z" fill="white"/>
<path d="M136.467 83.1617C136.472 82.0018 135.537 81.0568 134.377 81.051C133.217 81.0452 132.272 81.9809 132.266 83.1408C132.26 84.3008 133.196 85.2457 134.356 85.2515C135.516 85.2573 136.461 84.3217 136.467 83.1617Z" fill="white"/>
<path d="M155.286 83.2554C155.292 82.0954 154.357 81.1504 153.197 81.1446C152.037 81.1389 151.092 82.0745 151.086 83.2345C151.08 84.3944 152.016 85.3394 153.176 85.3451C154.336 85.3509 155.281 84.4153 155.286 83.2554Z" fill="white"/>
<path d="M174.086 83.3489C174.091 82.1889 173.156 81.2439 171.996 81.2382C170.836 81.2324 169.891 82.168 169.885 83.328C169.879 84.4879 170.815 85.4329 171.975 85.4387C173.135 85.4444 174.08 84.5088 174.086 83.3489Z" fill="white"/>
<path d="M192.906 83.4425C192.911 82.2826 191.976 81.3376 190.816 81.3318C189.656 81.326 188.711 82.2617 188.705 83.4216C188.699 84.5815 189.635 85.5265 190.795 85.5323C191.955 85.5381 192.9 84.6024 192.906 83.4425Z" fill="white"/>
<path d="M211.705 83.536C211.71 82.3761 210.775 81.4311 209.615 81.4253C208.455 81.4195 207.51 82.3552 207.504 83.5151C207.498 84.6751 208.434 85.62 209.594 85.6258C210.754 85.6316 211.699 84.696 211.705 83.536Z" fill="white"/>
<path d="M4.9098 62.4309C4.91557 61.2709 3.97992 60.3259 2.81999 60.3202C1.66005 60.3144 0.715071 61.25 0.709301 62.41C0.70353 63.5699 1.63915 64.5149 2.79909 64.5207C3.95902 64.5264 4.90403 63.5908 4.9098 62.4309Z" fill="white"/>
<path d="M23.7296 62.5247C23.7354 61.3648 22.7997 60.4198 21.6398 60.414C20.4799 60.4082 19.5349 61.3439 19.5291 62.5038C19.5234 63.6638 20.459 64.6087 21.6189 64.6145C22.7788 64.6203 23.7239 63.6847 23.7296 62.5247Z" fill="white"/>
<path d="M42.5289 62.6182C42.5347 61.4583 41.5991 60.5133 40.4392 60.5075C39.2792 60.5018 38.3342 61.4374 38.3284 62.5974C38.3227 63.7573 39.2583 64.7023 40.4183 64.708C41.5782 64.7138 42.5232 63.7782 42.5289 62.6182Z" fill="white"/>
<path d="M61.3281 62.7118C61.3339 61.5518 60.3983 60.6068 59.2383 60.6011C58.0784 60.5953 57.1334 61.5309 57.1276 62.6909C57.1219 63.8508 58.0575 64.7958 59.2174 64.8016C60.3774 64.8073 61.3223 63.8717 61.3281 62.7118Z" fill="white"/>
<path d="M80.148 62.8054C80.1538 61.6455 79.2181 60.7005 78.0582 60.6947C76.8983 60.6889 75.9532 61.6246 75.9475 62.7845C75.9417 63.9444 76.8774 64.8894 78.0373 64.8952C79.1972 64.901 80.1422 63.9653 80.148 62.8054Z" fill="white"/>
<path d="M98.9473 62.8989C98.9531 61.739 98.0174 60.794 96.8575 60.7882C95.6975 60.7824 94.7525 61.7181 94.7468 62.878C94.741 64.038 95.6766 64.9829 96.8366 64.9887C97.9965 64.9945 98.9415 64.0589 98.9473 62.8989Z" fill="white"/>
<path d="M117.767 62.9925C117.773 61.8326 116.837 60.8876 115.677 60.8818C114.517 60.8761 113.572 61.8117 113.567 62.9716C113.561 64.1316 114.497 65.0766 115.657 65.0823C116.816 65.0881 117.761 64.1525 117.767 62.9925Z" fill="white"/>
<path d="M136.566 63.0861C136.572 61.9261 135.637 60.9811 134.477 60.9754C133.317 60.9696 132.372 61.9052 132.366 63.0652C132.36 64.2251 133.296 65.1701 134.456 65.1759C135.616 65.1816 136.561 64.246 136.566 63.0861Z" fill="white"/>
<path d="M155.386 63.1797C155.392 62.0198 154.456 61.0748 153.296 61.069C152.136 61.0632 151.192 61.9989 151.186 63.1588C151.18 64.3187 152.116 65.2637 153.276 65.2695C154.435 65.2752 155.38 64.3396 155.386 63.1797Z" fill="white"/>
<path d="M174.186 63.2732C174.191 62.1133 173.256 61.1683 172.096 61.1625C170.936 61.1567 169.991 62.0924 169.985 63.2523C169.979 64.4123 170.915 65.3572 172.075 65.363C173.235 65.3688 174.18 64.4331 174.186 63.2732Z" fill="white"/>
<path d="M193.005 63.3668C193.011 62.2069 192.075 61.2619 190.916 61.2561C189.756 61.2504 188.811 62.186 188.805 63.3459C188.799 64.5059 189.735 65.4509 190.895 65.4566C192.055 65.4624 193 64.5268 193.005 63.3668Z" fill="white"/>
<path d="M211.805 63.4604C211.81 62.3004 210.875 61.3554 209.715 61.3497C208.555 61.3439 207.61 62.2795 207.604 63.4395C207.598 64.5994 208.534 65.5444 209.694 65.5501C210.854 65.5559 211.799 64.6203 211.805 63.4604Z" fill="white"/>
<path d="M5.00977 42.3549C5.01554 41.195 4.07989 40.2499 2.91996 40.2442C1.76003 40.2384 0.815047 41.1741 0.809276 42.334C0.803506 43.4939 1.73913 44.4389 2.89906 44.4447C4.059 44.4504 5.004 43.5148 5.00977 42.3549Z" fill="white"/>
<path d="M23.8296 42.4487C23.8354 41.2887 22.8997 40.3437 21.7398 40.338C20.5799 40.3322 19.6349 41.2679 19.6291 42.4278C19.6233 43.5877 20.559 44.5327 21.7189 44.5385C22.8788 44.5442 23.8238 43.6086 23.8296 42.4487Z" fill="white"/>
<path d="M42.6289 42.5422C42.6347 41.3823 41.6991 40.4373 40.5391 40.4315C39.3792 40.4257 38.4342 41.3614 38.4284 42.5213C38.4226 43.6812 39.3583 44.6262 40.5182 44.632C41.6782 44.6378 42.6231 43.7021 42.6289 42.5422Z" fill="white"/>
<path d="M61.4281 42.6357C61.4339 41.4758 60.4982 40.5308 59.3383 40.525C58.1784 40.5192 57.2334 41.4549 57.2276 42.6148C57.2218 43.7748 58.1575 44.7197 59.3174 44.7255C60.4773 44.7313 61.4223 43.7957 61.4281 42.6357Z" fill="white"/>
<path d="M80.248 42.7294C80.2537 41.5694 79.3181 40.6244 78.1582 40.6186C76.9982 40.6129 76.0532 41.5485 76.0474 42.7085C76.0417 43.8684 76.9773 44.8134 78.1373 44.8191C79.2972 44.8249 80.2422 43.8893 80.248 42.7294Z" fill="white"/>
<path d="M99.0473 42.8229C99.053 41.6629 98.1174 40.7179 96.9574 40.7122C95.7975 40.7064 94.8525 41.642 94.8468 42.802C94.841 43.9619 95.7766 44.9069 96.9365 44.9127C98.0965 44.9184 99.0415 43.9828 99.0473 42.8229Z" fill="white"/>
<path d="M117.867 42.9165C117.873 41.7566 116.937 40.8116 115.777 40.8058C114.617 40.8 113.672 41.7357 113.667 42.8956C113.661 44.0555 114.597 45.0005 115.756 45.0063C116.916 45.0121 117.861 44.0764 117.867 42.9165Z" fill="white"/>
<path d="M136.666 43.01C136.672 41.8501 135.737 40.9051 134.577 40.8993C133.417 40.8935 132.472 41.8292 132.466 42.9891C132.46 44.1491 133.396 45.094 134.556 45.0998C135.716 45.1056 136.661 44.17 136.666 43.01Z" fill="white"/>
<path d="M155.486 43.1036C155.492 41.9437 154.556 40.9987 153.396 40.9929C152.236 40.9872 151.291 41.9228 151.286 43.0828C151.28 44.2427 152.216 45.1877 153.376 45.1934C154.535 45.1992 155.48 44.2636 155.486 43.1036Z" fill="white"/>
<path d="M174.286 43.1972C174.291 42.0372 173.356 41.0922 172.196 41.0865C171.036 41.0807 170.091 42.0163 170.085 43.1763C170.079 44.3362 171.015 45.2812 172.175 45.287C173.335 45.2927 174.28 44.3571 174.286 43.1972Z" fill="white"/>
<path d="M193.105 43.2908C193.111 42.1309 192.175 41.1859 191.016 41.1801C189.856 41.1743 188.911 42.11 188.905 43.2699C188.899 44.4298 189.835 45.3748 190.995 45.3806C192.155 45.3864 193.1 44.4507 193.105 43.2908Z" fill="white"/>
<path d="M211.905 43.3843C211.91 42.2244 210.975 41.2794 209.815 41.2736C208.655 41.2678 207.71 42.2035 207.704 43.3634C207.698 44.5234 208.634 45.4683 209.794 45.4741C210.954 45.4799 211.899 44.5442 211.905 43.3843Z" fill="white"/>
<path d="M5.1095 22.2995C5.11528 21.1395 4.17963 20.1946 3.01969 20.1888C1.85976 20.183 0.914778 21.1186 0.909008 22.2786C0.903237 23.4385 1.83886 24.3835 2.9988 24.3893C4.15873 24.395 5.10373 23.4594 5.1095 22.2995Z" fill="white"/>
<path d="M23.9293 22.3933C23.9351 21.2333 22.9995 20.2884 21.8395 20.2826C20.6796 20.2768 19.7346 21.2124 19.7288 22.3724C19.7231 23.5323 20.6587 24.4773 21.8186 24.4831C22.9786 24.4888 23.9236 23.5532 23.9293 22.3933Z" fill="white"/>
<path d="M42.7286 22.4868C42.7344 21.3269 41.7988 20.3819 40.6389 20.3761C39.4789 20.3703 38.5339 21.306 38.5281 22.4659C38.5224 23.6258 39.458 24.5708 40.618 24.5766C41.7779 24.5824 42.7229 23.6467 42.7286 22.4868Z" fill="white"/>
<path d="M61.5278 22.5803C61.5336 21.4204 60.598 20.4754 59.438 20.4696C58.2781 20.4639 57.3331 21.3995 57.3273 22.5594C57.3216 23.7194 58.2572 24.6643 59.4171 24.6701C60.5771 24.6759 61.522 23.7402 61.5278 22.5803Z" fill="white"/>
<path d="M80.3477 22.6739C80.3535 21.514 79.4178 20.569 78.2579 20.5633C77.098 20.5575 76.1529 21.4931 76.1472 22.653C76.1414 23.813 77.0771 24.758 78.237 24.7637C79.3969 24.7695 80.3419 23.8339 80.3477 22.6739Z" fill="white"/>
<path d="M99.147 22.7675C99.1528 21.6075 98.2171 20.6625 97.0572 20.6568C95.8972 20.651 94.9523 21.5866 94.9465 22.7466C94.9407 23.9065 95.8763 24.8515 97.0363 24.8572C98.1962 24.863 99.1412 23.9274 99.147 22.7675Z" fill="white"/>
<path d="M117.967 22.8611C117.973 21.7012 117.037 20.7562 115.877 20.7504C114.717 20.7446 113.772 21.6803 113.766 22.8402C113.761 24.0001 114.696 24.9451 115.856 24.9509C117.016 24.9566 117.961 24.021 117.967 22.8611Z" fill="white"/>
<path d="M136.766 22.9546C136.772 21.7947 135.836 20.8497 134.676 20.8439C133.516 20.8382 132.571 21.7738 132.566 22.9337C132.56 24.0936 133.496 25.0386 134.655 25.0444C135.815 25.0502 136.76 24.1145 136.766 22.9546Z" fill="white"/>
<path d="M155.586 23.0482C155.592 21.8883 154.656 20.9433 153.496 20.9375C152.336 20.9318 151.391 21.8674 151.385 23.0273C151.38 24.1873 152.315 25.1323 153.475 25.138C154.635 25.1438 155.58 24.2082 155.586 23.0482Z" fill="white"/>
<path d="M174.385 23.1418C174.391 21.9818 173.455 21.0368 172.295 21.0311C171.136 21.0253 170.191 21.9609 170.185 23.1209C170.179 24.2808 171.115 25.2258 172.275 25.2315C173.434 25.2373 174.379 24.3017 174.385 23.1418Z" fill="white"/>
<path d="M193.205 23.2354C193.211 22.0754 192.275 21.1305 191.115 21.1247C189.955 21.1189 189.01 22.0546 189.005 23.2145C188.999 24.3744 189.934 25.3194 191.094 25.3252C192.254 25.3309 193.199 24.3953 193.205 23.2354Z" fill="white"/>
<path d="M212.004 23.3289C212.01 22.169 211.074 21.224 209.914 21.2182C208.755 21.2124 207.81 22.1481 207.804 23.308C207.798 24.4679 208.734 25.4129 209.894 25.4187C211.054 25.4245 211.998 24.4888 212.004 23.3289Z" fill="white"/>
<path d="M5.20936 2.22387C5.21513 1.06393 4.27948 0.118954 3.11955 0.113184C1.95961 0.107413 1.01463 1.04304 1.00886 2.20297C1.00309 3.36291 1.93872 4.30789 3.09865 4.31366C4.25858 4.31943 5.20359 3.3838 5.20936 2.22387Z" fill="white"/>
<path d="M24.0086 2.3174C24.0029 3.47047 23.051 4.41292 21.898 4.40718C20.7449 4.40145 19.8024 3.44958 19.8082 2.2965C19.8139 1.14342 20.7658 0.200976 21.9189 0.206713C23.0925 0.212551 24.0144 1.16432 24.0086 2.3174Z" fill="white"/>
<path d="M42.8285 2.41102C42.8343 1.25109 41.8986 0.306107 40.7387 0.300337C39.5788 0.294566 38.6338 1.23019 38.628 2.39012C38.6222 3.55006 39.5579 4.49504 40.7178 4.50081C41.8777 4.50658 42.8227 3.57095 42.8285 2.41102Z" fill="white"/>
<path d="M61.6277 2.50454C61.6334 1.34461 60.6978 0.399628 59.5379 0.393858C58.3779 0.388087 57.433 1.32371 57.4272 2.48365C57.4214 3.64358 58.3571 4.58856 59.517 4.59433C60.6769 4.6001 61.6219 3.66448 61.6277 2.50454Z" fill="white"/>
<path d="M80.4475 2.59817C80.4533 1.43824 79.5177 0.493256 78.3578 0.487486C77.1978 0.481716 76.2528 1.41734 76.247 2.57727C76.2413 3.73721 77.1769 4.68219 78.3369 4.68796C79.4968 4.69373 80.4418 3.7581 80.4475 2.59817Z" fill="white"/>
<path d="M99.2469 2.69169C99.2526 1.53176 98.317 0.586777 97.157 0.581007C95.9971 0.575236 95.0521 1.51086 95.0463 2.67079C95.0406 3.83073 95.9762 4.77571 97.1361 4.78148C98.2961 4.78725 99.2411 3.85163 99.2469 2.69169Z" fill="white"/>
<path d="M118.067 2.78532C118.073 1.62538 117.137 0.680401 115.977 0.674631C114.817 0.668861 113.872 1.60448 113.866 2.76442C113.861 3.92435 114.796 4.86933 115.956 4.8751C117.116 4.88087 118.061 3.94525 118.067 2.78532Z" fill="white"/>
<path d="M136.866 2.87884C136.872 1.7189 135.936 0.773923 134.776 0.768152C133.616 0.762382 132.671 1.69801 132.665 2.85794C132.66 4.01787 133.595 4.96285 134.755 4.96862C135.915 4.97439 136.86 4.03877 136.866 2.87884Z" fill="white"/>
<path d="M155.686 2.97246C155.692 1.81253 154.756 0.86755 153.596 0.86178C152.436 0.85601 151.491 1.79163 151.485 2.95157C151.48 4.1115 152.415 5.05648 153.575 5.06225C154.735 5.06802 155.68 4.1324 155.686 2.97246Z" fill="white"/>
<path d="M174.485 3.06599C174.491 1.90605 173.555 0.961072 172.395 0.955301C171.235 0.949531 170.29 1.88516 170.285 3.04509C170.279 4.20502 171.214 5.15 172.374 5.15577C173.534 5.16154 174.479 4.22592 174.485 3.06599Z" fill="white"/>
<path d="M193.305 3.15961C193.311 1.99968 192.375 1.0547 191.215 1.04893C190.055 1.04315 189.11 1.97878 189.104 3.13871C189.099 4.29865 190.034 5.24363 191.194 5.2494C192.354 5.25517 193.299 4.31954 193.305 3.15961Z" fill="white"/>
<path d="M212.104 3.25313C212.11 2.0932 211.174 1.14822 210.014 1.14245C208.854 1.13668 207.909 2.0723 207.904 3.23224C207.898 4.39217 208.833 5.33715 209.993 5.34292C211.153 5.34869 212.098 4.41307 212.104 3.25313Z" fill="white"/>
</svg>
