<svg xmlns="http://www.w3.org/2000/svg" width="86" height="86" viewBox="0 0 86 86" fill="none">
  <path d="M10.6718 17.1413C12.5828 15.3971 15.1255 14.3333 17.9166 14.3333H68.0833C70.8745 14.3333 73.4172 15.3971 75.3281 17.1413L43 38.6934L10.6718 17.1413Z" fill="black"/>
  <path d="M7.28309 23.4954C7.20637 24.0136 7.16663 24.5438 7.16663 25.0833V60.9167C7.16663 66.8537 11.9796 71.6667 17.9166 71.6667H68.0833C74.0204 71.6667 78.8333 66.8537 78.8333 60.9167V25.0833C78.8333 24.5438 78.7935 24.0136 78.7168 23.4954L44.9876 45.9815C43.784 46.7839 42.2159 46.7839 41.0123 45.9815L7.28309 23.4954Z" fill="black"/>
</svg>