<svg xmlns="http://www.w3.org/2000/svg" width="63" height="62" fill="none"><path fill-rule="evenodd" clip-rule="evenodd" d="M22.611 0 9.42 13.192l3.967 3.968L31.52 35.29l3.948-3.946-.002-.002 18.046-18.045-4.017-4.017L40.348.134 27.655 12.827l3.989 3.99 8.71-8.71 5.157 5.157-14.062 14.062-14.114-14.114 9.244-9.244L22.611 0Zm35.702 45.513-9.4-9.401 13.846-13.847-3.978-3.977-13.846 13.846-3.943 3.942 13.295 13.295-4.777 4.777L35.432 40.07l-3.89-3.89L13.6 54.122l-4.978-4.977 9.211-9.212 3.851-3.852L3.968 18.365 0 22.333l13.784 13.784L.722 49.18 13.542 62l2.326-2.326h.001l15.647-15.646L49.448 61.96l3.937-3.937 8.718-8.72-3.79-3.79Z" fill="#fff"/></svg>