<svg width="58" height="58" viewBox="0 0 58 58" fill="none" xmlns="http://www.w3.org/2000/svg">
<g id="Group 1000004911">
<g id="Ellipse 747" filter="url(#filter0_d_343_112)">
<circle cx="29" cy="25" r="25" fill="#21222F"/>
</g>
<path id="Vector" d="M21.171 14.54L28.6336 22.26L36.0576 14.58C36.2216 14.3994 36.4192 14.255 36.6384 14.1553C36.8577 14.0557 37.0942 14.0028 37.3336 14C37.8464 14 38.3382 14.2107 38.7007 14.5858C39.0633 14.9609 39.267 15.4696 39.267 16C39.2715 16.2452 39.2275 16.4888 39.1377 16.7158C39.048 16.9428 38.9143 17.1484 38.745 17.32L31.2243 25L38.745 32.78C39.0636 33.1025 39.2505 33.5392 39.267 34C39.267 34.5304 39.0633 35.0391 38.7007 35.4142C38.3382 35.7893 37.8464 36 37.3336 36C37.0873 36.0106 36.8414 35.968 36.6118 35.8751C36.3821 35.7821 36.1737 35.6408 35.9997 35.46L28.6336 27.74L21.1903 35.44C21.027 35.6145 20.8318 35.7539 20.6161 35.85C20.4004 35.9461 20.1685 35.9971 19.9336 36C19.4209 36 18.9291 35.7893 18.5666 35.4142C18.204 35.0391 18.0003 34.5304 18.0003 34C17.9958 33.7548 18.0398 33.5112 18.1295 33.2842C18.2193 33.0573 18.353 32.8516 18.5223 32.68L26.043 25L18.5223 17.22C18.2037 16.8975 18.0168 16.4608 18.0003 16C18.0003 15.4696 18.204 14.9609 18.5666 14.5858C18.9291 14.2107 19.4209 14 19.9336 14C20.3976 14.006 20.8423 14.2 21.171 14.54Z" fill="white"/>
</g>
<defs>
<filter id="filter0_d_343_112" x="0" y="0" width="58" height="58" filterUnits="userSpaceOnUse" color-interpolation-filters="sRGB">
<feFlood flood-opacity="0" result="BackgroundImageFix"/>
<feColorMatrix in="SourceAlpha" type="matrix" values="0 0 0 0 0 0 0 0 0 0 0 0 0 0 0 0 0 0 127 0" result="hardAlpha"/>
<feOffset dy="4"/>
<feGaussianBlur stdDeviation="2"/>
<feComposite in2="hardAlpha" operator="out"/>
<feColorMatrix type="matrix" values="0 0 0 0 0 0 0 0 0 0 0 0 0 0 0 0 0 0 0.25 0"/>
<feBlend mode="normal" in2="BackgroundImageFix" result="effect1_dropShadow_343_112"/>
<feBlend mode="normal" in="SourceGraphic" in2="effect1_dropShadow_343_112" result="shape"/>
</filter>
</defs>
</svg>
