<svg xmlns="http://www.w3.org/2000/svg" width="86" height="86" viewBox="0 0 86 86" fill="none">
  <path d="M75.25 58.8383V71.509C75.2504 72.4162 74.9067 73.2898 74.2882 73.9535C73.6697 74.6173 72.8225 75.0217 71.9175 75.0852C70.3516 75.1927 69.0723 75.25 68.0833 75.25C36.4174 75.25 10.75 49.5826 10.75 17.9167C10.75 16.9277 10.8038 15.6484 10.9148 14.0825C10.9783 13.1775 11.3827 12.3303 12.0465 11.7118C12.7102 11.0933 13.5838 10.7496 14.491 10.75H27.1617C27.6061 10.7496 28.0349 10.9143 28.3647 11.2123C28.6945 11.5103 28.9017 11.9203 28.9462 12.3625C29.0286 13.1867 29.1038 13.8424 29.1755 14.3405C29.8876 19.3103 31.347 24.1439 33.5042 28.6774C33.8446 29.3941 33.6224 30.2505 32.9774 30.7092L25.2446 36.2347C29.9726 47.2515 38.7521 56.031 49.7689 60.759L55.2873 53.0405C55.5128 52.7252 55.8419 52.499 56.2171 52.4014C56.5923 52.3038 56.9899 52.3411 57.3405 52.5066C61.8734 54.6599 66.7058 56.1156 71.6738 56.8245C72.1719 56.8962 72.8277 56.9714 73.6447 57.0538C74.0863 57.0991 74.4953 57.3067 74.7926 57.6364C75.0898 57.9661 75.2505 58.3944 75.25 58.8383Z" fill="white"/>
</svg>