<svg width="17" height="16" viewBox="0 0 17 16" fill="none" xmlns="http://www.w3.org/2000/svg">
<path id="Time Circle" fill-rule="evenodd" clip-rule="evenodd" d="M8.59961 16C4.18361 16 0.599609 12.424 0.599609 8C0.599609 3.584 4.18361 0 8.59961 0C13.0236 0 16.5996 3.584 16.5996 8C16.5996 12.424 13.0236 16 8.59961 16ZM11.1519 10.968C11.2479 11.024 11.3519 11.056 11.4639 11.056C11.6639 11.056 11.8639 10.952 11.9759 10.76C12.1439 10.48 12.0559 10.112 11.7679 9.93599L8.91992 8.23999V4.54399C8.91992 4.20799 8.64792 3.94399 8.31992 3.94399C7.99192 3.94399 7.71992 4.20799 7.71992 4.54399V8.58399C7.71992 8.79199 7.83192 8.98399 8.01592 9.09599L11.1519 10.968Z" fill="white"/>
</svg>
