<svg width="42" height="41" viewBox="0 0 42 41" fill="none" xmlns="http://www.w3.org/2000/svg">
<path fill-rule="evenodd" clip-rule="evenodd" d="M21 0C32.2742 0 41.4138 9.13957 41.4138 20.4138C41.4138 31.688 32.2742 40.8276 21 40.8276C9.72575 40.8276 0.586182 31.688 0.586182 20.4138C0.586182 9.13957 9.72575 0 21 0ZM28.1027 17.5303C28.1095 17.6834 28.1129 17.8365 28.1129 17.9896C28.0881 20.7164 26.9699 23.3191 25.009 25.214C23.0482 27.1089 20.4088 28.1374 17.6828 28.0689C15.6992 28.0725 13.7544 27.52 12.069 26.4741C12.3593 26.5105 12.6517 26.5275 12.9442 26.5252C14.5864 26.5328 16.1854 25.9992 17.4939 25.0069C15.9454 24.9975 14.5721 24.0097 14.0708 22.5445C14.2978 22.5915 14.5293 22.6129 14.761 22.6083C15.086 22.6094 15.4099 22.5708 15.7256 22.4934C14.0411 22.1822 12.8119 20.7232 12.7911 19.0103V18.972C13.3028 19.2452 13.8701 19.398 14.4497 19.4186C13.4377 18.7739 12.8233 17.6585 12.8192 16.4586C12.8206 15.8334 12.9922 15.2203 13.3155 14.6852C15.211 16.9127 17.9467 18.2529 20.8686 18.3852C20.8055 18.1219 20.7738 17.8521 20.7742 17.5814C20.7889 16.6248 21.1835 15.7135 21.8708 15.0481C22.5582 14.3828 23.482 14.0181 24.4384 14.0345C25.4468 14.0302 26.4137 14.4353 27.1178 15.1572C27.9361 14.9971 28.7227 14.7041 29.4462 14.2896C29.168 15.1199 28.5946 15.8191 27.8348 16.2545C28.5596 16.1681 29.2684 15.9791 29.94 15.6931C29.4433 16.4112 28.8209 17.0337 28.1027 17.5303Z" fill="white"/>
</svg>
