<svg width="37" height="37" viewBox="0 0 37 37" fill="none" xmlns="http://www.w3.org/2000/svg">
<g clip-path="url(#clip0_1_1348)">
<path d="M22.7983 20.8877L6.26685 35.4882C6.26685 35.4882 11.2329 37.1185 19.2891 34.2366C27.5534 31.2795 34.5776 23.5124 35.3899 13.7305C36.0952 5.23494 34.54 4.25501 34.0573 3.62775C33.5861 3.01494 32.7912 2.93689 32.7912 2.93689L22.7983 20.8877Z" fill="#6D2A19"/>
<path d="M7.29138 7.52575C0.359666 15.1136 0.640057 24.1064 0.79326 27.4855C0.894432 29.7402 1.28467 30.8849 2.38021 32.0903C3.40349 33.2147 5.53967 34.2207 9.89006 33.2986C14.4197 32.3389 21.3138 29.1707 27.5576 22.0598C34.18 14.5153 34.7234 2.61458 32.9312 1.33403C31.139 0.0534824 27.5055 -0.917768 23.9761 -0.712533C20.4466 -0.507299 13.7924 0.41192 7.29138 7.52575Z" fill="#9C3C25"/>
<path d="M3.08427 33.9735C3.00044 34.0285 2.32693 33.592 2.29802 32.7942C2.24599 31.4471 3.15654 27.5766 4.44575 24.6195C5.65693 21.8358 6.52411 20.5899 6.52411 20.5899C6.52411 20.5899 5.70607 19.7921 5.73497 18.3064C5.76388 16.8206 6.27841 13.982 11.9354 8.5158C17.9247 2.7201 19.9453 3.32424 20.905 3.34736C21.6941 3.3676 22.9284 3.83588 23.0209 3.8619C23.0209 3.8619 24.92 2.62182 26.8741 2.21135C28.8282 1.80088 30.7938 2.02924 31.1147 2.06104C31.4384 2.09283 31.9934 2.27494 32.4357 2.48596C32.8577 2.68541 33.3578 3.03807 33.3578 3.03807C33.3578 3.03807 29.889 2.60737 27.6315 3.18549C25.3739 3.76362 23.9575 4.60768 23.9575 4.60768C23.9575 4.60768 24.5934 5.72924 24.5356 6.50682C24.4518 7.60815 23.7378 8.5158 21.6999 10.6086C19.9222 12.4355 13.5426 19.6274 12.7534 20.4338C11.7359 21.4803 10.4698 21.9746 9.33958 21.8647C8.21224 21.7549 7.52427 21.3155 7.52427 21.3155C7.52427 21.3155 6.28419 23.4343 5.37654 25.6659C4.46888 27.8974 3.86185 30.181 3.33864 32.7681C3.20857 33.4214 3.24036 33.8695 3.08427 33.9735Z" fill="#6D291A"/>
<path d="M7.69783 20.2748C8.43494 20.7113 10.4092 20.9397 11.5308 20.0349C12.6524 19.133 14.1324 17.0316 17.4884 13.3113C20.0321 10.4959 22.9545 8.10531 23.0933 6.73804C23.2754 4.92851 21.6451 4.27812 19.8934 4.41398C18.1445 4.54984 14.8348 6.95773 12.1003 9.8021C9.36572 12.6465 7.23244 15.3521 6.79595 17.2657C6.52713 18.4422 6.80463 19.743 7.69783 20.2748Z" fill="#9C3C25"/>
<path d="M19.6533 2.02054C19.6533 2.02054 21.8646 2.41945 24.1337 3.92257C26.4029 5.4257 28.8773 7.38554 30.3919 9.04765C31.2505 9.98999 33.6439 13.0569 33.7826 13.0569C33.9214 13.0569 34.196 11.2243 34.2798 10.5421C34.3608 9.85992 34.4995 9.20085 34.4157 8.95515C34.3348 8.70945 32.7362 6.57328 30.1491 4.27812C27.2094 1.67078 24.4806 1.20828 24.4806 1.20828C24.4806 1.20828 23.7724 1.18226 21.9889 1.41351C20.6968 1.58406 19.6533 2.02054 19.6533 2.02054ZM2.3789 19.9482C2.3789 19.9482 3.84444 20.3009 6.35929 22.0497C9.1921 24.0211 10.9525 25.5762 13.0858 27.7644C15.1121 29.8428 17.2887 32.6062 17.2887 32.771C17.2887 32.9358 16.4273 33.2798 15.1641 33.8348C14.5455 34.1065 13.3691 34.6152 13.1754 34.5314C12.9846 34.4505 11.4323 32.0946 9.00999 29.759C7.47796 28.2819 5.81007 26.6978 3.67679 25.3826C2.31241 24.5443 1.61866 24.3824 1.61866 24.3824C1.61866 24.3824 1.61288 23.388 1.89905 21.882C2.15632 20.5494 2.3789 19.9482 2.3789 19.9482Z" fill="#F2F0EE"/>
<path d="M15.3608 9.64316C11.7244 13.0888 7.59951 18.5463 7.37115 18.8787C6.97513 19.4511 6.96646 19.9049 7.4781 20.2228C7.98974 20.5408 8.35974 20.0321 8.68349 19.6158C9.04193 19.1562 12.2968 14.4474 15.6961 11.1752C19.6274 7.39715 22.3272 5.61652 22.6568 5.28988C22.8996 5.04707 23.5326 4.76957 23.0123 4.27816C22.6163 3.90238 21.8358 4.388 21.5092 4.63371C21.1797 4.87941 19.2083 5.99808 15.3608 9.64316Z" fill="#FDFFFF"/>
<path d="M19.1302 3.9342C18.6128 4.336 18.6619 5.07022 19.2805 5.55584C19.7517 5.92584 20.7576 6.72076 21.2374 7.16014C21.8214 7.6949 22.3792 7.79608 22.8099 7.46076C23.2609 7.111 23.495 6.24092 22.6943 5.43733C21.8994 4.6424 21.4398 4.16545 20.6044 3.83303C20.061 3.61623 19.5002 3.65092 19.1302 3.9342ZM18.4653 5.91428C17.9884 5.72928 17.1848 5.36795 16.5546 5.94029C15.9245 6.51264 16.2569 7.24975 16.8235 7.66022C17.39 8.07069 18.2052 8.88006 19.0146 9.4553C19.4771 9.78194 20.2749 10.0508 20.8414 9.42639C21.3097 8.90897 20.9108 8.05334 20.5582 7.62264C20.1477 7.11678 19.3036 6.23803 18.4653 5.91428ZM16.254 8.2817C15.6354 7.93194 14.5977 7.59662 13.8953 8.31639C13.1264 9.10553 13.5599 9.68655 14.3144 10.1548C14.9474 10.548 16.2367 11.658 16.6558 11.9441C17.3409 12.4124 18.2139 12.2072 18.5463 11.6926C19.0984 10.8399 18.3439 9.84842 17.7774 9.38592C17.2253 8.93498 16.5055 8.42623 16.254 8.2817ZM11.4729 10.6896C11.0075 11.2301 10.9381 11.8112 11.6579 12.5974C12.3777 13.3837 13.638 14.3058 14.3664 14.5544C15.2018 14.8376 15.6036 14.5197 15.9042 14.0514C16.2049 13.5831 15.9678 12.528 15.1989 11.843C14.7133 11.4094 13.8461 10.6405 12.7766 10.4063C12.1956 10.2791 11.7735 10.3398 11.4729 10.6896ZM10.3196 13.0165C9.91776 12.9038 9.40034 13.0657 9.09971 13.4357C8.79909 13.8028 8.65456 14.5312 9.01588 14.9417C9.38299 15.3608 9.60557 15.514 10.2213 16.0459C10.8399 16.5807 11.4585 17.234 12.1956 17.3178C12.713 17.3756 13.1813 17.1183 13.401 16.783C13.6178 16.4477 13.5946 15.7019 12.9992 15.0602C12.5771 14.6035 11.5047 13.349 10.3196 13.0165ZM6.96354 16.1587C6.35362 16.9536 6.68893 18.0318 8.19495 18.9828C9.42924 19.7662 10.5161 20.3154 11.2561 19.4164C11.9499 18.5723 11.2735 17.7109 9.71831 16.6414C8.26143 15.6412 7.51565 15.4418 6.96354 16.1587Z" fill="#FDFFFF"/>
</g>
<defs>
<clipPath id="clip0_1_1348">
<rect width="37" height="37" fill="white"/>
</clipPath>
</defs>
</svg>
