<svg width="38" height="38" viewBox="0 0 38 38" fill="none" xmlns="http://www.w3.org/2000/svg">
<path d="M22.5582 11.84L5.80286 29.7699C5.80286 29.7699 11.1458 36.1879 19.6787 35.8012C25.5489 35.5347 29.0699 33.3465 31.9523 30.0365C35.4732 25.9912 36.267 20.0565 36.062 17.3352C35.7954 13.8143 33.3934 9.22415 31.5246 7.83568C29.6557 6.44722 22.5582 11.84 22.5582 11.84Z" fill="#D7CCC6"/>
<path d="M7.34953 6.13088C1.79568 11.0725 -1.87467 22.2915 5.80289 29.7699C9.91263 33.7713 23.3579 33.9734 29.7612 25.5957C32.7696 21.6618 35.1833 15.5074 33.5517 10.6126C32.9102 8.69104 31.1878 7.31136 29.6558 6.02249C22.2916 -0.167008 14.1278 0.0995538 7.34953 6.13088Z" fill="#F1EDEC"/>
<path d="M20.408 36.3491L19.2686 36.2553C19.292 36.147 21.6647 25.4845 14.7282 18.4953C11.6467 15.3903 8.80821 13.955 6.28906 14.2333C3.66445 14.5203 1.91862 16.9516 1.9069 16.975L1.36792 15.8824C1.43529 15.777 2.98194 13.4189 6.1631 13.0703C9.0572 12.7569 12.2179 14.3036 15.5631 17.6722C22.9565 25.1271 20.5135 35.8863 20.408 36.3491ZM35.7368 17.8128C35.6577 17.7601 27.9567 12.3087 23.9817 8.91667C20.408 5.87025 15.6714 1.61405 15.6275 1.57011L16.4506 1.05457C16.4946 1.09557 21.0554 5.14087 24.6174 8.1785C28.5572 11.5383 35.9418 16.8315 36.0209 16.8842L35.7368 17.8128Z" fill="#979892"/>
<path d="M20.0214 4.76009C19.875 4.91534 19.4971 6.04603 19.3506 6.67582C19.2657 7.03611 19.3184 7.5956 19.7695 7.66883C20.2734 7.75378 20.4638 7.46378 20.619 7.03318C20.7743 6.60258 21.0496 5.8234 21.0496 5.8234C21.0496 5.8234 21.8522 5.55684 22.2477 5.43967C22.7749 5.28442 22.9302 5.06766 22.9419 4.79231C22.9536 4.51696 22.6666 4.00141 21.779 4.20646C21.2312 4.33535 20.2353 4.53161 20.0214 4.76009ZM17.432 2.57487C17.306 2.67739 16.7026 4.14494 16.6059 4.32949C16.5063 4.51403 16.4448 4.98564 16.7905 5.18483C17.1361 5.38402 17.514 5.04129 17.6458 4.74837C17.7747 4.45544 18.1526 3.58546 18.1526 3.58546C18.1526 3.58546 19.0753 3.53566 19.4063 3.48879C19.8105 3.43314 20.1181 3.32183 20.0947 2.85608C20.0712 2.39032 19.3184 2.42548 18.5422 2.47527C18.053 2.50457 17.5169 2.50457 17.432 2.57487ZM15.6246 0.881762C15.4137 0.978427 14.5935 1.81619 14.4852 1.95973C14.3768 2.10326 14.2948 2.41376 14.5701 2.63052C14.8455 2.84729 15.2292 2.66567 15.4313 2.52214C15.6364 2.37861 16.0172 1.90993 16.0172 1.90993C16.0172 1.90993 16.8081 1.92164 17.0365 1.93336C17.265 1.94508 17.5638 1.76639 17.5638 1.4061C17.5638 1.0458 17.1449 0.902266 16.7963 0.890549C16.4507 0.881762 15.7565 0.820247 15.6246 0.881762ZM23.3344 7.51651C23.1411 7.66883 22.6666 9.37072 22.567 9.71345C22.4674 10.0562 22.3063 10.7885 22.813 10.9467C23.3461 11.1136 23.7035 10.8764 23.8617 10.2729C24.0081 9.71638 24.3421 8.55346 24.3421 8.55346C24.3421 8.55346 25.6222 8.08185 25.9034 7.97347C26.1846 7.86509 26.5097 7.50772 26.3135 7.06834C26.1172 6.62895 25.5577 6.6846 25.2824 6.7842C25.2853 6.78713 23.5219 7.37005 23.3344 7.51651ZM26.6386 10.352C26.5039 10.5278 26.0528 12.1008 25.9795 12.4259C25.9063 12.7481 25.9092 13.2637 26.4218 13.3955C26.8407 13.5039 27.1776 13.2871 27.2713 12.8917C27.4295 12.2355 27.7752 11.2865 27.7752 11.2865C27.7752 11.2865 28.6862 10.7709 29.0318 10.5922C29.3804 10.4135 29.5356 9.92142 29.3189 9.57284C29.1021 9.22426 28.6129 9.27406 28.1325 9.44103C27.6551 9.61092 26.7587 10.1968 26.6386 10.352ZM29.9164 12.8243C29.7465 13.0792 29.6997 14.5848 29.6997 14.8133C29.6997 15.0417 29.8666 15.6393 30.4056 15.6393C30.886 15.6393 31.0881 15.1238 31.0881 14.8601C31.0881 14.5965 31.1467 13.5771 31.1467 13.5771C31.1467 13.5771 31.7648 13.2491 31.9845 13.0967C32.2833 12.8917 32.6201 12.5109 32.4034 12.1037C32.1866 11.6965 31.6125 11.8166 31.2405 11.9719C30.9798 12.0861 30.0365 12.6456 29.9164 12.8243ZM32.916 15.2585C32.8105 15.5134 32.8047 16.934 32.8281 17.3178C32.8516 17.7015 33.1767 18.0354 33.5956 18.0237C34.0145 18.012 34.2078 17.6166 34.1931 17.3061C34.1785 16.9956 34.2166 15.9762 34.2166 15.9762C34.2166 15.9762 34.7731 15.5895 34.9225 15.4841C35.151 15.3288 35.1979 14.9568 34.9958 14.6697C34.7907 14.3827 34.3718 14.2977 33.9764 14.5262C33.5809 14.7547 32.957 15.156 32.916 15.2585ZM35.1393 16.8491C34.9489 17.1772 35.1276 18.6711 35.1276 18.8146C35.1276 18.9582 35.1744 19.4503 35.6666 19.4503C36.0972 19.4503 36.2407 19.1866 36.2524 18.9464C36.2641 18.7062 36.229 17.3529 36.229 17.3529C36.229 17.3529 36.6479 17.2211 36.4692 16.6704C36.2905 16.1226 35.3385 16.5093 35.1393 16.8491ZM18.3488 35.5641C18.1848 35.8541 18.22 36.2349 18.838 36.5454C19.459 36.8559 19.585 36.8734 19.7168 36.8822C19.9482 36.8939 20.4784 36.7153 20.827 36.5219C21.1053 36.3667 21.448 36.1353 21.2019 35.6842C20.9734 35.2624 19.7314 35.7603 19.7314 35.7603C19.7314 35.7603 18.633 35.0632 18.3488 35.5641ZM18.2698 32.919C17.927 33.2353 18.1526 33.7069 18.8497 34.158C19.4707 34.5593 19.8193 34.8552 20.0888 34.8552C20.3583 34.8552 21.3748 34.3426 21.6384 34.1961C22.0397 33.9764 22.1686 33.537 21.8581 33.2265C21.5476 32.916 21.1082 33.2382 20.8885 33.3554C20.6688 33.4726 20.165 33.7157 20.165 33.7157C20.165 33.7157 19.5059 33.2382 19.2862 33.083C19.0665 32.9277 18.6066 32.6085 18.2698 32.919ZM17.9358 29.6733C17.6546 30.0952 17.8186 30.5375 18.4894 30.9124C19.1602 31.2874 20.0009 31.6213 20.2704 31.6623C20.5399 31.7033 21.6003 30.7835 21.8054 30.5902C22.0104 30.3969 22.5787 29.7905 22.2184 29.3775C21.7878 28.8854 21.3279 29.2603 20.9149 29.5445C20.5985 29.7612 20.2294 30.0336 20.2294 30.0336C20.2294 30.0336 19.5205 29.8403 19.1075 29.647C18.6974 29.4537 18.1936 29.2867 17.9358 29.6733ZM19.6084 26.2315C19.6084 26.2315 20.3437 25.4699 20.6161 25.2121C20.8885 24.9543 21.3513 24.6966 21.6999 25.1096C22.0485 25.5226 21.6882 26.1436 21.363 26.4395C21.0379 26.7353 20.2148 27.7049 19.9804 27.743C19.7461 27.7811 18.0325 27.4706 17.5404 27.2128C17.2504 27.0605 16.7905 26.7734 17.0512 26.1934C17.265 25.713 17.7483 25.7687 18.1086 25.8448C18.4689 25.921 19.6084 26.2315 19.6084 26.2315ZM17.8567 22.0895C17.8567 22.0895 18.4777 20.8241 18.6828 20.373C18.8908 19.9219 19.1485 19.5089 19.7285 19.7139C20.3085 19.919 20.1328 20.4667 19.9365 20.9911C19.7051 21.6121 19.0577 23.2495 18.7736 23.393C18.4279 23.5659 16.6059 23.6244 15.9732 23.6127C15.6891 23.6069 15.3669 23.4048 15.3786 23.0181C15.3903 22.6314 15.6305 22.3619 16.2574 22.2565C16.644 22.192 17.8567 22.0895 17.8567 22.0895ZM14.9919 17.9066C14.9275 17.9446 13.5947 18.4807 13.2607 18.5774C12.7716 18.718 12.6017 19.2101 12.7071 19.5587C12.8126 19.9072 13.2871 20.0888 13.8437 19.9189C14.3973 19.752 16.0757 19.3243 16.231 19.0812C16.3862 18.8381 16.644 17.1069 16.6967 16.6558C16.7495 16.2047 16.7612 15.6364 16.1666 15.5456C15.5719 15.4548 15.3288 15.8561 15.2761 16.2808C15.2438 16.5415 14.9919 17.9066 14.9919 17.9066ZM11.4007 15.0095C11.4007 15.0095 11.5032 13.8349 11.5413 13.4863C11.5793 13.1377 11.7082 12.672 12.3146 12.713C12.9209 12.754 12.8565 13.539 12.8565 14.0429C12.8565 14.5467 12.7393 15.8619 12.6632 15.9264C12.587 15.9908 11.7727 16.6235 11.3479 16.9077C10.9232 17.1918 10.2378 17.3822 9.97998 16.9956C9.7222 16.6089 10.0971 16.0055 10.5102 15.695C10.9232 15.3845 11.4007 15.0095 11.4007 15.0095ZM7.6893 11.058C7.09174 11.2074 7.12103 11.8313 7.30264 12.464C7.48426 13.0967 7.58678 13.6123 7.58678 13.6123C7.58678 13.6123 7.16204 14.2714 6.98043 14.5028C6.79881 14.7342 6.23054 15.4196 6.82518 15.9088C7.41981 16.398 7.9998 15.5339 8.2195 15.2761C8.43333 15.0271 9.13635 14.0897 9.13635 13.9609C9.13635 13.5859 8.74969 12.2062 8.65889 11.9075C8.56808 11.6087 8.3601 10.891 7.6893 11.058ZM3.40088 12.0451C3.13432 12.2267 2.99958 12.7804 3.33644 13.2578C3.61179 13.6504 3.81391 14.0575 3.81391 14.0575C3.81391 14.0575 3.45361 15.1033 3.31008 15.4401C3.16654 15.777 2.99958 16.5122 3.59421 16.7436C4.18885 16.9751 4.60188 16.3306 4.75713 15.8532C4.91238 15.3757 5.3254 14.3036 5.33712 13.9814C5.34591 13.7675 4.78349 12.7159 4.53743 12.3556C4.29138 11.9953 3.80219 11.7756 3.40088 12.0451ZM2.41959 15.7243C2.48696 16.0318 2.31706 16.8989 2.14717 17.6341C2.09737 17.8509 2.02414 18.3372 1.41192 18.1878C0.88173 18.0589 1.10142 17.3881 1.16587 17.0512C1.20395 16.852 1.3592 16.2134 1.3592 16.2134C1.3592 16.2134 1.07799 16.0611 1.08678 15.736C1.09849 15.3112 1.31819 15.1677 1.66677 15.1413C2.01535 15.115 2.36686 15.4929 2.41959 15.7243Z" fill="#ED520A"/>
</svg>
