<svg width="38" height="38" viewBox="0 0 38 38" fill="none" xmlns="http://www.w3.org/2000/svg">
<path d="M6.53516 31.7003C6.53516 31.7003 12.1652 37.6232 21.8229 36.1205C31.4806 34.6207 35.3531 26.1523 36.1499 21.3249C37.1634 15.1764 34.3542 10.9495 34.2048 10.7181C34.0935 10.5482 6.53516 31.7003 6.53516 31.7003Z" fill="#DC5819"/>
<path d="M6.09573 6.3008C0.310464 12.3907 -0.670834 21.2868 3.6791 28.1618C5.70321 31.3605 6.94228 32.0108 6.94228 32.0108C6.94228 32.0108 16.4067 38.0802 27.0428 28.8794C36.1527 20.9998 34.2224 10.7386 34.2224 10.7386C34.2224 10.7386 33.0858 8.2546 30.6956 5.89656C25.3907 0.659063 13.5331 -1.53201 6.09573 6.3008Z" fill="#EF6C32"/>
<path d="M29.2837 4.69846C29.1987 4.70432 20.7361 5.31361 11.7843 17.347C6.13089 24.9454 6.40916 30.3089 6.62886 31.7794C6.62886 31.7794 6.19826 31.4249 5.89362 31.0968C5.58897 30.7717 5.35171 30.4817 5.35171 30.4817C5.32827 27.9069 6.09866 23.0268 10.847 16.6469C18.0734 6.92469 24.9835 4.39089 27.8806 3.73474C27.8806 3.73474 28.235 3.94272 28.5777 4.15655C28.8296 4.31473 29.2837 4.69846 29.2837 4.69846Z" fill="#2D3130"/>
<path d="M4.56081 8.13745C5.50109 9.68117 7.77126 13.0176 11.7023 16.5005C16.6498 20.8885 21.7936 24.4563 26.9842 27.1014C29.436 28.3522 31.3195 29.0845 32.6523 29.5151C32.6523 29.5151 32.459 29.811 32.2774 30.0541C32.0957 30.2972 31.8966 30.5023 31.8966 30.5023C30.5403 30.0424 28.73 29.3101 26.4482 28.1442C21.1696 25.4522 15.9439 21.8288 10.9231 17.3763C7.20299 14.078 4.94747 10.9554 3.84021 9.20663C3.84021 9.20663 3.99546 8.89906 4.20051 8.62664C4.40556 8.35422 4.56081 8.13745 4.56081 8.13745Z" fill="#2D3130"/>
<path d="M15.5777 1.39722C15.1588 1.87468 14.5613 2.65094 13.8641 3.82556C13.2255 4.89767 12.8974 5.96392 12.5166 7.20006C11.8927 9.2271 11.1868 11.5236 8.87558 14.4587C5.66513 18.5362 2.51033 19.8984 1.03984 20.3348C1.03984 20.3348 0.998834 19.954 0.984188 19.6874C0.969542 19.4209 0.9754 19.1192 0.9754 19.1192C2.37265 18.6417 5.13786 17.306 7.95287 13.7352C10.1293 10.97 10.8001 8.78478 11.3947 6.85734C11.7814 5.60362 12.1446 4.4202 12.8564 3.228C13.1933 2.66265 13.5097 2.17933 13.7997 1.77509C13.7997 1.77509 14.1248 1.66671 14.57 1.56711C14.9157 1.48509 15.5777 1.39722 15.5777 1.39722ZM20.1298 36.3256C19.1485 35.438 17.1214 33.411 15.6421 30.5901C14.0047 27.4705 13.2372 22.7778 15.4225 19.8456C17.9182 16.5004 22.5786 16.0464 26.8143 16.0464H26.8319C32.2246 16.0493 36.2816 17.1771 36.3285 17.1917C36.3285 17.1917 36.2963 16.7963 36.2523 16.4594C36.2143 16.1694 36.1732 15.8999 36.1732 15.8999C35.9682 15.8472 32.3828 14.8776 26.8319 14.8747H26.8143C22.2886 14.8747 17.2855 15.3844 14.4822 19.1455C12.6777 21.5651 12.0157 26.2109 14.6052 31.1349C15.8238 33.4549 17.3587 35.2447 18.4806 36.3724C18.4806 36.3724 18.8087 36.3842 19.2275 36.3783C19.6406 36.3724 20.1298 36.3256 20.1298 36.3256Z" fill="#2D3130"/>
</svg>
