<svg width="37" height="37" viewBox="0 0 37 37" fill="none" xmlns="http://www.w3.org/2000/svg">
<g clip-path="url(#clip0_1_1238)">
<path d="M34.5993 27.637C34.5535 27.7253 34.5005 27.8135 34.4511 27.8982C34.4016 27.983 34.3346 28.0924 34.2745 28.1877C34.0203 28.6079 33.7485 29.0139 33.459 29.4023L33.1059 29.8506C32.4292 30.726 31.674 31.5378 30.8499 32.2761L30.7899 32.3291C28.224 34.6069 25.0757 36.127 21.6962 36.7199C18.3167 37.3127 14.8389 36.955 11.6509 35.6866C11.1095 35.4788 10.5792 35.2431 10.0621 34.9805C9.7338 34.8146 9.40899 34.6274 9.08771 34.4474C8.41116 34.0471 7.76028 33.6049 7.13885 33.1234C6.75049 32.7951 6.35507 32.4809 6.00202 32.1278L5.84668 31.9831C2.8711 29.1902 0.902465 25.4919 0.24731 21.4639C-0.407846 17.4359 0.287244 13.3043 2.22435 9.71247C2.3338 9.50416 2.4503 9.30292 2.5774 9.09815C2.7504 8.80865 2.93046 8.52268 3.11404 8.24729C3.35412 7.89424 3.60479 7.54119 3.87664 7.18813L4.01786 7.00102C4.12378 6.86685 4.22616 6.73622 4.33914 6.60559C4.65336 6.22783 4.9817 5.86418 5.32416 5.52172L6.3233 4.58966L6.51042 4.42372C6.79286 4.18365 7.07883 3.95416 7.3754 3.7388L7.52015 3.62582C10.9301 1.10846 15.101 -0.161656 19.3353 0.0279245C23.5695 0.217505 27.6103 1.85529 30.7816 4.66731C33.953 7.47934 36.0625 11.2951 36.7575 15.4762C37.4524 19.6573 36.6906 23.9503 34.5993 27.637Z" fill="#B82F26"/>
<path d="M34.5993 27.637C34.5534 27.7252 34.5005 27.8135 34.451 27.8982C34.4016 27.983 34.3345 28.0924 34.2745 28.1877C33.9885 28.163 33.7061 28.1277 33.4307 28.0853C33.3902 28.0793 33.3512 28.0654 33.316 28.0443C33.2808 28.0232 33.2501 27.9954 33.2257 27.9624C33.2013 27.9295 33.1836 27.892 33.1736 27.8522C33.1637 27.8125 33.1617 27.7711 33.1677 27.7305C33.1737 27.69 33.1877 27.651 33.2088 27.6158C33.2299 27.5806 33.2577 27.55 33.2906 27.5255C33.3236 27.5011 33.361 27.4834 33.4008 27.4735C33.4406 27.4635 33.4819 27.4615 33.5225 27.4675C33.8226 27.5099 34.1298 27.5452 34.4405 27.5769C34.4975 27.5837 34.552 27.6043 34.5993 27.637Z" fill="#F1F2F2"/>
<path d="M33.127 28.2442C33.1286 28.2535 33.1286 28.2631 33.127 28.2724C33.1124 28.3519 33.0673 28.4226 33.0014 28.4694C32.9354 28.5162 32.8539 28.5355 32.774 28.5231C32.4598 28.4666 32.1456 28.4031 31.8419 28.3324C31.7993 28.3257 31.7586 28.3103 31.7222 28.2871C31.6859 28.2639 31.6547 28.2335 31.6306 28.1978C31.6065 28.162 31.59 28.1217 31.5821 28.0793C31.5743 28.0369 31.5753 27.9933 31.585 27.9513C31.5947 27.9093 31.6129 27.8698 31.6386 27.8351C31.6643 27.8005 31.6968 27.7715 31.7341 27.7499C31.7715 27.7284 31.8129 27.7147 31.8557 27.7099C31.8985 27.705 31.9419 27.709 31.9831 27.7217C32.2762 27.7887 32.5833 27.8523 32.887 27.9088C32.9611 27.9256 33.0264 27.9691 33.0707 28.0309C33.1149 28.0927 33.135 28.1686 33.127 28.2442Z" fill="#F1F2F2"/>
<path d="M31.5314 28.4561C31.535 28.4736 31.535 28.4916 31.5314 28.5091C31.5216 28.5491 31.5038 28.5867 31.4792 28.6196C31.4545 28.6526 31.4235 28.6803 31.3879 28.7011C31.3523 28.7218 31.3129 28.7352 31.2721 28.7404C31.2312 28.7457 31.1898 28.7426 31.1501 28.7315C30.8394 28.6467 30.5323 28.555 30.2357 28.4596C30.1944 28.4487 30.1557 28.4294 30.1221 28.403C30.0885 28.3766 30.0606 28.3437 30.0402 28.3061C30.0198 28.2686 30.0072 28.2273 30.0033 28.1848C29.9994 28.1422 30.0042 28.0993 30.0174 28.0587C30.0306 28.018 30.052 27.9805 30.0802 27.9484C30.1084 27.9163 30.1429 27.8903 30.1815 27.872C30.2201 27.8537 30.262 27.8434 30.3048 27.8419C30.3475 27.8403 30.39 27.8475 30.4299 27.863C30.7194 27.9583 31.0159 28.0466 31.3125 28.1278C31.3814 28.1487 31.4409 28.1928 31.4808 28.2527C31.5207 28.3126 31.5386 28.3845 31.5314 28.4561Z" fill="#F1F2F2"/>
<path d="M29.9248 28.5196C29.9237 28.5475 29.9177 28.575 29.9072 28.6008C29.8786 28.678 29.8205 28.7407 29.7457 28.7752C29.6709 28.8096 29.5855 28.8129 29.5082 28.7844C29.2081 28.6785 28.9116 28.5584 28.6185 28.4313C28.5489 28.3944 28.4957 28.3325 28.4695 28.2582C28.4433 28.1838 28.446 28.1023 28.4772 28.0298C28.5083 27.9574 28.5655 27.8993 28.6375 27.867C28.7094 27.8348 28.7909 27.8308 28.8657 27.8559C29.1481 27.9759 29.4341 28.0936 29.7236 28.2089C29.786 28.2323 29.8393 28.2751 29.8755 28.331C29.9118 28.387 29.929 28.4531 29.9248 28.5196Z" fill="#F1F2F2"/>
<path d="M28.322 28.4419C28.3185 28.479 28.3077 28.515 28.2902 28.5479C28.2731 28.5854 28.2487 28.6192 28.2184 28.6473C28.1881 28.6753 28.1525 28.697 28.1138 28.7112C28.075 28.7253 28.0338 28.7316 27.9925 28.7296C27.9513 28.7276 27.9109 28.7174 27.8736 28.6997C27.5876 28.562 27.2981 28.4208 27.0227 28.2725C26.9834 28.255 26.9481 28.2296 26.9189 28.1979C26.8898 28.1661 26.8675 28.1288 26.8534 28.0881C26.8394 28.0474 26.8338 28.0042 26.8371 27.9613C26.8404 27.9184 26.8525 27.8766 26.8726 27.8385C26.8927 27.8004 26.9205 27.7669 26.9541 27.74C26.9877 27.7131 27.0265 27.6934 27.0681 27.6821C27.1096 27.6708 27.1531 27.6682 27.1957 27.6744C27.2383 27.6806 27.2792 27.6955 27.3158 27.7182C27.5841 27.8629 27.863 28.0006 28.1419 28.1313C28.2001 28.1584 28.2485 28.2028 28.2807 28.2583C28.3129 28.3139 28.3273 28.378 28.322 28.4419Z" fill="#F1F2F2"/>
<path d="M26.7261 28.2443C26.7203 28.2889 26.7059 28.3321 26.6838 28.3714C26.6633 28.407 26.636 28.4382 26.6034 28.4632C26.5708 28.4882 26.5335 28.5065 26.4938 28.517C26.454 28.5276 26.4126 28.5301 26.3719 28.5245C26.3312 28.5188 26.292 28.5052 26.2566 28.4843C25.9847 28.329 25.7093 28.1595 25.441 27.9865C25.3713 27.9397 25.323 27.8671 25.3067 27.7847C25.2905 27.7022 25.3077 27.6167 25.3545 27.547C25.4013 27.4772 25.474 27.4289 25.5564 27.4127C25.6388 27.3965 25.7243 27.4137 25.7941 27.4605C26.0553 27.63 26.3201 27.7924 26.5849 27.9442C26.6338 27.9763 26.6729 28.0214 26.6978 28.0743C26.7227 28.1273 26.7325 28.1861 26.7261 28.2443Z" fill="#F1F2F2"/>
<path d="M25.1515 27.8912C25.1447 27.9455 25.1254 27.9975 25.0951 28.043C25.0718 28.0768 25.042 28.1056 25.0075 28.1278C24.973 28.15 24.9345 28.1651 24.8941 28.1723C24.8537 28.1795 24.8123 28.1787 24.7723 28.1698C24.7323 28.161 24.6944 28.1443 24.6608 28.1207C24.3995 27.9407 24.1418 27.7677 23.8911 27.5594C23.8584 27.5341 23.831 27.5027 23.8104 27.4668C23.7899 27.431 23.7766 27.3914 23.7713 27.3504C23.7661 27.3094 23.769 27.2678 23.7799 27.2279C23.7907 27.188 23.8093 27.1507 23.8347 27.118C23.8596 27.0854 23.8907 27.0581 23.9263 27.0376C23.9618 27.017 24.0011 27.0038 24.0418 26.9985C24.0825 26.9933 24.1238 26.9961 24.1634 27.007C24.203 27.0178 24.2401 27.0363 24.2724 27.0615C24.516 27.2487 24.7667 27.4146 25.0174 27.6053C25.0625 27.6373 25.0985 27.6805 25.122 27.7306C25.1455 27.7807 25.1557 27.836 25.1515 27.8912Z" fill="#F1F2F2"/>
<path d="M23.6158 27.404C23.6101 27.4606 23.5893 27.5146 23.5554 27.5602C23.5215 27.6059 23.4758 27.6415 23.4233 27.6632C23.3707 27.685 23.3132 27.692 23.257 27.6837C23.2008 27.6753 23.1478 27.6519 23.1039 27.6158C22.8638 27.4181 22.6202 27.2098 22.3977 26.9945C22.3412 26.9374 22.3086 26.8609 22.3067 26.7807C22.3048 26.7004 22.3337 26.6224 22.3875 26.5628C22.4412 26.5032 22.5158 26.4664 22.5958 26.46C22.6759 26.4536 22.7553 26.4781 22.8179 26.5284C23.0509 26.7367 23.2839 26.9415 23.524 27.1321C23.5593 27.1672 23.586 27.2101 23.6019 27.2573C23.6178 27.3044 23.6226 27.3547 23.6158 27.404Z" fill="#F1F2F2"/>
<path d="M22.1188 26.8073C22.1156 26.8793 22.0854 26.9474 22.0341 26.998C22.0052 27.0271 21.9709 27.0502 21.933 27.066C21.8951 27.0818 21.8545 27.0899 21.8135 27.0899C21.7724 27.0899 21.7318 27.0818 21.6939 27.066C21.6561 27.0502 21.6217 27.0271 21.5928 26.998C21.3633 26.7826 21.1409 26.5566 20.9185 26.3272C20.8863 26.2983 20.8605 26.2631 20.8425 26.2238C20.8246 26.1845 20.815 26.1419 20.8143 26.0987C20.8135 26.0555 20.8217 26.0126 20.8383 25.9727C20.8549 25.9328 20.8796 25.8968 20.9107 25.8668C20.9419 25.8369 20.9789 25.8137 21.0194 25.7987C21.0599 25.7837 21.1031 25.7772 21.1462 25.7797C21.1894 25.7821 21.2315 25.7934 21.2701 25.8129C21.3087 25.8324 21.3428 25.8596 21.3704 25.8929C21.5857 26.1153 21.8046 26.3342 22.0271 26.5461C22.0617 26.5794 22.0881 26.6204 22.1041 26.6658C22.12 26.7111 22.1251 26.7596 22.1188 26.8073Z" fill="#F1F2F2"/>
<path d="M20.675 26.1047C20.6693 26.1651 20.6462 26.2226 20.6085 26.2702C20.5708 26.3178 20.5202 26.3534 20.4627 26.3728C20.4052 26.3923 20.3433 26.3946 20.2845 26.3796C20.2257 26.3646 20.1725 26.3329 20.1313 26.2883C19.9195 26.0529 19.7112 25.8175 19.5064 25.5822C19.4535 25.5185 19.428 25.4364 19.4357 25.354C19.4433 25.2716 19.4833 25.1955 19.547 25.1426C19.6107 25.0897 19.6927 25.0643 19.7752 25.0719C19.8576 25.0795 19.9336 25.1195 19.9865 25.1832C20.1878 25.4198 20.389 25.6528 20.5938 25.8893C20.6481 25.9477 20.6772 26.025 20.675 26.1047Z" fill="#F1F2F2"/>
<path d="M19.2804 25.3068C19.2772 25.3489 19.2652 25.3898 19.2451 25.4269C19.225 25.464 19.1974 25.4965 19.1639 25.5222C19.1314 25.5496 19.0937 25.57 19.053 25.5824C19.0123 25.5948 18.9696 25.5988 18.9274 25.5942C18.8851 25.5895 18.8442 25.5764 18.8072 25.5555C18.7702 25.5347 18.7378 25.5065 18.712 25.4728C18.5178 25.2256 18.3271 24.9714 18.1365 24.7137C18.088 24.6462 18.0682 24.5623 18.0814 24.4802C18.0946 24.3982 18.1398 24.3247 18.2071 24.2759C18.2746 24.2274 18.3585 24.2076 18.4406 24.2208C18.5226 24.234 18.5961 24.2792 18.6449 24.3465C18.8285 24.5972 18.9979 24.8443 19.2027 25.0844C19.2298 25.1144 19.2507 25.1496 19.264 25.1878C19.2773 25.226 19.2829 25.2664 19.2804 25.3068Z" fill="#F1F2F2"/>
<path d="M17.9422 24.4171C17.9359 24.4808 17.9104 24.541 17.869 24.5897C17.8276 24.6385 17.7723 24.6734 17.7105 24.6899C17.6488 24.7064 17.5834 24.7037 17.5232 24.6821C17.4631 24.6605 17.4109 24.621 17.3738 24.569C17.1937 24.3077 17.0207 24.0464 16.8477 23.7781C16.8256 23.7431 16.8106 23.7041 16.8036 23.6634C16.7966 23.6226 16.7977 23.5808 16.8069 23.5404C16.8161 23.5001 16.8332 23.462 16.8571 23.4282C16.8811 23.3945 16.9115 23.3658 16.9466 23.3439C17.017 23.2998 17.102 23.2851 17.1831 23.3029C17.2643 23.3207 17.3353 23.3697 17.3808 23.4392C17.5503 23.7004 17.7339 23.9582 17.8963 24.2124C17.9354 24.273 17.9517 24.3456 17.9422 24.4171Z" fill="#F1F2F2"/>
<path d="M16.6607 23.4498C16.657 23.4988 16.6416 23.5461 16.6158 23.5879C16.59 23.6297 16.5545 23.6647 16.5124 23.6899C16.4412 23.7328 16.3559 23.7458 16.2752 23.7259C16.1944 23.7061 16.1249 23.655 16.0817 23.584C15.9193 23.3157 15.7604 23.0438 15.6015 22.7649C15.5815 22.7292 15.5687 22.6899 15.5639 22.6493C15.5591 22.6087 15.5624 22.5675 15.5735 22.5281C15.5847 22.4888 15.6035 22.452 15.6289 22.4199C15.6543 22.3879 15.6858 22.3611 15.7216 22.3412C15.7939 22.3013 15.879 22.2911 15.9588 22.3128C16.0386 22.3346 16.1067 22.3866 16.1488 22.4578C16.3006 22.7296 16.4559 22.9979 16.6183 23.2592C16.6526 23.3165 16.6674 23.3834 16.6607 23.4498Z" fill="#F1F2F2"/>
<path d="M15.4357 22.4118C15.4319 22.4634 15.415 22.5133 15.3866 22.5565C15.3582 22.5998 15.3191 22.635 15.2733 22.659C15.2372 22.6787 15.1975 22.6911 15.1566 22.6954C15.1156 22.6997 15.0743 22.6958 15.0348 22.684C14.9954 22.6722 14.9588 22.6526 14.927 22.6265C14.8952 22.6004 14.8689 22.5682 14.8496 22.5319C14.7013 22.2565 14.5566 21.974 14.4118 21.6916C14.3753 21.6173 14.3696 21.5315 14.396 21.453C14.4224 21.3745 14.4787 21.3096 14.5526 21.2724C14.6266 21.2352 14.7123 21.2287 14.791 21.2543C14.8698 21.2799 14.9352 21.3356 14.9732 21.4092C15.1144 21.6916 15.2556 21.967 15.4004 22.2353C15.4306 22.2889 15.443 22.3507 15.4357 22.4118Z" fill="#F1F2F2"/>
<path d="M14.2706 21.3102C14.2649 21.379 14.2367 21.444 14.1904 21.4952C14.144 21.5463 14.0821 21.5808 14.0142 21.5933C13.9463 21.6057 13.8762 21.5955 13.8147 21.5641C13.7532 21.5327 13.7038 21.482 13.674 21.4197C13.5398 21.1337 13.4092 20.8477 13.2821 20.5547C13.2651 20.5172 13.2557 20.4767 13.2545 20.4355C13.2533 20.3943 13.2603 20.3533 13.2751 20.3149C13.2899 20.2765 13.3122 20.2414 13.3406 20.2116C13.3691 20.1819 13.4032 20.1581 13.441 20.1416C13.5174 20.1094 13.6034 20.1084 13.6806 20.1387C13.7577 20.1691 13.82 20.2284 13.854 20.304C13.9811 20.59 14.1082 20.8724 14.2424 21.1513C14.264 21.2014 14.2736 21.2558 14.2706 21.3102Z" fill="#F1F2F2"/>
<path d="M13.1584 20.1557C13.1523 20.2259 13.1227 20.292 13.0745 20.3433C13.0263 20.3947 12.9623 20.4283 12.8927 20.4389C12.823 20.4495 12.7519 20.4364 12.6906 20.4017C12.6293 20.367 12.5814 20.3127 12.5547 20.2475C12.4347 19.958 12.317 19.665 12.2017 19.3684C12.1871 19.3302 12.1801 19.2894 12.1813 19.2485C12.1824 19.2076 12.1916 19.1673 12.2083 19.1299C12.2251 19.0925 12.249 19.0588 12.2787 19.0307C12.3085 19.0025 12.3435 18.9805 12.3817 18.9659C12.42 18.9513 12.4607 18.9444 12.5016 18.9456C12.5426 18.9467 12.5829 18.9559 12.6203 18.9726C12.6576 18.9893 12.6913 19.0133 12.7195 19.043C12.7476 19.0728 12.7696 19.1078 12.7842 19.146C12.8972 19.4355 13.0137 19.725 13.1373 20.0075C13.1562 20.0544 13.1634 20.1053 13.1584 20.1557Z" fill="#F1F2F2"/>
<path d="M12.0992 18.9519C12.0943 19.0111 12.0724 19.0676 12.036 19.1146C11.9997 19.1616 11.9505 19.1971 11.8944 19.2167C11.8162 19.2451 11.7299 19.2414 11.6545 19.2063C11.579 19.1713 11.5206 19.1077 11.4919 19.0296C11.386 18.7365 11.2801 18.44 11.1812 18.1363C11.1679 18.0976 11.1624 18.0567 11.1649 18.0158C11.1675 17.975 11.1781 17.935 11.1961 17.8983C11.2142 17.8615 11.2393 17.8287 11.2701 17.8017C11.3008 17.7747 11.3366 17.754 11.3754 17.7409C11.4541 17.7139 11.5402 17.7192 11.615 17.7556C11.6898 17.792 11.7471 17.8565 11.7744 17.9351C11.8732 18.2317 11.9756 18.5247 12.0815 18.8142C12.0977 18.8582 12.1037 18.9053 12.0992 18.9519Z" fill="#F1F2F2"/>
<path d="M11.093 17.7021C11.0875 17.763 11.0641 17.821 11.0258 17.8688C10.9875 17.9165 10.936 17.9519 10.8776 17.9704C10.7985 17.996 10.7124 17.9892 10.6383 17.9515C10.5642 17.9138 10.5081 17.8482 10.4822 17.7692C10.3869 17.462 10.2951 17.1584 10.2103 16.8583C10.1939 16.7803 10.2078 16.6989 10.2491 16.6307C10.2904 16.5625 10.3561 16.5126 10.4329 16.4911C10.5097 16.4695 10.5918 16.478 10.6625 16.5147C10.7333 16.5514 10.7875 16.6136 10.8141 16.6888C10.8953 16.9819 10.9871 17.2784 11.0824 17.5785C11.0932 17.6188 11.0968 17.6606 11.093 17.7021Z" fill="#F1F2F2"/>
<path d="M6.5105 4.40605C6.53266 4.43696 6.56166 4.46233 6.59523 4.4802C6.66643 4.52311 6.75174 4.53607 6.83247 4.51621C6.9132 4.49636 6.98278 4.44532 7.02596 4.37428C7.1813 4.11302 7.35076 3.85882 7.52023 3.60815L6.5105 4.40605Z" fill="#F1F2F2"/>
<path d="M10.1503 16.4029C10.144 16.4769 10.1115 16.5464 10.0588 16.5988C10.0061 16.6512 9.93645 16.6832 9.86234 16.6891C9.78823 16.695 9.71442 16.6745 9.65403 16.6311C9.59363 16.5878 9.55057 16.5244 9.53249 16.4523C9.45129 16.1416 9.38068 15.8309 9.3136 15.5273C9.29998 15.4856 9.29526 15.4415 9.29973 15.3978C9.3042 15.3541 9.31777 15.3119 9.33956 15.2738C9.36135 15.2357 9.39088 15.2026 9.42625 15.1766C9.46162 15.1506 9.50203 15.1323 9.5449 15.1229C9.58777 15.1135 9.63213 15.1132 9.67514 15.1219C9.71814 15.1307 9.75883 15.1484 9.79458 15.1739C9.83033 15.1993 9.86035 15.232 9.88271 15.2698C9.90506 15.3075 9.91926 15.3496 9.92438 15.3931C9.98793 15.6897 10.0585 15.9898 10.1397 16.297C10.1486 16.3315 10.1522 16.3672 10.1503 16.4029Z" fill="#F1F2F2"/>
<path d="M7.26244 4.99917C7.25945 5.04126 7.2474 5.08221 7.22713 5.11921C7.08238 5.38753 6.94822 5.66291 6.82112 5.94182C6.78694 6.0172 6.72422 6.07591 6.64676 6.10505C6.56929 6.13418 6.48342 6.13134 6.40805 6.09717C6.33267 6.06299 6.27396 6.00027 6.24483 5.9228C6.21569 5.84534 6.21853 5.75947 6.2527 5.6841C6.38333 5.39459 6.52455 5.10509 6.67637 4.82264C6.7092 4.75732 6.76403 4.70567 6.83119 4.67677C6.89835 4.64788 6.97356 4.6436 7.04356 4.66469C7.11357 4.68578 7.1739 4.73088 7.21393 4.79206C7.25397 4.85324 7.27114 4.92658 7.26244 4.99917Z" fill="#F1F2F2"/>
<path d="M9.28531 15.0471C9.2814 15.1243 9.2489 15.1972 9.19416 15.2516C9.13942 15.3061 9.06635 15.3382 8.98921 15.3417C8.91207 15.3453 8.83638 15.3199 8.7769 15.2707C8.71741 15.2214 8.6784 15.1518 8.66747 15.0754C8.60745 14.7576 8.55449 14.4469 8.50859 14.1363C8.50136 14.056 8.52522 13.9761 8.57523 13.9129C8.62525 13.8498 8.6976 13.8083 8.77735 13.7969C8.8571 13.7856 8.93816 13.8054 9.00378 13.8521C9.0694 13.8988 9.11457 13.9689 9.12997 14.048C9.17233 14.3481 9.22529 14.6517 9.28178 14.9589C9.28817 14.9878 9.28937 15.0177 9.28531 15.0471Z" fill="#F1F2F2"/>
<path d="M7.13542 6.56673C7.13171 6.59686 7.12461 6.62647 7.11424 6.65499C7.00479 6.93391 6.90241 7.22694 6.81414 7.51997C6.78933 7.59956 6.73392 7.66604 6.66009 7.70477C6.58627 7.7435 6.50008 7.75132 6.42049 7.72651C6.3409 7.7017 6.27443 7.64628 6.23569 7.57246C6.19696 7.49863 6.18914 7.41245 6.21395 7.33286C6.30928 7.0257 6.41519 6.72207 6.5317 6.42551C6.56238 6.34846 6.62228 6.28666 6.69834 6.2536C6.77439 6.22053 6.86044 6.21887 6.93771 6.24898C7.00005 6.27421 7.05278 6.31856 7.08831 6.37566C7.12384 6.43276 7.14033 6.49966 7.13542 6.56673Z" fill="#F1F2F2"/>
<path d="M8.51566 13.6349C8.51022 13.7069 8.47965 13.7746 8.4293 13.8262C8.37895 13.8779 8.31203 13.9101 8.24028 13.9174C8.19877 13.9223 8.1567 13.919 8.11648 13.9076C8.07626 13.8963 8.03868 13.8771 8.00588 13.8512C7.97309 13.8253 7.94572 13.7932 7.92536 13.7567C7.905 13.7202 7.89204 13.68 7.88722 13.6385C7.85192 13.3243 7.82367 13.003 7.80249 12.6888C7.80438 12.6101 7.83569 12.5351 7.89024 12.4784C7.94479 12.4217 8.01862 12.3876 8.09713 12.3827C8.17564 12.3778 8.25312 12.4026 8.31427 12.452C8.37542 12.5015 8.41579 12.5721 8.42739 12.6499C8.44858 12.9536 8.47682 13.2642 8.5086 13.5679C8.51452 13.5897 8.5169 13.6124 8.51566 13.6349Z" fill="#F1F2F2"/>
<path d="M7.19889 8.14143C7.20088 8.15785 7.20088 8.17444 7.19889 8.19086C7.12475 8.48389 7.0612 8.78752 7.00471 9.08761C6.99004 9.16712 6.94496 9.23778 6.87904 9.28458C6.81312 9.33138 6.73155 9.35065 6.65166 9.33828C6.57233 9.3228 6.50189 9.27767 6.45466 9.21208C6.40744 9.14649 6.38698 9.06537 6.39746 8.98523C6.45748 8.67101 6.52456 8.35326 6.60223 8.04611C6.62383 7.9662 6.67576 7.89787 6.74698 7.85567C6.81819 7.81347 6.90306 7.80073 6.98353 7.82015C7.05011 7.84202 7.10748 7.88551 7.1465 7.94373C7.18552 8.00194 7.20396 8.07153 7.19889 8.14143Z" fill="#F1F2F2"/>
<path d="M7.86612 12.1591C7.8579 12.2363 7.82145 12.3077 7.76376 12.3595C7.70607 12.4114 7.63124 12.4401 7.55366 12.4401C7.47609 12.4401 7.40125 12.4114 7.34357 12.3595C7.28588 12.3077 7.24942 12.2363 7.24121 12.1591C7.24121 11.8379 7.24121 11.5166 7.24121 11.2024C7.24212 11.1613 7.25118 11.1207 7.26787 11.0832C7.28456 11.0456 7.30854 11.0117 7.33842 10.9834C7.36831 10.9552 7.4035 10.9332 7.44197 10.9186C7.48043 10.9041 7.52139 10.8973 7.56249 10.8987C7.60374 10.8992 7.64449 10.9079 7.68229 10.9244C7.7201 10.941 7.75419 10.9649 7.78252 10.9949C7.81086 11.0249 7.83287 11.0603 7.84723 11.099C7.86159 11.1376 7.86801 11.1788 7.86612 11.22C7.86612 11.5236 7.86612 11.8308 7.86612 12.1415V12.1591Z" fill="#F1F2F2"/>
<path d="M7.44613 9.6984C7.40376 9.9985 7.37198 10.3057 7.3508 10.6128C7.34359 10.6952 7.30452 10.7716 7.24188 10.8257C7.17925 10.8797 7.098 10.9072 7.0154 10.9023C6.97277 10.8993 6.93121 10.8876 6.89325 10.868C6.85529 10.8483 6.82173 10.8212 6.79463 10.7881C6.76753 10.7551 6.74746 10.7168 6.73564 10.6758C6.72382 10.6347 6.72051 10.5917 6.7259 10.5493C6.75061 10.228 6.78239 9.91024 6.82475 9.59602C6.83702 9.5141 6.88079 9.44021 6.94673 9.39009C7.01268 9.33997 7.09559 9.31758 7.17781 9.3277C7.22053 9.33269 7.26176 9.34651 7.29887 9.36827C7.33598 9.39003 7.36817 9.41926 7.39339 9.45411C7.41862 9.48896 7.43633 9.52867 7.4454 9.57072C7.45448 9.61277 7.45473 9.65625 7.44613 9.6984Z" fill="#F1F2F2"/>
<path d="M33.4414 29.4023L33.0884 29.8506C32.7812 29.8224 32.4741 29.7871 32.1705 29.7412C32.1298 29.7356 32.0907 29.7219 32.0553 29.7011C32.02 29.6803 31.9891 29.6527 31.9645 29.6198C31.9399 29.587 31.922 29.5496 31.9119 29.5099C31.9018 29.4701 31.8997 29.4287 31.9057 29.3881C31.9179 29.3065 31.9618 29.2329 32.0279 29.1833C32.094 29.1338 32.1769 29.1122 32.2587 29.1233C32.5588 29.1657 32.866 29.2045 33.1731 29.2328C33.2292 29.2331 33.2841 29.2492 33.3315 29.2792C33.3789 29.3091 33.417 29.3518 33.4414 29.4023Z" fill="#F1F2F2"/>
<path d="M31.9021 29.9107C31.9038 29.92 31.9038 29.9296 31.9021 29.9389C31.8874 30.0184 31.8423 30.0891 31.7764 30.1359C31.7105 30.1827 31.6289 30.2019 31.549 30.1896C31.2383 30.1331 30.9206 30.066 30.6134 29.9919C30.5719 29.9847 30.5323 29.9693 30.4969 29.9463C30.4615 29.9234 30.4312 29.8935 30.4078 29.8585C30.3843 29.8235 30.3683 29.7841 30.3605 29.7427C30.3528 29.7013 30.3535 29.6587 30.3628 29.6176C30.382 29.5367 30.4326 29.4667 30.5035 29.423C30.5743 29.3793 30.6595 29.3655 30.7405 29.3846C31.0406 29.4552 31.3407 29.5188 31.6443 29.5753C31.7213 29.589 31.7904 29.6311 31.8381 29.6931C31.8858 29.7551 31.9086 29.8327 31.9021 29.9107Z" fill="#F1F2F2"/>
<path d="M30.3026 30.1048C30.3056 30.1235 30.3056 30.1426 30.3026 30.1613C30.2916 30.2008 30.2729 30.2377 30.2476 30.27C30.2222 30.3022 30.1908 30.3291 30.155 30.3491C30.1192 30.3691 30.0798 30.3819 30.0391 30.3866C29.9984 30.3913 29.9572 30.388 29.9177 30.3767C29.6141 30.2919 29.307 30.1966 29.0033 30.0942C28.9646 30.0811 28.9288 30.0604 28.898 30.0334C28.8672 30.0064 28.8421 29.9736 28.824 29.9369C28.806 29.9001 28.7954 29.8602 28.7928 29.8193C28.7903 29.7785 28.7958 29.7375 28.8092 29.6988C28.8357 29.6204 28.8922 29.5557 28.9662 29.5186C29.0403 29.4816 29.1259 29.4753 29.2046 29.5011C29.4976 29.5999 29.7942 29.6917 30.0872 29.7729C30.1557 29.7952 30.2145 29.8403 30.2537 29.9007C30.2929 29.9611 30.3101 30.0332 30.3026 30.1048Z" fill="#F1F2F2"/>
<path d="M28.6964 30.1508C28.6984 30.1778 28.6984 30.205 28.6964 30.232C28.6663 30.3097 28.6069 30.3725 28.531 30.4069C28.455 30.4412 28.3686 30.4443 28.2904 30.4156C27.9938 30.3026 27.6973 30.179 27.4078 30.0625C27.37 30.0461 27.3359 30.0223 27.3074 29.9925C27.279 29.9628 27.2567 29.9277 27.2419 29.8892C27.2271 29.8508 27.2201 29.8098 27.2213 29.7686C27.2225 29.7275 27.2319 29.687 27.2489 29.6494C27.2836 29.5745 27.3461 29.5159 27.4232 29.4863C27.5003 29.4566 27.586 29.4582 27.662 29.4906C27.9409 29.6177 28.2269 29.7342 28.5128 29.8436C28.571 29.8701 28.6198 29.9136 28.6526 29.9685C28.6854 30.0234 28.7007 30.087 28.6964 30.1508Z" fill="#F1F2F2"/>
<path d="M27.0899 30.0484C27.0855 30.086 27.076 30.1228 27.0616 30.1578C27.0244 30.2321 26.9596 30.2888 26.8811 30.3159C26.8026 30.3429 26.7166 30.3382 26.6415 30.3026C26.3591 30.1649 26.0731 30.0166 25.7942 29.8577C25.7581 29.8382 25.7262 29.8117 25.7005 29.7796C25.6749 29.7476 25.6559 29.7108 25.6447 29.6713C25.6335 29.6318 25.6303 29.5904 25.6354 29.5497C25.6405 29.5089 25.6536 29.4696 25.6741 29.4341C25.7143 29.3619 25.7813 29.3085 25.8606 29.2854C25.9399 29.2623 26.0251 29.2713 26.0978 29.3105C26.3696 29.4623 26.645 29.6071 26.9169 29.7377C26.9737 29.766 27.0207 29.8108 27.0516 29.8662C27.0824 29.9217 27.0958 29.9852 27.0899 30.0484Z" fill="#F1F2F2"/>
<path d="M25.4977 29.8048C25.4935 29.8579 25.4758 29.909 25.4461 29.9533C25.4165 29.9976 25.376 30.0335 25.3285 30.0576C25.281 30.0817 25.2281 30.0932 25.1749 30.091C25.1216 30.0887 25.0699 30.0728 25.0246 30.0448C24.7562 29.8824 24.4844 29.7094 24.2196 29.5294C24.1511 29.4828 24.1037 29.411 24.0878 29.3297C24.072 29.2484 24.0889 29.1641 24.1349 29.0951C24.1576 29.0608 24.187 29.0314 24.2212 29.0085C24.2554 28.9856 24.2939 28.9698 24.3343 28.9619C24.3747 28.954 24.4162 28.9543 24.4566 28.9626C24.4969 28.9709 24.5351 28.9872 24.5691 29.0104C24.8269 29.1834 25.0881 29.3634 25.3494 29.5082C25.3996 29.5386 25.4401 29.5826 25.4664 29.635C25.4926 29.6875 25.5035 29.7464 25.4977 29.8048Z" fill="#F1F2F2"/>
<path d="M23.9337 29.4234C23.9264 29.4792 23.9058 29.5325 23.8737 29.5787C23.8244 29.6455 23.7506 29.69 23.6686 29.7025C23.5866 29.7151 23.5029 29.6947 23.4359 29.6458C23.1817 29.4622 22.9275 29.268 22.6768 29.0668C22.6344 29.0102 22.6123 28.9409 22.6141 28.8701C22.616 28.7994 22.6416 28.7313 22.687 28.677C22.7323 28.6226 22.7947 28.5852 22.864 28.5707C22.9333 28.5563 23.0054 28.5656 23.0687 28.5972C23.3123 28.7914 23.5595 28.9785 23.8031 29.1586C23.8444 29.1891 23.8779 29.229 23.9006 29.2751C23.9233 29.3212 23.9347 29.372 23.9337 29.4234Z" fill="#F1F2F2"/>
<path d="M22.4049 28.9151C22.4009 28.9806 22.3747 29.0429 22.3307 29.0916C22.2762 29.154 22.1992 29.1924 22.1166 29.1983C22.0339 29.2043 21.9523 29.1773 21.8894 29.1234C21.654 28.9186 21.4187 28.7068 21.1833 28.4879C21.1253 28.4291 21.0928 28.3498 21.0928 28.2672C21.0928 28.1846 21.1253 28.1054 21.1833 28.0466C21.2122 28.0174 21.2465 27.9943 21.2844 27.9785C21.3223 27.9627 21.3629 27.9546 21.4039 27.9546C21.445 27.9546 21.4856 27.9627 21.5235 27.9785C21.5613 27.9943 21.5957 28.0174 21.6246 28.0466C21.8541 28.2584 22.0836 28.4632 22.3307 28.6644C22.3607 28.6982 22.383 28.7381 22.3958 28.7815C22.4086 28.8248 22.4117 28.8704 22.4049 28.9151Z" fill="#F1F2F2"/>
<path d="M20.922 28.2902C20.9174 28.3635 20.886 28.4326 20.8337 28.4844C20.8049 28.5135 20.7705 28.5366 20.7326 28.5524C20.6947 28.5682 20.6541 28.5763 20.6131 28.5763C20.5721 28.5763 20.5314 28.5682 20.4936 28.5524C20.4557 28.5366 20.4213 28.5135 20.3924 28.4844C20.1665 28.2619 19.9476 28.0324 19.7287 27.7994C19.6995 27.7705 19.6764 27.7362 19.6606 27.6983C19.6448 27.6604 19.6367 27.6198 19.6367 27.5788C19.6367 27.5377 19.6448 27.4971 19.6606 27.4592C19.6764 27.4214 19.6995 27.387 19.7287 27.3581C19.7904 27.3022 19.8715 27.2727 19.9547 27.276C20.0379 27.2793 20.1165 27.3151 20.1735 27.3758C20.3818 27.6017 20.5972 27.8241 20.8161 28.043C20.8518 28.0732 20.8799 28.1112 20.8983 28.1541C20.9167 28.197 20.9248 28.2436 20.922 28.2902Z" fill="#F1F2F2"/>
<path d="M19.4921 27.5628C19.4874 27.6243 19.4644 27.683 19.4263 27.7314C19.3881 27.7798 19.3364 27.8157 19.2777 27.8347C19.219 27.8536 19.156 27.8546 19.0968 27.8377C19.0375 27.8207 18.9846 27.7865 18.9448 27.7393C18.7365 27.5028 18.5318 27.2592 18.3305 27.0121C18.3018 26.9804 18.2799 26.9433 18.266 26.9028C18.2522 26.8624 18.2467 26.8196 18.2499 26.777C18.2532 26.7344 18.2651 26.6929 18.2849 26.6551C18.3047 26.6173 18.3321 26.5839 18.3652 26.5569C18.3984 26.53 18.4367 26.5101 18.4778 26.4985C18.5189 26.4869 18.562 26.4838 18.6043 26.4894C18.6467 26.495 18.6875 26.5091 18.7242 26.531C18.7608 26.5529 18.7927 26.582 18.8177 26.6166C19.0155 26.8602 19.2132 27.0968 19.4144 27.3227C19.4438 27.3548 19.466 27.3929 19.4794 27.4343C19.4928 27.4757 19.4971 27.5196 19.4921 27.5628Z" fill="#F1F2F2"/>
<path d="M18.1116 26.7403C18.1057 26.803 18.081 26.8625 18.0408 26.911C18.0006 26.9595 17.9467 26.9948 17.8862 27.0123C17.8257 27.0298 17.7613 27.0287 17.7014 27.0092C17.6415 26.9896 17.5888 26.9525 17.5503 26.9027C17.3596 26.652 17.169 26.3978 16.9854 26.1401C16.952 26.0724 16.944 25.995 16.963 25.9219C16.9819 25.8488 17.0266 25.7851 17.0887 25.7422C17.1508 25.6993 17.2263 25.6803 17.3014 25.6885C17.3764 25.6968 17.446 25.7317 17.4973 25.787C17.6774 26.0412 17.8504 26.2884 18.0481 26.532C18.0932 26.5918 18.1157 26.6655 18.1116 26.7403Z" fill="#F1F2F2"/>
<path d="M16.7843 25.8364C16.7809 25.8828 16.7667 25.9277 16.7428 25.9676C16.7189 26.0074 16.6859 26.0411 16.6466 26.0659C16.6126 26.0891 16.5743 26.1054 16.534 26.1137C16.4937 26.122 16.4521 26.1223 16.4117 26.1144C16.3713 26.1065 16.3329 26.0907 16.2986 26.0678C16.2644 26.0449 16.2351 26.0155 16.2123 25.9812C16.0358 25.7199 15.8593 25.4551 15.6969 25.1868C15.6747 25.1523 15.6595 25.1138 15.6523 25.0734C15.6451 25.033 15.6459 24.9916 15.6548 24.9516C15.6637 24.9115 15.6804 24.8737 15.7039 24.8401C15.7275 24.8065 15.7575 24.778 15.7922 24.7561C15.8277 24.7317 15.8678 24.7149 15.91 24.7066C15.9523 24.6984 15.9958 24.6989 16.0378 24.7082C16.0799 24.7174 16.1196 24.7353 16.1544 24.7605C16.1893 24.7857 16.2186 24.8179 16.2406 24.8549C16.4065 25.1162 16.576 25.3775 16.7454 25.6317C16.7816 25.6934 16.7953 25.7657 16.7843 25.8364Z" fill="#F1F2F2"/>
<path d="M15.5132 24.8549C15.5094 24.9043 15.4936 24.9519 15.4671 24.9938C15.4407 25.0356 15.4044 25.0704 15.3614 25.095C15.3264 25.1161 15.2876 25.1302 15.2472 25.1363C15.2068 25.1425 15.1655 25.1406 15.1258 25.1307C15.0862 25.1209 15.0488 25.1033 15.0159 25.079C14.983 25.0547 14.9553 25.0241 14.9342 24.9891C14.7718 24.7172 14.613 24.4454 14.4576 24.1664C14.4376 24.1303 14.425 24.0906 14.4204 24.0495C14.4158 24.0085 14.4194 23.9669 14.4308 23.9272C14.4423 23.8876 14.4615 23.8505 14.4873 23.8183C14.5131 23.786 14.545 23.7592 14.5812 23.7393C14.6171 23.7194 14.6565 23.7068 14.6973 23.7022C14.7381 23.6977 14.7794 23.7013 14.8188 23.7127C14.8582 23.7242 14.8949 23.7434 14.9268 23.7692C14.9588 23.7949 14.9853 23.8268 15.0048 23.8628C15.1555 24.1358 15.3108 24.4042 15.4709 24.6678C15.5056 24.7236 15.5205 24.7895 15.5132 24.8549Z" fill="#F1F2F2"/>
<path d="M14.2953 23.8099C14.2912 23.8614 14.2742 23.9111 14.2458 23.9543C14.2174 23.9975 14.1786 24.0328 14.1329 24.057C14.0593 24.0957 13.9735 24.1036 13.8941 24.0791C13.8147 24.0547 13.7482 23.9997 13.7092 23.9264C13.5609 23.651 13.4162 23.3685 13.275 23.0826C13.2391 23.0079 13.2338 22.9223 13.2602 22.8438C13.2866 22.7653 13.3425 22.7003 13.4162 22.6624C13.453 22.6444 13.493 22.6339 13.534 22.6314C13.5749 22.629 13.6159 22.6346 13.6546 22.6481C13.6933 22.6615 13.729 22.6825 13.7596 22.7098C13.7902 22.7371 13.815 22.7702 13.8328 22.8072C13.974 23.0873 14.1152 23.3627 14.2564 23.6333C14.2881 23.6864 14.3018 23.7484 14.2953 23.8099Z" fill="#F1F2F2"/>
<path d="M13.1338 22.7013C13.1274 22.7698 13.0987 22.8344 13.0521 22.885C13.0055 22.9357 12.9436 22.9696 12.8758 22.9817C12.808 22.9937 12.7382 22.9831 12.677 22.9516C12.6158 22.9201 12.5667 22.8694 12.5371 22.8072C12.4065 22.5247 12.2758 22.2352 12.1487 21.9457C12.1167 21.8698 12.1158 21.7843 12.1462 21.7077C12.1765 21.6311 12.2358 21.5695 12.3112 21.5362C12.3487 21.5199 12.3891 21.5111 12.43 21.5104C12.471 21.5097 12.5116 21.5172 12.5497 21.5323C12.5877 21.5473 12.6224 21.5698 12.6518 21.5984C12.6811 21.6269 12.7046 21.661 12.7207 21.6986C12.8478 21.9846 12.9749 22.267 13.1055 22.5459C13.1279 22.5945 13.1376 22.6479 13.1338 22.7013Z" fill="#F1F2F2"/>
<path d="M12.0251 21.5362C12.0196 21.6066 11.9905 21.6731 11.9426 21.725C11.8946 21.7768 11.8306 21.811 11.7609 21.822C11.6911 21.833 11.6197 21.8202 11.5581 21.7857C11.4965 21.7511 11.4483 21.6968 11.4214 21.6315C11.3014 21.342 11.1848 21.0454 11.0683 20.7524C11.0384 20.6747 11.0406 20.5883 11.0743 20.5121C11.1081 20.436 11.1707 20.3764 11.2484 20.3464C11.2866 20.3316 11.3274 20.3246 11.3684 20.3257C11.4094 20.3267 11.4497 20.3359 11.4871 20.3526C11.5245 20.3694 11.5583 20.3934 11.5864 20.4232C11.6145 20.453 11.6364 20.4881 11.6509 20.5264C11.7639 20.816 11.8804 21.1055 12.0039 21.3914C12.0228 21.4372 12.0301 21.4869 12.0251 21.5362Z" fill="#F1F2F2"/>
<path d="M10.966 20.3394C10.958 20.4088 10.9271 20.4736 10.8781 20.5235C10.8292 20.5734 10.765 20.6055 10.6957 20.6149C10.6265 20.6242 10.5561 20.6101 10.4957 20.5749C10.4353 20.5398 10.3883 20.4854 10.3623 20.4206C10.2528 20.124 10.1469 19.8275 10.0445 19.5274C10.0194 19.4487 10.0255 19.3633 10.0617 19.289C10.0979 19.2147 10.1613 19.1572 10.2387 19.1284C10.3174 19.1026 10.403 19.1089 10.4771 19.146C10.5511 19.183 10.6076 19.2477 10.6341 19.3261C10.7365 19.6227 10.8389 19.9157 10.9448 20.2052C10.962 20.2477 10.9693 20.2936 10.966 20.3394Z" fill="#F1F2F2"/>
<path d="M9.95979 19.0931C9.95432 19.154 9.93096 19.212 9.89264 19.2598C9.85433 19.3075 9.80277 19.3429 9.74443 19.3614C9.6653 19.387 9.57925 19.3802 9.50513 19.3425C9.43101 19.3048 9.37487 19.2392 9.34901 19.1602C9.25015 18.853 9.16189 18.5494 9.07363 18.2493C9.05721 18.1712 9.07107 18.0899 9.1124 18.0217C9.15372 17.9535 9.21943 17.9036 9.29619 17.8821C9.37296 17.8605 9.45505 17.8689 9.52582 17.9057C9.59659 17.9424 9.65076 18.0046 9.67735 18.0798C9.76208 18.3728 9.85035 18.6694 9.94567 18.9695C9.95927 19.0092 9.96409 19.0513 9.95979 19.0931Z" fill="#F1F2F2"/>
<path d="M6.44339 4.84733C6.4397 4.90177 6.42141 4.95422 6.39043 4.99914C6.2139 5.24981 6.03738 5.50754 5.8891 5.7688C5.84998 5.83423 5.78842 5.88321 5.71587 5.90661C5.64332 5.93002 5.56474 5.92625 5.49476 5.89602C5.42478 5.86578 5.36818 5.81113 5.33551 5.74226C5.30283 5.67339 5.29631 5.59499 5.31715 5.52166L6.32335 4.5896C6.36287 4.6195 6.39448 4.65862 6.4154 4.70355C6.43633 4.74847 6.44593 4.79783 6.44339 4.84733Z" fill="#F1F2F2"/>
<path d="M9.01346 17.7939C9.0076 17.8582 8.9821 17.9191 8.94041 17.9684C8.89872 18.0176 8.84286 18.0529 8.78044 18.0693C8.74056 18.0799 8.69897 18.0824 8.65811 18.0767C8.61724 18.0711 8.57791 18.0573 8.54242 18.0363C8.50692 18.0152 8.47597 17.9873 8.45137 17.9542C8.42677 17.9211 8.40902 17.8834 8.39915 17.8433C8.31794 17.5326 8.2438 17.2255 8.17672 16.9183C8.15992 16.8374 8.17571 16.7531 8.22064 16.6837C8.26558 16.6143 8.33606 16.5654 8.4168 16.5476C8.4567 16.5383 8.49806 16.537 8.53846 16.5439C8.57885 16.5508 8.61746 16.5657 8.652 16.5878C8.68655 16.6098 8.71633 16.6386 8.7396 16.6723C8.76288 16.706 8.77916 16.7441 8.7875 16.7842C8.85458 17.0807 8.92519 17.3844 9.00287 17.688C9.01334 17.7223 9.01694 17.7583 9.01346 17.7939Z" fill="#F1F2F2"/>
<path d="M6.12566 6.3937C6.12267 6.43579 6.11063 6.47674 6.09036 6.51374C5.94561 6.78559 5.80792 7.06097 5.68435 7.33636C5.64717 7.40732 5.58428 7.46141 5.50855 7.48755C5.43282 7.5137 5.34997 7.50992 5.27692 7.47701C5.20388 7.4441 5.14617 7.38452 5.11559 7.31047C5.08501 7.23642 5.08387 7.15349 5.1124 7.07863C5.24303 6.78912 5.38778 6.49962 5.53959 6.21718C5.57243 6.15185 5.62725 6.1002 5.69442 6.07131C5.76158 6.04241 5.83678 6.03814 5.90679 6.05922C5.9768 6.08031 6.03713 6.12541 6.07716 6.18659C6.1172 6.24777 6.13437 6.32111 6.12566 6.3937Z" fill="#F1F2F2"/>
<path d="M8.14853 16.4417C8.14116 16.5169 8.10694 16.5869 8.05212 16.6389C7.9973 16.691 7.92557 16.7215 7.85008 16.7249C7.77458 16.7284 7.70038 16.7045 7.64107 16.6576C7.58176 16.6108 7.54132 16.5441 7.52716 16.4699C7.46714 16.1522 7.41418 15.8415 7.36828 15.5308C7.35893 15.4497 7.38148 15.3682 7.43117 15.3034C7.48085 15.2387 7.55378 15.1958 7.63451 15.1839C7.71524 15.172 7.79744 15.1919 7.86373 15.2395C7.93001 15.2872 7.97517 15.3587 7.98966 15.439C8.03202 15.7426 8.08498 16.0462 8.14147 16.3534C8.14731 16.3824 8.14968 16.4121 8.14853 16.4417Z" fill="#F1F2F2"/>
<path d="M6.00212 7.96126C6.00049 7.99173 5.99331 8.02164 5.98094 8.04953C5.87149 8.33197 5.76911 8.625 5.68084 8.91451C5.65603 8.9941 5.60062 9.06057 5.52679 9.0993C5.45297 9.13804 5.36678 9.14586 5.28719 9.12104C5.2076 9.09623 5.14113 9.04081 5.10239 8.96699C5.06366 8.89317 5.05584 8.80698 5.08065 8.72739C5.17598 8.42376 5.28189 8.11661 5.3984 7.82004C5.42908 7.74299 5.48898 7.6812 5.56504 7.64813C5.64109 7.61506 5.72714 7.6134 5.80441 7.64351C5.86777 7.6673 5.92149 7.71134 5.95725 7.7688C5.993 7.82626 6.00877 7.89392 6.00212 7.96126Z" fill="#F1F2F2"/>
<path d="M7.37528 15.0295C7.36984 15.1014 7.33927 15.1691 7.28892 15.2207C7.23857 15.2724 7.17165 15.3047 7.0999 15.3119C7.05858 15.3173 7.0166 15.3145 6.9764 15.3036C6.9362 15.2926 6.89857 15.2738 6.86572 15.2481C6.83286 15.2225 6.80543 15.1906 6.78503 15.1543C6.76462 15.118 6.75164 15.0779 6.74684 15.0365C6.71154 14.7153 6.67976 14.3975 6.66211 14.0833C6.664 14.0047 6.69531 13.9296 6.74986 13.8729C6.80441 13.8162 6.87824 13.7821 6.95675 13.7772C7.03526 13.7723 7.11274 13.7971 7.17389 13.8466C7.23504 13.896 7.27541 13.9667 7.28701 14.0445C7.30467 14.3481 7.33291 14.6552 7.36822 14.9659C7.37413 14.9866 7.37652 15.008 7.37528 15.0295Z" fill="#F1F2F2"/>
<path d="M6.05863 9.53237V9.5818C5.98449 9.87836 5.91741 10.1785 5.86092 10.4786C5.8535 10.5189 5.83821 10.5574 5.81592 10.5918C5.79363 10.6262 5.76478 10.6559 5.73101 10.6792C5.69724 10.7025 5.65922 10.7189 5.61912 10.7275C5.57901 10.736 5.53761 10.7366 5.49727 10.7292C5.45694 10.7218 5.41846 10.7065 5.38403 10.6842C5.3496 10.6619 5.3199 10.6331 5.29663 10.5993C5.27335 10.5655 5.25695 10.5275 5.24837 10.4874C5.23979 10.4473 5.23919 10.4059 5.24661 10.3656C5.30309 10.0514 5.37371 9.73361 5.45138 9.42646C5.47032 9.34926 5.51782 9.28212 5.58429 9.23855C5.65077 9.19498 5.73129 9.17822 5.80963 9.19165C5.88797 9.20508 5.95831 9.2477 6.00648 9.31093C6.05465 9.37415 6.07707 9.45328 6.06922 9.53237H6.05863Z" fill="#F1F2F2"/>
<path d="M6.70816 13.5572C6.69772 13.6344 6.659 13.7049 6.5995 13.7552C6.54 13.8054 6.46396 13.8318 6.38613 13.8291C6.30829 13.8265 6.23422 13.795 6.17825 13.7409C6.12229 13.6867 6.08844 13.6137 6.08325 13.536C6.08325 13.2147 6.08325 12.8934 6.08325 12.5792C6.08692 12.4962 6.12299 12.4179 6.18371 12.3611C6.24442 12.3044 6.32497 12.2737 6.40806 12.2756C6.44917 12.2765 6.48969 12.2856 6.52727 12.3023C6.56485 12.3189 6.59875 12.3429 6.62699 12.3728C6.65523 12.4027 6.67726 12.4379 6.6918 12.4764C6.70634 12.5148 6.7131 12.5558 6.71169 12.5969C6.71169 12.9005 6.71169 13.2077 6.71169 13.5183C6.71227 13.5314 6.71108 13.5445 6.70816 13.5572Z" fill="#F1F2F2"/>
<path d="M6.30571 11.0929C6.26687 11.393 6.2351 11.7001 6.21038 12.0073C6.20769 12.0481 6.19696 12.088 6.17881 12.1247C6.16066 12.1614 6.13544 12.1941 6.1046 12.221C6.07377 12.2479 6.03792 12.2684 5.99912 12.2814C5.96032 12.2945 5.91933 12.2997 5.87851 12.2968C5.83722 12.2941 5.79686 12.2833 5.75975 12.2649C5.72265 12.2466 5.68954 12.2211 5.66231 12.19C5.63508 12.1588 5.61428 12.1226 5.60109 12.0833C5.58791 12.0441 5.5826 12.0027 5.58548 11.9614C5.61019 11.6401 5.64197 11.3224 5.68786 11.0081C5.70426 10.9319 5.74842 10.8645 5.81175 10.819C5.87508 10.7735 5.95306 10.7532 6.03053 10.762C6.108 10.7708 6.17944 10.8081 6.23095 10.8667C6.28245 10.9252 6.31036 11.0008 6.30924 11.0788L6.30571 11.0929Z" fill="#F1F2F2"/>
<path d="M3.37521 16.8159C3.37687 16.8054 3.37687 16.7947 3.37521 16.7841C3.23046 16.3993 3.09983 16.0074 2.99039 15.6226C2.96264 15.5499 2.90892 15.4901 2.83961 15.4547C2.7703 15.4194 2.69033 15.411 2.61519 15.4312C2.54005 15.4514 2.47509 15.4988 2.43287 15.5641C2.39065 15.6295 2.37419 15.7082 2.38666 15.785C2.50317 16.1875 2.63733 16.5935 2.78915 16.9995C2.81443 17.0782 2.86992 17.1436 2.94341 17.1813C3.01691 17.219 3.10238 17.226 3.18103 17.2007C3.25969 17.1755 3.32508 17.12 3.36282 17.0465C3.40056 16.973 3.40756 16.8875 3.38227 16.8089L3.37521 16.8159ZM2.53848 13.2218V13.1689C2.51969 13.0977 2.47653 13.0355 2.41653 12.9929C2.35653 12.9503 2.28349 12.9301 2.21014 12.9359C2.13209 12.9437 2.05971 12.9801 2.00691 13.0381C1.95412 13.0962 1.92464 13.1716 1.92416 13.2501V13.2748C1.92416 13.3313 1.92416 13.3807 1.92416 13.4372C1.95947 13.7903 2.01243 14.1786 2.07951 14.5423C2.08716 14.5828 2.10272 14.6215 2.12532 14.656C2.14791 14.6906 2.17709 14.7204 2.21118 14.7436C2.24528 14.7669 2.28362 14.7832 2.32403 14.7917C2.36444 14.8002 2.40612 14.8006 2.44668 14.7929C2.48725 14.7853 2.52592 14.7697 2.56047 14.7471C2.59502 14.7245 2.62479 14.6953 2.64806 14.6613C2.67134 14.6272 2.68767 14.5888 2.69613 14.5484C2.70459 14.508 2.705 14.4663 2.69735 14.4257C2.62354 14.0275 2.57051 13.6256 2.53848 13.2218ZM4.42731 19.0861C4.42047 19.0616 4.411 19.0379 4.39907 19.0154C4.19783 18.6624 4.01071 18.2811 3.84478 17.9174C3.82923 17.8773 3.80561 17.8409 3.77539 17.8103C3.74517 17.7797 3.70898 17.7556 3.66908 17.7395C3.62918 17.7235 3.58641 17.7158 3.54341 17.7169C3.50042 17.7181 3.45811 17.7281 3.41913 17.7462C3.38014 17.7644 3.34529 17.7904 3.31675 17.8225C3.28821 17.8547 3.26658 17.8924 3.25319 17.9333C3.23981 17.9741 3.23496 18.0173 3.23894 18.0602C3.24293 18.103 3.25566 18.1445 3.27636 18.1822C3.44936 18.5565 3.62941 18.9378 3.84831 19.3191C3.88519 19.3866 3.94559 19.4383 4.01806 19.4643C4.09052 19.4903 4.17001 19.4888 4.24142 19.46C4.31284 19.4313 4.37122 19.3773 4.40548 19.3084C4.43975 19.2395 4.44752 19.1603 4.42731 19.0861ZM2.56672 10.6728C2.5474 10.603 2.50456 10.542 2.44543 10.5001C2.3863 10.4583 2.31453 10.4381 2.24226 10.4431C2.17 10.4481 2.10167 10.4779 2.04885 10.5275C1.99603 10.577 1.96196 10.6433 1.95241 10.7152C1.90298 11.1388 1.87474 11.5695 1.86768 11.9932C1.87589 12.0704 1.91235 12.1417 1.97003 12.1936C2.02772 12.2455 2.10255 12.2742 2.18013 12.2742C2.25771 12.2742 2.33254 12.2455 2.39023 12.1936C2.44791 12.1417 2.48437 12.0704 2.49258 11.9932C2.49258 11.5907 2.52789 11.1812 2.57378 10.7787C2.57891 10.7433 2.5765 10.7072 2.56672 10.6728ZM5.7442 21.2114C5.73555 21.1758 5.71996 21.1422 5.69831 21.1126C5.45823 20.7595 5.22874 20.4065 5.01691 20.0817C4.97135 20.0144 4.90151 19.9674 4.82205 19.9505C4.74258 19.9336 4.65966 19.9482 4.59069 19.9911C4.52173 20.0341 4.47207 20.102 4.45214 20.1808C4.43221 20.2595 4.44356 20.343 4.4838 20.4135C4.70269 20.7666 4.93924 21.1196 5.18991 21.4727C5.21289 21.5068 5.2425 21.536 5.27698 21.5585C5.31145 21.5809 5.35009 21.5962 5.39059 21.6035C5.4311 21.6107 5.47264 21.6097 5.51277 21.6006C5.55289 21.5915 5.59077 21.5744 5.62416 21.5504C5.67893 21.515 5.72085 21.463 5.74374 21.4019C5.76663 21.3409 5.76927 21.2741 5.75126 21.2114H5.7442ZM3.10689 8.24731C2.91978 8.5227 2.75384 8.80867 2.57025 9.09817C2.45021 9.30294 2.33371 9.50418 2.2172 9.71249C2.26285 9.76927 2.32626 9.80907 2.39726 9.82546C2.47864 9.84234 2.5634 9.82666 2.63336 9.78178C2.70332 9.7369 2.75291 9.6664 2.77149 9.58539C2.85623 9.1935 2.96567 8.79808 3.08924 8.40619C3.10904 8.35572 3.11513 8.3009 3.10689 8.24731ZM7.27292 23.1991C7.26078 23.1556 7.2404 23.1149 7.2129 23.0791C7.01166 22.8355 6.81042 22.5848 6.61271 22.3341L6.43972 22.1082C6.41445 22.0755 6.38299 22.0481 6.34714 22.0276C6.31128 22.0071 6.27174 21.9938 6.23076 21.9885C6.14799 21.978 6.06441 22.0007 5.9984 22.0517C5.93239 22.1027 5.88935 22.1779 5.87876 22.2607C5.86816 22.3434 5.89088 22.427 5.94191 22.493L6.12197 22.719C6.32321 22.9767 6.52445 23.2309 6.72922 23.478C6.78224 23.542 6.85843 23.5824 6.94113 23.5903C7.02384 23.5983 7.10632 23.5731 7.17054 23.5204C7.21708 23.4827 7.25157 23.4322 7.26976 23.3751C7.28795 23.318 7.28905 23.2568 7.27292 23.1991ZM8.92874 25.0668C8.9176 25.0158 8.89184 24.9692 8.8546 24.9326C8.57569 24.6361 8.29325 24.3254 8.01787 24.0147C7.96085 23.9615 7.88608 23.9314 7.8081 23.9302C7.73012 23.9291 7.6545 23.957 7.59594 24.0085C7.53738 24.06 7.50008 24.1314 7.49127 24.2089C7.48247 24.2864 7.5028 24.3644 7.54831 24.4278C7.82722 24.7455 8.11319 25.0597 8.39916 25.3633C8.44743 25.4129 8.51069 25.4451 8.57913 25.455C8.64756 25.4649 8.71736 25.452 8.77769 25.4182C8.83803 25.3844 8.88553 25.3316 8.91284 25.2681C8.94015 25.2046 8.94574 25.1338 8.92874 25.0668ZM10.7117 26.832C10.6955 26.775 10.6637 26.7237 10.6199 26.6838C10.3198 26.4049 10.0161 26.1189 9.72311 25.8294C9.6948 25.7966 9.66003 25.7701 9.62098 25.7515C9.58193 25.7328 9.53945 25.7224 9.4962 25.7209C9.45295 25.7195 9.40986 25.7269 9.36964 25.7429C9.32941 25.7589 9.29291 25.783 9.26243 25.8137C9.23196 25.8444 9.20815 25.8811 9.19251 25.9214C9.17688 25.9618 9.16974 26.0049 9.17156 26.0482C9.17338 26.0914 9.18411 26.1338 9.20308 26.1727C9.22205 26.2116 9.24885 26.2462 9.2818 26.2742C9.58189 26.5708 9.88905 26.8638 10.1997 27.1463C10.2613 27.2015 10.3421 27.2303 10.4247 27.2263C10.5074 27.2224 10.5851 27.186 10.6411 27.1251C10.6767 27.0862 10.7019 27.039 10.7143 26.9877C10.7266 26.9364 10.7257 26.8829 10.7117 26.832ZM12.6252 28.449C12.6097 28.3815 12.5709 28.3215 12.5158 28.2796C12.1945 28.0324 11.8697 27.7676 11.5519 27.4993C11.4878 27.4471 11.4058 27.4219 11.3234 27.4291C11.241 27.4364 11.1646 27.4755 11.1106 27.5382C11.0575 27.6019 11.0317 27.6841 11.039 27.7668C11.0463 27.8495 11.086 27.926 11.1495 27.9795C11.4707 28.2513 11.8026 28.5196 12.1345 28.7738C12.1666 28.7993 12.2035 28.818 12.243 28.8291C12.2824 28.8402 12.3237 28.8434 12.3644 28.8385C12.4051 28.8336 12.4444 28.8207 12.4801 28.8005C12.5157 28.7803 12.5471 28.7532 12.5723 28.7209C12.6005 28.6829 12.6199 28.6391 12.6291 28.5927C12.6382 28.5463 12.6369 28.4984 12.6252 28.4526V28.449ZM14.6729 29.8895C14.6639 29.8515 14.6474 29.8157 14.6244 29.7842C14.6013 29.7526 14.5722 29.726 14.5388 29.7059C14.1857 29.487 13.8327 29.2575 13.5114 28.9998C13.4783 28.9691 13.4391 28.9459 13.3963 28.9317C13.3535 28.9176 13.3081 28.9128 13.2633 28.9177C13.2184 28.9226 13.1752 28.9371 13.1365 28.9602C13.0978 28.9833 13.0645 29.0145 13.0389 29.0516C13.0133 29.0888 12.996 29.131 12.9881 29.1754C12.9803 29.2198 12.9821 29.2653 12.9934 29.309C13.0047 29.3526 13.0253 29.3933 13.0538 29.4283C13.0822 29.4633 13.1179 29.4917 13.1583 29.5117C13.5114 29.7553 13.8644 29.9919 14.2175 30.2178C14.2874 30.2617 14.3718 30.2763 14.4524 30.2585C14.533 30.2406 14.6033 30.1918 14.6482 30.1225C14.6849 30.0518 14.6937 29.9699 14.6729 29.893V29.8895ZM16.8513 31.1252C16.8405 31.0818 16.8203 31.0414 16.7923 31.0066C16.7642 30.9719 16.7289 30.9437 16.6889 30.9239C16.3358 30.7439 15.958 30.5462 15.5979 30.3449C15.5623 30.3242 15.5229 30.3108 15.4821 30.3054C15.4412 30.3001 15.3997 30.3029 15.3599 30.3137C15.3202 30.3246 15.283 30.3432 15.2505 30.3686C15.218 30.3939 15.1909 30.4255 15.1707 30.4614C15.1301 30.534 15.1199 30.6198 15.1425 30.6998C15.165 30.7799 15.2183 30.8478 15.2908 30.8886C15.6438 31.0969 16.0357 31.2982 16.4099 31.4853C16.4631 31.5121 16.5229 31.5231 16.5821 31.5169C16.6413 31.5108 16.6975 31.4877 16.744 31.4505C16.7905 31.4133 16.8253 31.3636 16.8444 31.3071C16.8634 31.2507 16.8658 31.19 16.8513 31.1322V31.1252ZM19.1496 32.1278C19.137 32.0794 19.1127 32.0347 19.0789 31.9978C19.045 31.9609 19.0026 31.9328 18.9555 31.916C18.5706 31.7783 18.1858 31.623 17.808 31.4606C17.7317 31.4274 17.6454 31.4259 17.5679 31.4564C17.4905 31.4868 17.4283 31.5467 17.395 31.623C17.363 31.6998 17.3625 31.7862 17.3935 31.8634C17.4245 31.9407 17.4846 32.0027 17.5609 32.0361C17.9493 32.202 18.3482 32.3609 18.7401 32.5021C18.8183 32.5305 18.9046 32.5268 18.98 32.4917C19.0555 32.4567 19.1139 32.3931 19.1426 32.315C19.1644 32.2548 19.1668 32.1894 19.1496 32.1278ZM21.5539 32.834C21.5391 32.7782 21.5091 32.7276 21.4674 32.6878C21.4257 32.6479 21.3738 32.6203 21.3174 32.608C20.922 32.5197 20.5195 32.4174 20.1241 32.3008C20.0847 32.289 20.0433 32.285 20.0023 32.2893C19.9614 32.2935 19.9217 32.3058 19.8856 32.3255C19.8495 32.3453 19.8176 32.3719 19.7919 32.4041C19.7661 32.4362 19.7471 32.4731 19.7357 32.5127C19.7234 32.5523 19.7192 32.594 19.7234 32.6353C19.7277 32.6766 19.7403 32.7166 19.7604 32.7529C19.7805 32.7892 19.8078 32.821 19.8406 32.8465C19.8733 32.872 19.9109 32.8905 19.9511 32.901C20.3571 33.0211 20.7737 33.127 21.1832 33.2188C21.2233 33.2281 21.2649 33.2294 21.3056 33.2226C21.3462 33.2157 21.385 33.2009 21.4199 33.1789C21.4547 33.1568 21.4848 33.1281 21.5084 33.0944C21.532 33.0606 21.5487 33.0225 21.5575 32.9822C21.5668 32.9331 21.5656 32.8826 21.5539 32.834ZM24.0253 33.2082C24.0076 33.1461 23.9715 33.091 23.9216 33.05C23.8718 33.009 23.8107 32.9841 23.7464 32.9787C23.3404 32.9434 22.9308 32.8975 22.5248 32.834C22.484 32.8277 22.4424 32.8295 22.4023 32.8394C22.3622 32.8492 22.3245 32.8668 22.2912 32.8913C22.2579 32.9157 22.2298 32.9464 22.2084 32.9817C22.187 33.017 22.1727 33.0562 22.1665 33.097C22.1602 33.1378 22.1621 33.1794 22.1719 33.2195C22.1817 33.2596 22.1994 33.2974 22.2238 33.3306C22.2482 33.3639 22.2789 33.392 22.3142 33.4134C22.3495 33.4348 22.3887 33.4491 22.4295 33.4553C22.8496 33.5189 23.2768 33.5683 23.697 33.6001C23.7392 33.606 23.7821 33.6032 23.8232 33.5918C23.8643 33.5804 23.9025 33.5606 23.9356 33.5338C23.9688 33.507 23.996 33.4737 24.0157 33.4359C24.0354 33.3981 24.047 33.3566 24.05 33.3141C24.0508 33.2708 24.0436 33.2277 24.0288 33.187L24.0253 33.2082ZM26.5214 33.2294C26.5034 33.1595 26.4613 33.0981 26.4025 33.0562C26.3438 33.0142 26.2721 32.9943 26.2001 32.9999C25.7941 33.0246 25.381 33.0352 24.9715 33.0317C24.8882 33.0317 24.8082 33.0648 24.7493 33.1237C24.6904 33.1826 24.6573 33.2625 24.6573 33.3459C24.6573 33.4292 24.6904 33.5091 24.7493 33.5681C24.8082 33.627 24.8882 33.6601 24.9715 33.6601C25.3952 33.6601 25.8224 33.6601 26.2425 33.6248C26.3252 33.6193 26.4025 33.5814 26.4574 33.5192C26.5123 33.4571 26.5404 33.3757 26.5355 33.2929C26.5371 33.2666 26.5335 33.2402 26.5249 33.2153L26.5214 33.2294ZM28.9928 32.9116C28.9911 32.9059 28.9911 32.8997 28.9928 32.894C28.972 32.8195 28.9246 32.7552 28.8594 32.7135C28.7943 32.6718 28.7161 32.6556 28.6397 32.668C28.2372 32.7528 27.8312 32.8234 27.4287 32.8763C27.3464 32.8877 27.272 32.9313 27.2217 32.9974C27.1714 33.0636 27.1494 33.147 27.1604 33.2294C27.1652 33.2705 27.1782 33.3103 27.1987 33.3463C27.2192 33.3823 27.2467 33.4138 27.2797 33.4388C27.3127 33.4639 27.3504 33.482 27.3906 33.4922C27.4308 33.5023 27.4726 33.5042 27.5135 33.4977C27.7747 33.4624 28.036 33.42 28.2973 33.3706C28.4561 33.3459 28.615 33.3141 28.7703 33.2823C28.7904 33.279 28.8096 33.2718 28.8268 33.2611C28.8966 33.2334 28.9538 33.1811 28.9876 33.1141C29.0214 33.0471 29.0295 32.9701 29.0104 32.8975L28.9928 32.9116Z" fill="#F1F2F2"/>
<path d="M28.8941 33.3211C28.94 33.3885 28.958 33.4711 28.9441 33.5515C28.9303 33.6319 28.8858 33.7037 28.8199 33.7519L28.541 33.9496C28.3715 34.0696 28.1879 34.1826 28.0326 34.3026C27.9981 34.3258 27.9593 34.342 27.9185 34.3502C27.8777 34.3584 27.8357 34.3584 27.7949 34.3504C27.7125 34.3342 27.6399 34.2859 27.5931 34.2161C27.5462 34.1464 27.529 34.0609 27.5453 33.9784C27.5615 33.896 27.6098 33.8234 27.6796 33.7766C27.8455 33.6707 28.0079 33.5612 28.1703 33.4482C28.2621 33.3847 28.3539 33.3211 28.4421 33.2541C28.5096 33.2055 28.5936 33.1857 28.6756 33.199C28.7577 33.2122 28.8311 33.2574 28.8799 33.3247L28.8941 33.3211Z" fill="#F1F2F2"/>
<path d="M27.3546 33.6848C27.3758 33.7198 27.3898 33.7586 27.3959 33.799C27.4021 33.8395 27.4002 33.8807 27.3903 33.9204C27.3805 33.9601 27.3629 33.9974 27.3386 34.0303C27.3143 34.0632 27.2837 34.091 27.2487 34.112C26.9733 34.2779 26.6944 34.4333 26.4155 34.5816C26.3476 34.5989 26.2758 34.5931 26.2116 34.565C26.1474 34.5368 26.0944 34.488 26.0611 34.4263C26.0278 34.3646 26.0161 34.2936 26.0279 34.2245C26.0396 34.1554 26.0742 34.0922 26.126 34.0449C26.3943 33.9037 26.6661 33.7519 26.9309 33.593C26.9996 33.5501 27.0823 33.5357 27.1614 33.5528C27.2406 33.57 27.3099 33.6173 27.3546 33.6848Z" fill="#F1F2F2"/>
<path d="M25.7906 33.8931C25.8009 33.9072 25.8092 33.9226 25.8153 33.939C25.8333 33.9758 25.8438 34.0158 25.8463 34.0568C25.8487 34.0977 25.8431 34.1387 25.8296 34.1774C25.8162 34.2162 25.7952 34.2518 25.7679 34.2824C25.7406 34.313 25.7075 34.3379 25.6705 34.3556C25.381 34.4933 25.088 34.6239 24.7949 34.7439C24.7213 34.7781 24.6372 34.7821 24.5607 34.755C24.4841 34.728 24.4212 34.672 24.3854 34.5992C24.3547 34.5223 24.3553 34.4365 24.3869 34.36C24.4186 34.2835 24.4788 34.2224 24.5549 34.1896C24.8373 34.0731 25.1233 33.946 25.3987 33.8154C25.4629 33.7809 25.537 33.7698 25.6085 33.784C25.68 33.7981 25.7444 33.8367 25.7906 33.8931Z" fill="#F1F2F2"/>
<path d="M24.2125 33.9884C24.2296 34.0095 24.2427 34.0334 24.2513 34.059C24.2798 34.1372 24.2761 34.2235 24.241 34.299C24.2059 34.3744 24.1423 34.4329 24.0642 34.4615C23.7677 34.571 23.464 34.6734 23.1639 34.7687C23.0839 34.793 22.9974 34.7848 22.9234 34.7458C22.8494 34.7068 22.7937 34.6402 22.7685 34.5604C22.7443 34.4808 22.7526 34.3948 22.7916 34.3214C22.8307 34.2479 22.8973 34.1929 22.9768 34.1685C23.2663 34.0802 23.5629 33.9778 23.8489 33.8719C23.9138 33.8481 23.9848 33.8466 24.0507 33.8677C24.1166 33.8888 24.1735 33.9313 24.2125 33.9884Z" fill="#F1F2F2"/>
<path d="M22.6344 33.9214C22.6567 33.9506 22.6723 33.9844 22.6803 34.0203C22.702 34.1003 22.6912 34.1857 22.6501 34.2578C22.6091 34.3299 22.5413 34.3828 22.4614 34.4051C22.1543 34.4863 21.8436 34.5604 21.5329 34.6275C21.4928 34.6361 21.4514 34.6367 21.411 34.6293C21.3707 34.6218 21.3322 34.6065 21.2978 34.5842C21.2634 34.5619 21.2337 34.5331 21.2104 34.4993C21.1872 34.4656 21.1708 34.4275 21.1622 34.3874C21.1536 34.3473 21.153 34.3059 21.1604 34.2656C21.1679 34.2253 21.1831 34.1868 21.2054 34.1524C21.2277 34.1179 21.2566 34.0882 21.2904 34.065C21.3241 34.0417 21.3622 34.0253 21.4023 34.0167C21.6988 33.9532 22.0024 33.879 22.299 33.7978C22.3608 33.7809 22.4264 33.7836 22.4865 33.8058C22.5467 33.828 22.5984 33.8684 22.6344 33.9214Z" fill="#F1F2F2"/>
<path d="M21.0669 33.713C21.0924 33.7517 21.1103 33.7948 21.1199 33.8401C21.1322 33.9205 21.1124 34.0025 21.0649 34.0685C21.0174 34.1345 20.9458 34.1793 20.8657 34.1931C20.555 34.2496 20.2373 34.2955 19.9195 34.3344C19.8786 34.3408 19.8368 34.3389 19.7966 34.3288C19.7564 34.3187 19.7187 34.3006 19.6857 34.2755C19.6528 34.2504 19.6252 34.219 19.6047 34.183C19.5842 34.147 19.5712 34.1072 19.5665 34.066C19.561 34.025 19.5637 33.9833 19.5745 33.9433C19.5852 33.9033 19.6037 33.8658 19.629 33.833C19.6542 33.8002 19.6857 33.7727 19.7217 33.7521C19.7576 33.7315 19.7972 33.7182 19.8383 33.713C20.1455 33.6741 20.4526 33.6282 20.7527 33.5753C20.8128 33.5653 20.8745 33.573 20.9303 33.5975C20.9861 33.6219 21.0335 33.662 21.0669 33.713Z" fill="#F1F2F2"/>
<path d="M19.5203 33.3706C19.5523 33.415 19.5707 33.4677 19.5733 33.5224C19.5797 33.5644 19.5774 33.6073 19.5664 33.6483C19.5554 33.6894 19.5361 33.7277 19.5095 33.7609C19.483 33.7941 19.4498 33.8214 19.4122 33.8411C19.3746 33.8608 19.3332 33.8725 19.2908 33.8754C18.9801 33.9037 18.6589 33.9249 18.3376 33.939C18.2551 33.941 18.175 33.9107 18.1144 33.8547C18.0538 33.7987 18.0173 33.7213 18.0128 33.6389C18.0109 33.5976 18.0171 33.5564 18.0312 33.5175C18.0453 33.4787 18.0669 33.443 18.0947 33.4125C18.1226 33.382 18.1562 33.3573 18.1937 33.3398C18.2311 33.3223 18.2716 33.3124 18.3129 33.3106C18.6236 33.3106 18.9343 33.2788 19.2343 33.2505C19.2883 33.2445 19.3429 33.2523 19.393 33.2733C19.443 33.2943 19.4869 33.3278 19.5203 33.3706Z" fill="#F1F2F2"/>
<path d="M18.0058 32.901C18.0428 32.9524 18.0625 33.0142 18.0623 33.0775C18.0627 33.1186 18.0551 33.1594 18.0397 33.1975C18.0242 33.2356 18.0014 33.2702 17.9725 33.2995C17.9436 33.3287 17.9092 33.3519 17.8713 33.3677C17.8334 33.3836 17.7927 33.3917 17.7516 33.3917C17.4338 33.3917 17.1126 33.3917 16.7983 33.3917C16.7211 33.381 16.6506 33.3419 16.6006 33.2821C16.5505 33.2223 16.5245 33.146 16.5276 33.0681C16.5307 32.9901 16.5626 32.9161 16.6172 32.8605C16.6718 32.8048 16.7452 32.7714 16.8231 32.7668C17.1267 32.7668 17.4374 32.7668 17.7445 32.7668C17.7959 32.7649 17.8469 32.7763 17.8927 32.7997C17.9384 32.8232 17.9774 32.8581 18.0058 32.901Z" fill="#F1F2F2"/>
<path d="M16.5372 32.3114C16.5716 32.3594 16.5916 32.4162 16.5949 32.4752C16.5981 32.5342 16.5845 32.5928 16.5556 32.6443C16.5267 32.6958 16.4837 32.738 16.4317 32.766C16.3797 32.7939 16.3208 32.8065 16.2619 32.8022C15.9441 32.781 15.6299 32.7527 15.3121 32.7174C15.2681 32.7173 15.2246 32.7079 15.1844 32.6899C15.1442 32.6719 15.1083 32.6456 15.0789 32.6128C15.0495 32.58 15.0274 32.5414 15.0139 32.4995C15.0004 32.4576 14.9959 32.4133 15.0006 32.3695C15.0053 32.3257 15.0192 32.2834 15.0413 32.2453C15.0635 32.2072 15.0933 32.1742 15.129 32.1485C15.1647 32.1227 15.2055 32.1047 15.2486 32.0957C15.2917 32.0866 15.3362 32.0868 15.3792 32.096C15.6899 32.1314 15.9971 32.1561 16.3042 32.1773C16.3506 32.181 16.3955 32.1949 16.4358 32.2181C16.4761 32.2413 16.5108 32.2732 16.5372 32.3114Z" fill="#F1F2F2"/>
<path d="M15.1144 31.6159C15.1584 31.6812 15.1773 31.7602 15.1674 31.8383C15.156 31.9207 15.1124 31.9951 15.0462 32.0454C14.9801 32.0957 14.8967 32.1177 14.8143 32.1067C14.5001 32.0643 14.1859 32.0149 13.8752 31.9548C13.8349 31.9477 13.7963 31.9326 13.7618 31.9105C13.7273 31.8884 13.6975 31.8598 13.674 31.8262C13.6506 31.7926 13.634 31.7547 13.6252 31.7147C13.6164 31.6747 13.6156 31.6333 13.6228 31.593C13.6299 31.5526 13.645 31.5141 13.6671 31.4796C13.6892 31.4451 13.7178 31.4152 13.7514 31.3918C13.785 31.3684 13.8229 31.3518 13.8629 31.343C13.9029 31.3342 13.9443 31.3333 13.9846 31.3405C14.2918 31.397 14.5954 31.4429 14.899 31.4853C14.9418 31.4918 14.9828 31.5067 15.0198 31.5291C15.0567 31.5515 15.0889 31.581 15.1144 31.6159Z" fill="#F1F2F2"/>
<path d="M13.7375 30.8286C13.7621 30.8629 13.7793 30.902 13.7878 30.9434C13.7963 30.9848 13.796 31.0275 13.7869 31.0687C13.7706 31.1469 13.7249 31.2158 13.6592 31.2612C13.5934 31.3066 13.5127 31.3249 13.4338 31.3123C13.1232 31.2488 12.816 31.1781 12.5053 31.104C12.4629 31.0963 12.4226 31.0798 12.3869 31.0556C12.3512 31.0314 12.3209 31 12.298 30.9635C12.2751 30.9269 12.26 30.886 12.2538 30.8434C12.2475 30.8007 12.2502 30.7572 12.2617 30.7156C12.281 30.6347 12.3316 30.5647 12.4024 30.521C12.4732 30.4773 12.5585 30.4635 12.6395 30.4826C12.9431 30.5603 13.2432 30.6274 13.5433 30.6874C13.5835 30.6967 13.6214 30.714 13.6548 30.7383C13.6881 30.7625 13.7162 30.7932 13.7375 30.8286Z" fill="#F1F2F2"/>
<path d="M12.4134 29.9495C12.4528 30.0033 12.4741 30.0682 12.4741 30.1349C12.4742 30.2016 12.453 30.2666 12.4137 30.3204C12.3744 30.3743 12.3189 30.4142 12.2554 30.4345C12.1919 30.4548 12.1236 30.4543 12.0603 30.4332L11.1495 30.1684C11.0737 30.141 11.0113 30.0855 10.9753 30.0134C10.9392 29.9413 10.9323 29.8581 10.9559 29.781C10.9795 29.7039 11.0318 29.6389 11.102 29.5993C11.1722 29.5597 11.2549 29.5485 11.3331 29.5682C11.6331 29.66 11.9297 29.7483 12.2263 29.8295C12.302 29.8434 12.3692 29.8865 12.4134 29.9495Z" fill="#F1F2F2"/>
<path d="M11.1461 28.9962C11.1731 29.0368 11.1906 29.0829 11.1973 29.1312C11.204 29.1795 11.1998 29.2287 11.1849 29.2751C11.1722 29.3142 11.1518 29.3504 11.1249 29.3815C11.0981 29.4127 11.0653 29.4382 11.0285 29.4566C10.9917 29.475 10.9517 29.4859 10.9106 29.4887C10.8696 29.4915 10.8284 29.4861 10.7895 29.4728C10.4894 29.374 10.1928 29.2716 9.89275 29.1586C9.81553 29.13 9.75282 29.0719 9.71839 28.9971C9.68397 28.9223 9.68065 28.8369 9.70917 28.7597C9.73781 28.6815 9.79626 28.618 9.87172 28.5829C9.94717 28.5478 10.0335 28.5441 10.1116 28.5725C10.4012 28.682 10.6942 28.7808 10.9872 28.8797C11.0513 28.9005 11.107 28.9413 11.1461 28.9962Z" fill="#F1F2F2"/>
<path d="M9.92786 27.9759C9.95704 28.0189 9.97548 28.0683 9.98162 28.1199C9.98777 28.1715 9.98144 28.2238 9.96317 28.2725C9.93249 28.3495 9.87259 28.4113 9.79653 28.4444C9.72048 28.4774 9.63443 28.4791 9.55716 28.449C9.26295 28.3337 8.96991 28.216 8.67806 28.0959C8.63686 28.0821 8.59897 28.0599 8.56679 28.0308C8.5346 28.0016 8.50882 27.966 8.49106 27.9264C8.47331 27.8867 8.46397 27.8438 8.46363 27.8004C8.4633 27.757 8.47198 27.7139 8.48912 27.674C8.50626 27.6341 8.5315 27.5981 8.56323 27.5685C8.59497 27.5388 8.63251 27.516 8.67349 27.5016C8.71447 27.4872 8.75799 27.4814 8.80132 27.4846C8.84464 27.4879 8.88682 27.5001 8.92519 27.5205C9.21117 27.6405 9.49714 27.7605 9.78664 27.8735C9.84244 27.8936 9.8914 27.9291 9.92786 27.9759Z" fill="#F1F2F2"/>
<path d="M8.76292 26.8956C8.79429 26.9397 8.81343 26.9914 8.81839 27.0453C8.82335 27.0993 8.81396 27.1536 8.79116 27.2027C8.77471 27.2405 8.75092 27.2746 8.72117 27.3031C8.69142 27.3315 8.65631 27.3538 8.61787 27.3686C8.57943 27.3834 8.53844 27.3904 8.49728 27.3892C8.45611 27.388 8.4156 27.3786 8.37809 27.3616C8.09329 27.2298 7.80732 27.0956 7.52017 26.9591C7.44573 26.9231 7.38866 26.8589 7.36151 26.7808C7.33437 26.7027 7.33937 26.617 7.37542 26.5425C7.41147 26.4681 7.47561 26.411 7.55374 26.3839C7.63187 26.3567 7.71758 26.3617 7.79202 26.3978C8.07446 26.5319 8.35338 26.6625 8.63582 26.7896C8.68698 26.8128 8.7309 26.8494 8.76292 26.8956Z" fill="#F1F2F2"/>
<path d="M7.65077 25.7729C7.69005 25.8303 7.70919 25.899 7.70518 25.9685C7.70118 26.0379 7.67425 26.104 7.62863 26.1565C7.58301 26.209 7.52127 26.2449 7.45308 26.2585C7.38489 26.2721 7.31411 26.2628 7.25182 26.2318C6.9729 26.0906 6.69399 25.9459 6.41508 25.7941C6.37837 25.7752 6.34585 25.749 6.31946 25.7173C6.29307 25.6855 6.27335 25.6488 6.26149 25.6092C6.24962 25.5697 6.24586 25.5282 6.25041 25.4871C6.25496 25.4461 6.26774 25.4064 6.28798 25.3704C6.32759 25.2976 6.39432 25.2435 6.47366 25.2197C6.553 25.1959 6.63853 25.2044 6.71164 25.2433C6.98703 25.3916 7.26241 25.5363 7.53779 25.674C7.5821 25.6985 7.62063 25.7322 7.65077 25.7729Z" fill="#F1F2F2"/>
<path d="M6.59173 24.5761C6.62394 24.6254 6.64109 24.6831 6.64109 24.742C6.64109 24.8009 6.62394 24.8586 6.59173 24.9079C6.57186 24.9437 6.54512 24.9752 6.51305 25.0006C6.48098 25.026 6.4442 25.0448 6.40484 25.056C6.36547 25.0671 6.32429 25.0704 6.28366 25.0656C6.24303 25.0608 6.20375 25.048 6.16807 25.028C5.89269 24.8726 5.62083 24.7173 5.34545 24.5549C5.27453 24.5116 5.22336 24.4423 5.2029 24.3618C5.18245 24.2813 5.19433 24.196 5.23601 24.1242C5.25645 24.0862 5.2845 24.0528 5.31841 24.0261C5.35231 23.9994 5.39135 23.98 5.43308 23.9691C5.47481 23.9582 5.51835 23.956 5.56098 23.9626C5.60361 23.9692 5.64441 23.9846 5.68085 24.0076C5.94917 24.1653 6.21749 24.3207 6.48582 24.4737C6.5289 24.4987 6.56525 24.5338 6.59173 24.5761Z" fill="#F1F2F2"/>
<path d="M5.58201 23.3473C5.61737 23.3994 5.63628 23.4609 5.63628 23.5239C5.63628 23.5868 5.61737 23.6483 5.58201 23.7004C5.53835 23.77 5.46889 23.8195 5.38883 23.8381C5.30876 23.8566 5.22462 23.8426 5.15481 23.7993L5.01712 23.7181C4.79117 23.5768 4.56875 23.4321 4.35338 23.2873C4.31931 23.2641 4.29013 23.2345 4.26752 23.2C4.2449 23.1656 4.2293 23.127 4.2216 23.0865C4.21389 23.046 4.21424 23.0044 4.22261 22.9641C4.23099 22.9237 4.24723 22.8854 4.27042 22.8513C4.2936 22.8172 4.32326 22.7881 4.35772 22.7654C4.39218 22.7428 4.43075 22.7272 4.47124 22.7195C4.51173 22.7118 4.55334 22.7122 4.5937 22.7205C4.63405 22.7289 4.67236 22.7452 4.70644 22.7683C4.91827 22.9096 5.13363 23.0473 5.35605 23.1849L5.49022 23.2697C5.52503 23.2901 5.55608 23.3164 5.58201 23.3473Z" fill="#F1F2F2"/>
<path d="M4.63912 22.0728C4.67404 22.1251 4.69267 22.1865 4.69267 22.2493C4.69267 22.3122 4.67404 22.3736 4.63912 22.4259C4.59032 22.4931 4.51686 22.5383 4.43481 22.5516C4.35276 22.5648 4.26881 22.545 4.20134 22.4965C3.93655 22.3094 3.68235 22.1187 3.43521 21.9245C3.39863 21.9007 3.36744 21.8694 3.34361 21.8328C3.31978 21.7962 3.30384 21.755 3.29682 21.7119C3.28979 21.6688 3.29183 21.6247 3.3028 21.5824C3.31377 21.5402 3.33344 21.5006 3.36055 21.4664C3.38765 21.4321 3.4216 21.4039 3.46022 21.3835C3.49884 21.3631 3.54129 21.351 3.58486 21.3479C3.62843 21.3449 3.67216 21.3509 3.71326 21.3657C3.75436 21.3805 3.79193 21.4037 3.82357 21.4338C4.06012 21.6209 4.31078 21.7868 4.56498 21.9881C4.59407 22.0122 4.6191 22.0408 4.63912 22.0728Z" fill="#F1F2F2"/>
<path d="M1.64187 12.2933C1.66608 12.3271 1.68292 12.3656 1.69129 12.4063C1.75837 12.7028 1.83605 12.9994 1.92431 13.2889C1.94744 13.369 1.93819 13.4549 1.89857 13.5282C1.85895 13.6015 1.79212 13.6563 1.71248 13.6808C1.67307 13.6927 1.6317 13.6966 1.59076 13.6924C1.54982 13.6881 1.51013 13.6758 1.474 13.6561C1.43787 13.6364 1.40601 13.6097 1.38028 13.5776C1.35455 13.5454 1.33546 13.5085 1.32412 13.469C1.23232 13.1653 1.14759 12.8511 1.08051 12.5404C1.06199 12.469 1.06948 12.3934 1.10164 12.327C1.1338 12.2606 1.18854 12.2078 1.25606 12.1781C1.32358 12.1483 1.39947 12.1436 1.47015 12.1647C1.54084 12.1858 1.60171 12.2314 1.64187 12.2933Z" fill="#F1F2F2"/>
<path d="M3.79902 20.7348C3.84027 20.7898 3.86257 20.8567 3.86257 20.9254C3.86257 20.9942 3.84027 21.0611 3.79902 21.1161C3.74501 21.179 3.66831 21.218 3.58564 21.2247C3.50297 21.2313 3.42104 21.2049 3.35771 21.1514C3.11057 20.9431 2.87049 20.7313 2.6516 20.5159C2.62169 20.4878 2.59761 20.4542 2.58071 20.4168C2.56382 20.3795 2.55445 20.3391 2.55314 20.2982C2.55183 20.2572 2.5586 20.2163 2.57307 20.178C2.58754 20.1396 2.60943 20.1045 2.63748 20.0746C2.66553 20.0447 2.69919 20.0206 2.73655 20.0037C2.77391 19.9868 2.81423 19.9774 2.85521 19.9761C2.89619 19.9748 2.93703 19.9816 2.97539 19.996C3.01375 20.0105 3.04889 20.0324 3.07879 20.0605C3.29769 20.2652 3.5307 20.4735 3.76725 20.6748C3.77932 20.694 3.78994 20.714 3.79902 20.7348Z" fill="#F1F2F2"/>
<path d="M1.53947 13.9032C1.55475 13.926 1.56664 13.951 1.57478 13.9773C1.68069 14.2633 1.79367 14.5492 1.92783 14.8246C1.95637 14.8995 1.95522 14.9824 1.92464 15.0565C1.89406 15.1305 1.83635 15.1901 1.76331 15.223C1.69027 15.2559 1.60741 15.2597 1.53168 15.2336C1.45595 15.2074 1.39307 15.1533 1.35589 15.0824C1.22526 14.7893 1.10169 14.4892 1.00283 14.1891C0.979271 14.1182 0.981774 14.0412 1.00989 13.9719C1.03801 13.9026 1.0899 13.8457 1.15624 13.8112C1.22258 13.7768 1.29903 13.7671 1.37186 13.784C1.44469 13.8008 1.50912 13.8431 1.5536 13.9032H1.53947Z" fill="#F1F2F2"/>
<path d="M3.07877 19.3261C3.12088 19.3907 3.1378 19.4684 3.1263 19.5447C3.1148 19.6209 3.07569 19.6902 3.01641 19.7395C2.95712 19.7887 2.8818 19.8145 2.80477 19.8118C2.72774 19.8092 2.65437 19.7783 2.59862 19.7251C2.37266 19.4956 2.15377 19.259 1.949 19.0189C1.90346 18.9553 1.88334 18.8769 1.89258 18.7991C1.90182 18.7214 1.93975 18.6499 1.99894 18.5986C2.05814 18.5474 2.13434 18.5201 2.21261 18.5221C2.29088 18.5241 2.36558 18.5552 2.42209 18.6094C2.6198 18.8389 2.82457 19.0648 3.04346 19.2873C3.05703 19.2985 3.06892 19.3115 3.07877 19.3261Z" fill="#F1F2F2"/>
<path d="M1.64174 15.5344C1.6508 15.5455 1.65906 15.5573 1.66645 15.5697C1.80414 15.838 1.95243 16.1063 2.1113 16.364C2.14664 16.4343 2.15434 16.5153 2.13288 16.591C2.11141 16.6666 2.06234 16.7315 1.99536 16.7728C1.92839 16.814 1.84837 16.8286 1.77113 16.8138C1.69389 16.7989 1.62504 16.7556 1.57819 16.6924C1.41225 16.4205 1.25338 16.1381 1.10863 15.8556C1.06602 15.785 1.05325 15.7002 1.07311 15.6201C1.09297 15.54 1.14385 15.4711 1.21454 15.4285C1.28524 15.3858 1.36996 15.3731 1.45008 15.3929C1.53019 15.4128 1.59914 15.4637 1.64174 15.5344Z" fill="#F1F2F2"/>
<path d="M2.50688 17.8574C2.54824 17.9245 2.56282 18.0048 2.5477 18.0823C2.53258 18.1597 2.48888 18.2287 2.42527 18.2754C2.36167 18.3221 2.28282 18.3431 2.2044 18.3344C2.12599 18.3256 2.05373 18.2876 2.00201 18.2281C1.82901 18.0127 1.64896 17.7867 1.50773 17.5643L1.43359 17.4549C1.39696 17.3866 1.38683 17.3072 1.40516 17.2319C1.42349 17.1567 1.46898 17.0908 1.5329 17.047C1.59681 17.0033 1.67465 16.9846 1.75146 16.9948C1.82827 17.0049 1.89864 17.043 1.94905 17.1018L2.01966 17.2042C2.16794 17.4196 2.32682 17.6349 2.48922 17.8432L2.50688 17.8574Z" fill="#F1F2F2"/>
<path d="M25.5718 34.8216C25.5737 34.8333 25.5737 34.8453 25.5718 34.857C25.5916 34.8931 25.6039 34.9327 25.6082 34.9736C25.6125 35.0146 25.6087 35.0559 25.5968 35.0954C25.585 35.1348 25.5655 35.1714 25.5394 35.2032C25.5132 35.235 25.4811 35.2613 25.4447 35.2806C25.1623 35.4289 24.8763 35.5701 24.5903 35.7043C24.5516 35.7311 24.5073 35.7489 24.4607 35.7563C24.4141 35.7637 24.3665 35.7605 24.3213 35.747C24.2762 35.7335 24.2346 35.71 24.1998 35.6783C24.1649 35.6465 24.1377 35.6073 24.12 35.5636C24.1024 35.5199 24.0948 35.4728 24.0978 35.4257C24.1009 35.3787 24.1144 35.3329 24.1376 35.2918C24.1607 35.2508 24.1928 35.2154 24.2314 35.1884C24.2701 35.1614 24.3143 35.1434 24.3608 35.1359C24.6362 35.0088 24.9151 34.8711 25.187 34.7263C25.2523 34.6956 25.3262 34.6883 25.3963 34.7056C25.4664 34.723 25.5284 34.764 25.5718 34.8216Z" fill="#F1F2F2"/>
<path d="M24.0077 34.9699C24.0216 34.9867 24.0324 35.0058 24.0395 35.0264C24.0557 35.0642 24.0643 35.1048 24.0647 35.1459C24.0652 35.187 24.0575 35.2278 24.042 35.2658C24.0266 35.3039 24.0037 35.3386 23.9748 35.3678C23.9459 35.397 23.9115 35.4202 23.8735 35.436C23.5805 35.5595 23.2839 35.676 22.9838 35.789C22.9076 35.8098 22.8262 35.8011 22.7561 35.7646C22.686 35.7281 22.6322 35.6665 22.6054 35.5921C22.5787 35.5177 22.581 35.436 22.6119 35.3632C22.6427 35.2904 22.6999 35.2319 22.772 35.1994C23.0615 35.097 23.351 34.9841 23.6299 34.8676C23.695 34.838 23.7683 34.8321 23.8372 34.8508C23.9062 34.8695 23.9665 34.9116 24.0077 34.9699Z" fill="#F1F2F2"/>
<path d="M22.4191 34.9699C22.4374 34.9959 22.4516 35.0245 22.4614 35.0547C22.4737 35.0948 22.4778 35.1369 22.4734 35.1786C22.469 35.2204 22.4561 35.2607 22.4357 35.2974C22.4152 35.334 22.3876 35.3661 22.3544 35.3917C22.3212 35.4174 22.2831 35.436 22.2425 35.4466C21.9425 35.5419 21.6318 35.6301 21.3246 35.7078C21.2839 35.7202 21.2411 35.7241 21.1989 35.7193C21.1566 35.7145 21.1158 35.7011 21.079 35.6798C21.0421 35.6586 21.01 35.6301 20.9846 35.5959C20.9593 35.5618 20.9412 35.5228 20.9315 35.4814C20.9218 35.44 20.9207 35.397 20.9283 35.3552C20.9359 35.3133 20.952 35.2735 20.9756 35.2381C20.9992 35.2028 21.0299 35.1726 21.0656 35.1496C21.1013 35.1265 21.1414 35.111 21.1834 35.1041C21.48 35.0264 21.78 34.9417 22.0696 34.8499C22.133 34.8298 22.2012 34.8307 22.2641 34.8523C22.327 34.8739 22.3813 34.9151 22.4191 34.9699Z" fill="#F1F2F2"/>
<path d="M20.8479 34.8252C20.8703 34.8595 20.8859 34.8979 20.8938 34.9382C20.9117 35.0191 20.8969 35.1039 20.8526 35.174C20.8083 35.2441 20.7381 35.2939 20.6572 35.3124C20.3501 35.3795 20.0323 35.4395 19.7181 35.4889C19.6396 35.4953 19.5615 35.472 19.4993 35.4235C19.4372 35.375 19.3955 35.3049 19.3826 35.2271C19.3698 35.1494 19.3866 35.0696 19.4297 35.0036C19.4729 34.9377 19.5393 34.8904 19.6157 34.8711C19.9194 34.8217 20.2265 34.7652 20.5231 34.6981C20.5837 34.6862 20.6465 34.6918 20.704 34.7143C20.7615 34.7369 20.8114 34.7753 20.8479 34.8252Z" fill="#F1F2F2"/>
<path d="M19.2874 34.5427C19.3172 34.5829 19.3355 34.6305 19.3403 34.6804C19.3514 34.7627 19.3293 34.8461 19.2791 34.9123C19.2288 34.9785 19.1543 35.022 19.072 35.0334C18.7578 35.0723 18.4365 35.104 18.1187 35.1287C18.0765 35.1347 18.0336 35.1318 17.9925 35.1204C17.9515 35.109 17.9132 35.0893 17.8801 35.0625C17.847 35.0357 17.8197 35.0023 17.8 34.9645C17.7804 34.9267 17.7687 34.8853 17.7657 34.8428C17.7603 34.8004 17.7636 34.7573 17.7754 34.7163C17.7873 34.6752 17.8073 34.637 17.8344 34.6039C17.8615 34.5709 17.8951 34.5437 17.933 34.5241C17.971 34.5044 18.0126 34.4927 18.0552 34.4897C18.3624 34.4685 18.673 34.4368 18.9731 34.3979C19.034 34.3877 19.0965 34.396 19.1526 34.4219C19.2086 34.4477 19.2556 34.4898 19.2874 34.5427Z" fill="#F1F2F2"/>
<path d="M17.7587 34.1262C17.7931 34.1749 17.8127 34.2325 17.8152 34.2921C17.8171 34.3334 17.8108 34.3746 17.7967 34.4135C17.7827 34.4523 17.7611 34.488 17.7332 34.5185C17.7054 34.549 17.6717 34.5737 17.6343 34.5912C17.5969 34.6087 17.5564 34.6186 17.5151 34.6204C17.2044 34.6204 16.8831 34.6204 16.5618 34.6204C16.518 34.6251 16.4737 34.6205 16.4318 34.6069C16.3898 34.5934 16.3512 34.5711 16.3185 34.5416C16.2857 34.5122 16.2595 34.4761 16.2416 34.4359C16.2236 34.3956 16.2144 34.3521 16.2144 34.308C16.2144 34.2639 16.2236 34.2203 16.2416 34.1801C16.2595 34.1398 16.2857 34.1038 16.3185 34.0743C16.3512 34.0449 16.3898 34.0226 16.4318 34.0091C16.4737 33.9955 16.518 33.9909 16.5618 33.9955C16.869 33.9955 17.1832 33.9955 17.4868 33.9955C17.5396 33.9917 17.5924 34.0018 17.6401 34.0247C17.6878 34.0476 17.7287 34.0826 17.7587 34.1262Z" fill="#F1F2F2"/>
<path d="M16.2688 33.5895C16.3085 33.6449 16.3284 33.712 16.3253 33.7801C16.3239 33.8214 16.3144 33.862 16.2974 33.8996C16.2803 33.9372 16.256 33.9711 16.2258 33.9993C16.1956 34.0275 16.1602 34.0494 16.1216 34.0639C16.0829 34.0784 16.0417 34.0852 16.0005 34.0837C15.6863 34.0837 15.3685 34.052 15.0508 34.0273C14.9722 34.0154 14.901 33.9742 14.8516 33.9119C14.8022 33.8497 14.7782 33.771 14.7844 33.6918C14.7907 33.6125 14.8268 33.5386 14.8853 33.4849C14.9439 33.4312 15.0207 33.4017 15.1002 33.4024C15.4073 33.4271 15.718 33.4447 16.0252 33.4553C16.0735 33.4569 16.1207 33.4699 16.163 33.4932C16.2054 33.5166 16.2416 33.5495 16.2688 33.5895Z" fill="#F1F2F2"/>
<path d="M14.8283 32.9399C14.8725 33.0024 14.8914 33.0793 14.8813 33.1552C14.8765 33.1966 14.8635 33.2367 14.8431 33.273C14.8227 33.3093 14.7953 33.3412 14.7624 33.3668C14.7296 33.3925 14.6919 33.4113 14.6517 33.4223C14.6115 33.4332 14.5696 33.436 14.5282 33.4306C14.2176 33.3988 13.8998 33.3565 13.5856 33.3106C13.5053 33.2961 13.4338 33.2509 13.3862 33.1847C13.3385 33.1184 13.3186 33.0362 13.3305 32.9554C13.3424 32.8747 13.3853 32.8018 13.4501 32.7521C13.5148 32.7024 13.5963 32.6799 13.6774 32.6892C13.9845 32.7351 14.2917 32.7775 14.5989 32.8092C14.6442 32.8133 14.6882 32.8271 14.7278 32.8496C14.7674 32.8721 14.8017 32.9029 14.8283 32.9399Z" fill="#F1F2F2"/>
<path d="M13.4161 32.1914C13.4526 32.2418 13.4731 32.3021 13.475 32.3644C13.4768 32.4267 13.4599 32.4881 13.4264 32.5406C13.3929 32.5931 13.3444 32.6344 13.2871 32.659C13.2299 32.6836 13.1666 32.6904 13.1054 32.6786C12.7947 32.6221 12.484 32.5621 12.1733 32.495C12.0953 32.4749 12.028 32.4256 11.9853 32.3572C11.9426 32.2889 11.9277 32.2068 11.9439 32.1278C11.9522 32.0877 11.9685 32.0496 11.9918 32.0159C12.015 31.9822 12.0448 31.9534 12.0794 31.9314C12.1139 31.9094 12.1525 31.8945 12.1929 31.8876C12.2333 31.8807 12.2747 31.8819 12.3146 31.8913C12.6182 31.9548 12.9218 32.0148 13.2254 32.0678C13.302 32.0841 13.3699 32.1281 13.4161 32.1914Z" fill="#F1F2F2"/>
<path d="M12.0816 31.3511C12.1198 31.403 12.1408 31.4656 12.1418 31.53C12.1429 31.5944 12.1238 31.6576 12.0874 31.7107C12.0509 31.7639 11.9988 31.8043 11.9384 31.8266C11.8779 31.8488 11.812 31.8517 11.7498 31.8348C11.4461 31.7606 11.139 31.6794 10.8318 31.5912C10.7924 31.58 10.7556 31.5613 10.7234 31.5359C10.6913 31.5105 10.6644 31.4791 10.6445 31.4434C10.6245 31.4076 10.6117 31.3683 10.6069 31.3276C10.6021 31.287 10.6053 31.2458 10.6165 31.2063C10.6276 31.1669 10.6464 31.1301 10.6717 31.098C10.6971 31.0658 10.7285 31.039 10.7643 31.019C10.8 30.999 10.8393 30.9862 10.88 30.9814C10.9207 30.9766 10.9619 30.9799 11.0013 30.991C11.3002 31.0757 11.6003 31.1534 11.9016 31.224C11.9743 31.2446 12.0379 31.2895 12.0816 31.3511Z" fill="#F1F2F2"/>
<path d="M10.7894 30.4296C10.8164 30.4689 10.8342 30.5137 10.8415 30.5607C10.8489 30.6078 10.8455 30.6559 10.8318 30.7015C10.8197 30.7408 10.7999 30.7773 10.7737 30.809C10.7474 30.8406 10.7151 30.8667 10.6786 30.8858C10.6421 30.9048 10.6023 30.9164 10.5613 30.9199C10.5203 30.9235 10.479 30.9188 10.4399 30.9062C10.1398 30.8145 9.83968 30.7156 9.53605 30.6132C9.49727 30.6001 9.46147 30.5794 9.4307 30.5524C9.39994 30.5254 9.37481 30.4926 9.35676 30.4559C9.33872 30.4191 9.32811 30.3792 9.32556 30.3383C9.323 30.2975 9.32854 30.2565 9.34187 30.2178C9.35433 30.1779 9.37455 30.1408 9.40136 30.1087C9.42817 30.0767 9.46105 30.0502 9.49811 30.0308C9.53517 30.0115 9.57569 29.9996 9.61734 29.996C9.65899 29.9923 9.70095 29.9969 9.74082 30.0095C10.0339 30.1119 10.3304 30.2072 10.6235 30.299C10.6926 30.3213 10.7515 30.3676 10.7894 30.4296Z" fill="#F1F2F2"/>
<path d="M9.55011 29.4376C9.57922 29.4786 9.59769 29.5262 9.60385 29.5761C9.61001 29.626 9.60368 29.6767 9.58542 29.7236C9.57161 29.7621 9.55031 29.7975 9.52276 29.8278C9.4952 29.8581 9.46193 29.8827 9.42485 29.9001C9.38778 29.9175 9.34763 29.9274 9.30672 29.9292C9.26581 29.931 9.22494 29.9247 9.18647 29.9107C8.8899 29.8012 8.59334 29.6882 8.3003 29.5576C8.22372 29.5283 8.16182 29.47 8.12809 29.3952C8.09436 29.3205 8.09154 29.2355 8.12024 29.1587C8.1516 29.0823 8.21178 29.0213 8.28777 28.9889C8.36375 28.9565 8.44943 28.9554 8.52626 28.9857C8.81576 29.1022 9.10526 29.2152 9.39477 29.3387C9.455 29.356 9.50895 29.3903 9.55011 29.4376Z" fill="#F1F2F2"/>
<path d="M8.36404 28.3784C8.3944 28.4222 8.41322 28.473 8.41878 28.5261C8.42433 28.5792 8.41643 28.6328 8.39581 28.682C8.36314 28.758 8.30181 28.818 8.22514 28.8491C8.14846 28.8802 8.06263 28.8798 7.98627 28.8479C7.69677 28.7244 7.40726 28.5937 7.11776 28.4631C7.04252 28.4278 6.98412 28.3644 6.95508 28.2865C6.92604 28.2086 6.92868 28.1225 6.96241 28.0465C6.97955 28.0089 7.00392 27.9751 7.03414 27.947C7.06436 27.9188 7.09983 27.8969 7.13852 27.8825C7.17721 27.868 7.21836 27.8614 7.25963 27.8629C7.3009 27.8644 7.34147 27.874 7.37902 27.8912C7.66146 28.0183 7.94743 28.1454 8.22988 28.2654C8.28431 28.2897 8.3308 28.3289 8.36404 28.3784Z" fill="#F1F2F2"/>
<path d="M7.2306 27.2662C7.26308 27.3113 7.28256 27.3645 7.28692 27.4199C7.29128 27.4753 7.28035 27.5308 7.25531 27.5804C7.23758 27.6174 7.21271 27.6505 7.18214 27.6778C7.15156 27.7051 7.11588 27.7261 7.07715 27.7396C7.03842 27.753 6.99742 27.7587 6.95649 27.7562C6.91557 27.7537 6.87554 27.7432 6.83871 27.7252C6.55627 27.5863 6.27382 27.4451 5.99138 27.3015C5.91788 27.2636 5.86245 27.198 5.83729 27.1192C5.81213 27.0405 5.8193 26.9549 5.85722 26.8814C5.89514 26.8079 5.96071 26.7525 6.0395 26.7273C6.11829 26.7021 6.20385 26.7093 6.27736 26.7472C6.55627 26.8885 6.83165 27.0297 7.11056 27.1638C7.15949 27.1859 7.20112 27.2214 7.2306 27.2662Z" fill="#F1F2F2"/>
<path d="M6.15024 26.1012C6.17983 26.1502 6.19546 26.2064 6.19546 26.2636C6.19546 26.3209 6.17983 26.377 6.15024 26.426C6.13134 26.4628 6.10523 26.4953 6.07347 26.5217C6.04172 26.5481 6.00497 26.5678 5.96542 26.5796C5.92587 26.5915 5.88434 26.5953 5.8433 26.5907C5.80226 26.5862 5.76256 26.5734 5.72658 26.5531C5.45119 26.4049 5.17228 26.253 4.8969 26.0942C4.85746 26.0758 4.82225 26.0495 4.79351 26.0169C4.76476 25.9843 4.74311 25.946 4.72991 25.9046C4.71671 25.8631 4.71226 25.8194 4.71683 25.7762C4.72141 25.7329 4.73491 25.6911 4.75649 25.6533C4.77807 25.6156 4.80725 25.5827 4.84218 25.5568C4.87712 25.5309 4.91706 25.5125 4.95946 25.5029C5.00186 25.4932 5.04581 25.4924 5.08852 25.5006C5.13123 25.5088 5.17178 25.5258 5.20759 25.5505C5.47944 25.7058 5.75129 25.8576 6.02314 26.0024C6.07306 26.0243 6.11674 26.0582 6.15024 26.1012Z" fill="#F1F2F2"/>
<path d="M5.11939 24.8902C5.16129 24.9486 5.18162 25.0198 5.17693 25.0915C5.17224 25.1632 5.14282 25.2311 5.09368 25.2836C5.04453 25.3361 4.97871 25.3699 4.90744 25.3793C4.83616 25.3886 4.76383 25.373 4.70279 25.335C4.46977 25.2009 4.24029 25.0597 3.99668 24.9149L3.88371 24.8443C3.84414 24.825 3.80909 24.7975 3.78081 24.7637C3.75254 24.73 3.73168 24.6906 3.71959 24.6483C3.7075 24.6059 3.70445 24.5615 3.71063 24.5179C3.71681 24.4743 3.73209 24.4325 3.75548 24.3952C3.77887 24.3578 3.80984 24.3259 3.84638 24.3013C3.88293 24.2767 3.92423 24.2601 3.96762 24.2525C4.011 24.2449 4.05549 24.2465 4.09821 24.2573C4.14093 24.268 4.18091 24.2875 4.21558 24.3147L4.32855 24.3853C4.55451 24.5265 4.78399 24.6642 5.00995 24.7984C5.05306 24.8201 5.09054 24.8515 5.11939 24.8902Z" fill="#F1F2F2"/>
<path d="M1.2781 13.8467C1.30055 13.881 1.31613 13.9194 1.324 13.9597C1.39108 14.2633 1.46522 14.5634 1.54642 14.8529C1.56889 14.9325 1.55883 15.0177 1.51844 15.0899C1.47805 15.1621 1.41065 15.2152 1.33106 15.2377C1.25147 15.2602 1.16621 15.2501 1.09404 15.2097C1.02187 15.1694 0.968701 15.1019 0.946229 15.0224C0.857965 14.7223 0.780294 14.408 0.713213 14.0903C0.700539 14.0119 0.718354 13.9317 0.763001 13.866C0.807648 13.8003 0.875738 13.7543 0.95329 13.7372C1.01223 13.7225 1.07415 13.725 1.13172 13.7444C1.18928 13.7638 1.24008 13.7993 1.2781 13.8467Z" fill="#F1F2F2"/>
<path d="M4.14859 23.6545C4.18395 23.7066 4.20286 23.7681 4.20286 23.831C4.20286 23.894 4.18395 23.9555 4.14859 24.0075C4.10081 24.0757 4.02817 24.1225 3.9463 24.1377C3.86442 24.1528 3.77986 24.1353 3.7108 24.0888C3.44601 23.9087 3.18828 23.7357 2.93761 23.5274C2.87767 23.4748 2.83994 23.4014 2.83209 23.3221C2.82424 23.2427 2.84685 23.1634 2.89533 23.1001C2.94382 23.0368 3.01455 22.9943 3.0932 22.9812C3.17185 22.9681 3.25254 22.9854 3.31891 23.0296C3.55899 23.2132 3.80966 23.3826 4.06738 23.5698C4.10009 23.592 4.12775 23.6209 4.14859 23.6545Z" fill="#F1F2F2"/>
<path d="M3.29053 22.3094C3.33262 22.3633 3.35547 22.4298 3.35547 22.4983C3.35547 22.5667 3.33262 22.6332 3.29053 22.6871C3.26416 22.7225 3.23062 22.752 3.1921 22.7736C3.15358 22.7952 3.11095 22.8084 3.06698 22.8124C3.02301 22.8164 2.97869 22.8111 2.93691 22.7968C2.89513 22.7825 2.85683 22.7596 2.8245 22.7295C2.57737 22.5212 2.33376 22.3058 2.1184 22.0905C2.058 22.0338 2.02258 21.9555 2.01994 21.8727C2.01729 21.79 2.04762 21.7096 2.10427 21.6492C2.16092 21.5888 2.23924 21.5533 2.32201 21.5507C2.40477 21.548 2.4852 21.5784 2.54559 21.635C2.76801 21.8433 2.9975 22.0481 3.2517 22.2458C3.2672 22.2653 3.28024 22.2867 3.29053 22.3094Z" fill="#F1F2F2"/>
<path d="M1.14749 15.4567C1.16502 15.4806 1.17927 15.5067 1.18986 15.5343C1.28518 15.8238 1.39463 16.1133 1.51114 16.3887C1.53366 16.463 1.52792 16.5429 1.49502 16.6132C1.46212 16.6835 1.40439 16.7391 1.33294 16.7693C1.26149 16.7996 1.18138 16.8023 1.10804 16.777C1.03469 16.7517 0.973288 16.7002 0.935661 16.6323C0.812092 16.3428 0.699115 16.0392 0.582607 15.7356C0.556087 15.664 0.556815 15.5853 0.584653 15.5142C0.612491 15.4432 0.665493 15.3849 0.733556 15.3504C0.80162 15.3159 0.879987 15.3077 0.953721 15.3273C1.02745 15.3469 1.0914 15.393 1.13337 15.4567H1.14749Z" fill="#F1F2F2"/>
<path d="M2.57393 20.9042C2.61727 20.9647 2.63722 21.0388 2.63008 21.1128C2.62294 21.1868 2.58919 21.2557 2.53509 21.3067C2.50621 21.3359 2.47184 21.359 2.43396 21.3748C2.39609 21.3906 2.35547 21.3987 2.31443 21.3987C2.2734 21.3987 2.23278 21.3906 2.19491 21.3748C2.15703 21.359 2.12266 21.3359 2.09378 21.3067C1.87135 21.0737 1.65246 20.8336 1.45122 20.6006C1.39809 20.5368 1.37235 20.4546 1.37963 20.372C1.3869 20.2893 1.4266 20.2128 1.49005 20.1593C1.52114 20.1326 1.55724 20.1125 1.59624 20.1C1.63524 20.0875 1.67634 20.0829 1.71713 20.0865C1.75792 20.0901 1.79757 20.1019 1.83376 20.1211C1.86994 20.1402 1.90193 20.1664 1.92784 20.1981C2.12555 20.4276 2.33032 20.6571 2.54215 20.8795C2.55418 20.8857 2.56496 20.8941 2.57393 20.9042Z" fill="#F1F2F2"/>
<path d="M1.21469 17.0666C1.22422 17.0799 1.23249 17.0941 1.2394 17.1089C1.37356 17.3843 1.51832 17.6562 1.67013 17.9174C1.69263 17.9537 1.7075 17.9943 1.71381 18.0365C1.72013 18.0788 1.71776 18.1218 1.70685 18.1632C1.69595 18.2045 1.67674 18.2431 1.65039 18.2767C1.62404 18.3104 1.59112 18.3383 1.55362 18.3587C1.51821 18.3796 1.47902 18.3932 1.4383 18.3989C1.39759 18.4045 1.35617 18.4019 1.31644 18.3914C1.2767 18.3809 1.23945 18.3626 1.20683 18.3376C1.17422 18.3126 1.14689 18.2814 1.12643 18.2458C0.967552 17.9704 0.815739 17.6844 0.678048 17.3984C0.647415 17.3282 0.643512 17.2492 0.667074 17.1762C0.690636 17.1033 0.740037 17.0415 0.805982 17.0025C0.871927 16.9634 0.949868 16.9498 1.02514 16.9642C1.10041 16.9786 1.16782 17.02 1.21469 17.0807V17.0666Z" fill="#F1F2F2"/>
<path d="M2.02323 19.4179C2.05425 19.485 2.06063 19.5609 2.04125 19.6322C2.02186 19.7035 1.97796 19.7657 1.91725 19.8079C1.85655 19.85 1.78292 19.8695 1.70932 19.8627C1.63572 19.8559 1.56685 19.8235 1.51483 19.771C1.32065 19.5132 1.13706 19.2484 0.964065 18.9837C0.925737 18.9159 0.914264 18.8362 0.931918 18.7603C0.949572 18.6845 0.995066 18.618 1.05939 18.5741C1.12889 18.5299 1.21297 18.5148 1.29352 18.5319C1.37408 18.5491 1.44468 18.5972 1.49012 18.6659C1.65605 18.9201 1.84317 19.1708 2.0197 19.4144C2.01616 19.4179 2.0197 19.4179 2.02323 19.4179Z" fill="#F1F2F2"/>
<path d="M31.8315 31.2947C31.8315 31.2947 20.8551 32.1279 13.0879 25.4198C5.32071 18.7118 3.62253 7.67538 4.29686 6.66212C4.97119 5.64886 3.20239 8.12023 3.20239 8.12023C3.20239 8.12023 3.55545 19.0649 12.0287 26.126C20.502 33.187 30.7935 32.3326 30.7935 32.3326L31.8315 31.2947Z" fill="#F1F2F2"/>
<path opacity="0.1" d="M22.6168 19.9652H22.4827C22.5427 19.9369 22.5956 19.9369 22.6168 19.9652Z" fill="#F1F2F2"/>
</g>
<defs>
<clipPath id="clip0_1_1238">
<rect width="37" height="37" fill="white"/>
</clipPath>
</defs>
</svg>
