<svg width="36" height="37" viewBox="0 0 36 37" fill="none" xmlns="http://www.w3.org/2000/svg">
<path fill-rule="evenodd" clip-rule="evenodd" d="M6.93069 11.4022C5.96181 12.6247 5.16617 13.7379 4.61288 14.6447C4.38469 15.0187 4.12669 15.4 4.0396 15.4921C3.93624 15.6014 3.91851 15.6657 3.98867 15.6773C4.06351 15.6897 4.02894 15.7495 3.87424 15.8752C3.75228 15.9743 3.70254 16.0299 3.76366 15.999C3.82484 15.968 3.68236 16.3574 3.44723 16.8644C2.38499 19.1538 2.05059 20.9528 2.46041 22.1726C2.62449 22.6607 3.13162 23.1427 3.60178 23.2573C6.07706 23.8605 10.7278 20.8955 15.0122 15.9828C17.8921 12.6806 19.8053 9.55524 20.5773 6.89154C21.3834 4.11047 20.7552 2.5618 18.8384 2.60498C17.6165 2.63256 16.1186 3.21385 14.3729 4.33792C13.8996 4.64271 13.5289 4.83763 13.5494 4.77113C13.5697 4.70463 13.5489 4.72257 13.503 4.81113C13.4573 4.89963 13.1405 5.17748 12.799 5.42858C11.38 6.47231 8.57433 9.32817 6.93069 11.4022ZM3.54881 16.3692C3.606 16.34 3.65064 16.2843 3.64796 16.2455C3.64529 16.2068 3.59851 16.2307 3.54394 16.2987C3.48365 16.3739 3.48556 16.4015 3.54881 16.3692ZM13.8111 4.59945C13.8658 4.57172 13.9269 4.50165 13.9469 4.44373C13.967 4.38581 13.9223 4.40853 13.8476 4.49417C13.7729 4.57982 13.7565 4.62718 13.8111 4.59945ZM3.33484 16.7378C3.38956 16.71 3.45067 16.64 3.47065 16.5821C3.49074 16.5241 3.446 16.5469 3.3713 16.6325C3.29661 16.7181 3.28024 16.7655 3.33484 16.7378ZM14.1498 4.33963C14.207 4.31045 14.2516 4.25473 14.249 4.21599C14.2463 4.17725 14.1995 4.20116 14.145 4.26915C14.0847 4.34433 14.0866 4.37198 14.1498 4.33963ZM2.71548 17.8152C1.69227 19.8743 1.12873 21.5649 0.888855 23.2955C0.767094 24.1734 0.826341 25.3567 1.02112 25.9362C2.0967 29.1375 6.80946 28.3167 12.4487 23.9459C15.1792 21.8296 18.2859 18.5649 20.5091 15.4753C21.6619 13.8734 21.9043 13.5022 22.6843 12.146C23.9163 10.004 24.6919 8.1619 25.0963 6.41766C25.3727 5.22505 25.4375 4.57575 25.3702 3.67314C25.3045 2.79345 25.0882 2.17998 24.6485 1.62667C23.2933 -0.0787888 19.7797 0.521058 15.7277 3.1497C14.9036 3.6843 13.9628 4.41054 14.5796 4.03597C17.2252 2.42934 18.5711 1.87877 19.8865 1.86498C21.0656 1.85266 21.8899 2.33284 22.2742 3.25607C23.1482 5.35566 21.5031 9.85846 18.2449 14.2844C17.4432 15.3735 14.9024 18.2889 13.863 19.3124C10.6274 22.4986 6.87887 24.7514 4.53351 24.9193C2.92159 25.0347 1.94217 24.2451 1.74262 22.6693C1.60474 21.5808 1.94168 20.0199 2.70806 18.1959C2.9498 17.6208 3.18237 17.0819 3.22504 16.9984L3.30249 16.8467L3.1896 16.9675C3.12748 17.034 2.9141 17.4154 2.71548 17.8152ZM6.47511 33.0134L10.4189 36.4249L10.9915 36.6346C13.2681 37.469 16.6171 36.5398 20.5592 33.9802C24.2802 31.5641 28.3634 27.407 31.3213 23.0233C34.0939 18.9142 35.7055 14.5346 35.565 11.4907C35.5173 10.4562 35.3708 9.86873 34.972 9.1126L34.6957 8.58841L31.2823 5.57621C29.4049 3.91951 27.6369 2.3767 27.3533 2.14773L26.8378 1.73138L27.0954 2.20203C28.6933 5.12108 27.0762 10.8029 22.9381 16.8088C21.8953 18.3223 18.2615 22.487 16.961 23.6591C14.0492 26.2834 11.3495 28.1059 8.85504 29.1313C6.66664 30.0308 4.74092 30.2949 3.41841 29.8768C3.16934 29.7981 2.86785 29.7041 2.74845 29.6678C2.58535 29.6184 3.51244 30.4507 6.47511 33.0134Z" fill="#D99E82"/>
</svg>
