<svg width="99" height="41" viewBox="0 0 99 41" fill="none" xmlns="http://www.w3.org/2000/svg">
<mask id="path-1-outside-1_1_1202" maskUnits="userSpaceOnUse" x="-0.0219727" y="0" width="99" height="41" fill="black">
<rect fill="white" x="-0.0219727" width="99" height="41"/>
<path fill-rule="evenodd" clip-rule="evenodd" d="M61.4348 1.61377C61.3219 1.98328 60.6281 4.83991 59.8931 7.9615C58.7608 12.7699 58.4962 13.6282 58.1607 13.5777C57.9429 13.5451 57.3335 13.4298 56.8066 13.3214C56.0609 13.1678 55.6076 13.2715 54.76 13.7904C53.8474 14.3487 53.5631 14.7256 53.0018 16.1215C52.6335 17.0371 52.3078 17.6593 52.2781 17.504C52.2483 17.3487 51.9228 15.5749 51.5549 13.5624C51.1486 11.3397 50.7828 9.90315 50.6232 9.90315C50.4737 9.90315 50.0653 11.2447 49.6742 13.0212L48.9878 16.1392L48.3167 15.4109C47.9475 15.0103 47.5351 14.6826 47.4005 14.6826C47.2656 14.6826 46.9005 15.4219 46.589 16.3256C46.2774 17.2292 45.9658 17.9685 45.8965 17.9685C45.827 17.9685 45.4925 17.0117 45.1527 15.8425C44.6042 13.9546 44.4391 13.6574 43.6779 13.1863C42.9014 12.7057 42.7498 12.4204 42.0681 10.1592C41.3548 7.79302 41.2727 7.64725 40.493 7.36406C40.0404 7.19977 39.2731 6.69076 38.7881 6.23282C38.3028 5.77489 37.8311 5.46572 37.7402 5.54548C37.6491 5.62553 37.298 6.97334 36.9601 8.54071C36.622 10.1078 36.2919 11.3917 36.2266 11.3935C36.1613 11.3952 35.8832 10.6266 35.609 9.68539C35.097 7.92804 33.6712 5.42241 33.1829 5.42241C32.8402 5.42241 32.8129 5.55982 32.1443 10.6499C31.3321 16.8349 31.4348 16.4552 30.9081 15.2161C30.0547 13.2079 29.9913 13.1508 29.1593 13.6455C28.7523 13.8874 28.0587 14.0852 27.618 14.0852C26.8666 14.0852 26.769 13.9753 26.0539 12.3278C25.3713 10.7545 25.2014 10.5499 24.4322 10.3748C23.9595 10.2673 23.4992 10.2852 23.4091 10.4146C23.3192 10.5442 22.9215 12.3974 22.5256 14.5333L21.8056 18.4166L20.9597 18.3252L20.1137 18.2338L19.3407 21.5334L18.5677 24.8333L17.8779 24.0847C17.0491 23.1856 16.9816 23.2659 16.1831 26.1085C15.8714 27.2177 15.5871 28.1249 15.5512 28.1249C15.5153 28.1249 15.1887 26.8559 14.8255 25.305C14.2849 22.9971 14.0147 22.2918 13.3377 21.4217C12.8824 20.8368 12.4263 20.3582 12.3238 20.3582C12.2213 20.3582 11.7816 21.1403 11.3465 22.0962C10.9116 23.0518 10.2577 24.1116 9.89358 24.4509L9.23169 25.0684L8.5091 23.1617C8.0971 22.0747 7.64583 21.255 7.45914 21.2547C6.82707 21.2541 4.62593 23.3651 3.58668 24.9686C2.90841 26.0153 2.28158 26.6806 1.81603 26.8479C1.41956 26.9903 1.0525 27.29 1 27.514C0.933853 27.7957 1.01596 27.8605 1.26522 27.7243C1.46366 27.6161 1.81834 27.5274 2.05332 27.5274C2.30216 27.5274 3.06695 26.6854 3.88466 25.5111C4.6568 24.402 5.77333 23.1226 6.36572 22.6676L7.44255 21.8405L8.12818 23.6704C8.50532 24.6768 8.93896 25.5684 9.09204 25.6521C9.54352 25.8985 10.7726 24.5077 11.5893 22.8259C12.0286 21.9214 12.4498 21.3416 12.5878 21.4515C13.3956 22.0962 13.8253 23.1267 14.5161 26.076C14.934 27.8599 15.3914 29.3197 15.5323 29.3197C15.6732 29.3197 16.0976 28.2444 16.4754 26.93C16.8531 25.6156 17.2318 24.5403 17.3166 24.5403C17.4014 24.5403 17.6543 24.7377 17.8785 24.9788C18.7319 25.897 18.9755 25.5861 19.5679 22.8226C20.4102 18.8936 20.424 18.8626 21.1618 19.2282C21.5786 19.4352 21.8524 19.4373 21.9944 19.2354C22.1699 18.9856 22.8971 15.4697 23.5076 11.9195C23.6229 11.2492 23.7656 11.098 24.2824 11.098C24.8345 11.098 25.0262 11.348 25.7719 13.0397C26.5787 14.8702 26.673 14.9813 27.4187 14.9813C27.8536 14.9813 28.5654 14.7698 29.0005 14.5112C29.8796 13.9887 29.7613 13.8779 30.7082 16.1144C31.0068 16.8196 31.3579 17.3481 31.4883 17.2886C31.6189 17.2292 32.0465 14.8374 32.4385 11.9736C32.8306 9.10976 33.1859 6.70928 33.2281 6.63908C33.4465 6.27614 34.6749 8.52727 35.3079 10.4498C35.7396 11.7615 36.134 12.5922 36.29 12.5184C36.4332 12.4503 36.8868 11.0269 37.298 9.35501L38.0453 6.31497L38.7301 7.03368C39.1066 7.42889 39.7431 7.83992 40.1442 7.94686C40.8183 8.12669 40.9363 8.3343 41.6962 10.6741C42.4045 12.8551 42.6244 13.2694 43.2779 13.658C43.9322 14.047 44.15 14.4586 44.8541 16.6362C45.3033 18.0262 45.7684 19.1634 45.8875 19.1634C46.0065 19.1634 46.3902 18.3568 46.74 17.3711C47.0899 16.3853 47.4319 15.5788 47.5002 15.5788C47.5684 15.5788 47.9122 15.9232 48.2639 16.3444C49.085 17.3272 49.2415 17.1004 49.9915 13.8423C50.3059 12.4763 50.5928 11.4009 50.6289 11.4526C50.6648 11.504 50.8968 12.6887 51.1442 14.0852C51.9518 18.6457 52.0031 18.8647 52.2645 18.8647C52.4067 18.8647 52.8363 18.0536 53.2193 17.0625C54.0137 15.0073 54.5452 14.409 55.8961 14.0499C56.6038 13.862 57.0464 13.9131 57.6111 14.2489C58.0298 14.4977 58.4824 14.6414 58.6168 14.5679C58.7514 14.4944 59.5529 11.5819 60.3981 8.09562L61.935 1.75656L62.5797 2.89287C63.4245 4.38228 64.6406 8.74443 65.5677 13.6111C65.9774 15.7613 66.3795 17.6229 66.4616 17.7483C66.5437 17.8738 67.2884 17.7941 68.1164 17.5715C69.4679 17.208 69.6319 17.2151 69.7197 17.6423C69.7734 17.9037 70.151 19.7981 70.559 21.8518C71.4844 26.5103 72.64 30.6353 73.0537 30.7548C73.2263 30.805 73.6965 30.6505 74.0982 30.4115C74.6715 30.071 74.9516 29.6011 75.3995 28.2297C76.0999 26.0849 76.0826 26.0371 76.8972 32.3893C77.5939 37.8239 77.8117 38.1402 78.5878 34.846C78.8587 33.6959 79.1382 32.5533 79.209 32.3069C79.2795 32.0605 79.6382 33.6729 80.0061 35.8903C80.4608 38.631 80.7724 39.9463 80.9792 39.998C81.1481 40.0401 81.5913 39.402 81.974 38.5671L82.664 37.0601L83.2098 37.6707C83.5098 38.0064 83.908 38.2785 84.0945 38.2756C84.7389 38.2645 85.9449 34.7217 86.6429 30.7888C87.0045 28.751 87.3292 27.0426 87.3644 26.9927C87.3997 26.9425 87.692 27.9495 88.014 29.2307C88.7739 32.2543 88.8228 32.3383 89.6021 31.9517C89.9474 31.7806 90.2794 31.711 90.3398 31.797C90.4005 31.883 90.7642 33.1421 91.1485 34.5948C91.5458 36.097 91.9677 37.2357 92.1266 37.2357C92.3301 37.2357 92.6174 35.286 93.1816 30.0773C93.9865 22.647 94.3227 20.9336 95.8353 16.5496C96.2463 15.3583 96.7076 14.3839 96.8603 14.3839C97.1854 14.3839 97.9781 13.3247 97.9781 12.8903C97.9781 12.5029 98.2504 11.9999 97.9781 11.9999C97.4871 11.9999 96.3439 12.7394 96.4781 13.4999C96.5707 14.0248 95.9752 14.5578 95.6083 15.5232C94.2119 19.1977 93.5374 22.4436 92.8091 28.9965C92.4179 32.5151 92.0639 35.4425 92.0225 35.5014C91.9811 35.5602 91.6661 34.5631 91.3226 33.2855C90.979 32.0079 90.6116 30.9815 90.5057 31.0045C90.3999 31.0278 90.0274 31.1326 89.6777 31.2378L89.0419 31.429L88.3516 28.4328C87.9577 26.7236 87.5465 25.4364 87.3943 25.4364C87.1286 25.4364 86.897 26.4464 85.9934 31.5467C85.7242 33.0653 85.2066 34.9688 84.7958 35.9494L84.0722 37.6775L83.4855 37.0831C82.6369 36.2237 82.3009 36.3405 81.7625 37.6814C81.4992 38.3374 81.2224 38.8751 81.1474 38.8763C81.0727 38.8778 80.702 36.9967 80.3238 34.6966C79.894 32.0808 79.5385 30.5146 79.3749 30.5146C79.231 30.5146 78.8587 31.6019 78.5477 32.9306C78.2365 34.2596 77.9129 35.2343 77.8285 35.0963C77.7441 34.9586 77.4022 32.6618 77.0688 29.9918C76.3527 24.2598 76.1845 24.033 75.1173 27.3625C74.4485 29.4497 74.1266 29.898 73.287 29.913C72.9603 29.919 71.6661 25.0451 70.7612 20.4012L69.9838 16.4119L69.2291 16.5974C68.814 16.6996 68.0916 16.8627 67.6239 16.96L66.7739 17.1372L66.1771 14.0428C65.1032 8.47559 63.77 3.7475 62.8586 2.27453C61.9214 0.760038 61.724 0.668332 61.4348 1.61377Z"/>
</mask>
<path fill-rule="evenodd" clip-rule="evenodd" d="M61.4348 1.61377C61.3219 1.98328 60.6281 4.83991 59.8931 7.9615C58.7608 12.7699 58.4962 13.6282 58.1607 13.5777C57.9429 13.5451 57.3335 13.4298 56.8066 13.3214C56.0609 13.1678 55.6076 13.2715 54.76 13.7904C53.8474 14.3487 53.5631 14.7256 53.0018 16.1215C52.6335 17.0371 52.3078 17.6593 52.2781 17.504C52.2483 17.3487 51.9228 15.5749 51.5549 13.5624C51.1486 11.3397 50.7828 9.90315 50.6232 9.90315C50.4737 9.90315 50.0653 11.2447 49.6742 13.0212L48.9878 16.1392L48.3167 15.4109C47.9475 15.0103 47.5351 14.6826 47.4005 14.6826C47.2656 14.6826 46.9005 15.4219 46.589 16.3256C46.2774 17.2292 45.9658 17.9685 45.8965 17.9685C45.827 17.9685 45.4925 17.0117 45.1527 15.8425C44.6042 13.9546 44.4391 13.6574 43.6779 13.1863C42.9014 12.7057 42.7498 12.4204 42.0681 10.1592C41.3548 7.79302 41.2727 7.64725 40.493 7.36406C40.0404 7.19977 39.2731 6.69076 38.7881 6.23282C38.3028 5.77489 37.8311 5.46572 37.7402 5.54548C37.6491 5.62553 37.298 6.97334 36.9601 8.54071C36.622 10.1078 36.2919 11.3917 36.2266 11.3935C36.1613 11.3952 35.8832 10.6266 35.609 9.68539C35.097 7.92804 33.6712 5.42241 33.1829 5.42241C32.8402 5.42241 32.8129 5.55982 32.1443 10.6499C31.3321 16.8349 31.4348 16.4552 30.9081 15.2161C30.0547 13.2079 29.9913 13.1508 29.1593 13.6455C28.7523 13.8874 28.0587 14.0852 27.618 14.0852C26.8666 14.0852 26.769 13.9753 26.0539 12.3278C25.3713 10.7545 25.2014 10.5499 24.4322 10.3748C23.9595 10.2673 23.4992 10.2852 23.4091 10.4146C23.3192 10.5442 22.9215 12.3974 22.5256 14.5333L21.8056 18.4166L20.9597 18.3252L20.1137 18.2338L19.3407 21.5334L18.5677 24.8333L17.8779 24.0847C17.0491 23.1856 16.9816 23.2659 16.1831 26.1085C15.8714 27.2177 15.5871 28.1249 15.5512 28.1249C15.5153 28.1249 15.1887 26.8559 14.8255 25.305C14.2849 22.9971 14.0147 22.2918 13.3377 21.4217C12.8824 20.8368 12.4263 20.3582 12.3238 20.3582C12.2213 20.3582 11.7816 21.1403 11.3465 22.0962C10.9116 23.0518 10.2577 24.1116 9.89358 24.4509L9.23169 25.0684L8.5091 23.1617C8.0971 22.0747 7.64583 21.255 7.45914 21.2547C6.82707 21.2541 4.62593 23.3651 3.58668 24.9686C2.90841 26.0153 2.28158 26.6806 1.81603 26.8479C1.41956 26.9903 1.0525 27.29 1 27.514C0.933853 27.7957 1.01596 27.8605 1.26522 27.7243C1.46366 27.6161 1.81834 27.5274 2.05332 27.5274C2.30216 27.5274 3.06695 26.6854 3.88466 25.5111C4.6568 24.402 5.77333 23.1226 6.36572 22.6676L7.44255 21.8405L8.12818 23.6704C8.50532 24.6768 8.93896 25.5684 9.09204 25.6521C9.54352 25.8985 10.7726 24.5077 11.5893 22.8259C12.0286 21.9214 12.4498 21.3416 12.5878 21.4515C13.3956 22.0962 13.8253 23.1267 14.5161 26.076C14.934 27.8599 15.3914 29.3197 15.5323 29.3197C15.6732 29.3197 16.0976 28.2444 16.4754 26.93C16.8531 25.6156 17.2318 24.5403 17.3166 24.5403C17.4014 24.5403 17.6543 24.7377 17.8785 24.9788C18.7319 25.897 18.9755 25.5861 19.5679 22.8226C20.4102 18.8936 20.424 18.8626 21.1618 19.2282C21.5786 19.4352 21.8524 19.4373 21.9944 19.2354C22.1699 18.9856 22.8971 15.4697 23.5076 11.9195C23.6229 11.2492 23.7656 11.098 24.2824 11.098C24.8345 11.098 25.0262 11.348 25.7719 13.0397C26.5787 14.8702 26.673 14.9813 27.4187 14.9813C27.8536 14.9813 28.5654 14.7698 29.0005 14.5112C29.8796 13.9887 29.7613 13.8779 30.7082 16.1144C31.0068 16.8196 31.3579 17.3481 31.4883 17.2886C31.6189 17.2292 32.0465 14.8374 32.4385 11.9736C32.8306 9.10976 33.1859 6.70928 33.2281 6.63908C33.4465 6.27614 34.6749 8.52727 35.3079 10.4498C35.7396 11.7615 36.134 12.5922 36.29 12.5184C36.4332 12.4503 36.8868 11.0269 37.298 9.35501L38.0453 6.31497L38.7301 7.03368C39.1066 7.42889 39.7431 7.83992 40.1442 7.94686C40.8183 8.12669 40.9363 8.3343 41.6962 10.6741C42.4045 12.8551 42.6244 13.2694 43.2779 13.658C43.9322 14.047 44.15 14.4586 44.8541 16.6362C45.3033 18.0262 45.7684 19.1634 45.8875 19.1634C46.0065 19.1634 46.3902 18.3568 46.74 17.3711C47.0899 16.3853 47.4319 15.5788 47.5002 15.5788C47.5684 15.5788 47.9122 15.9232 48.2639 16.3444C49.085 17.3272 49.2415 17.1004 49.9915 13.8423C50.3059 12.4763 50.5928 11.4009 50.6289 11.4526C50.6648 11.504 50.8968 12.6887 51.1442 14.0852C51.9518 18.6457 52.0031 18.8647 52.2645 18.8647C52.4067 18.8647 52.8363 18.0536 53.2193 17.0625C54.0137 15.0073 54.5452 14.409 55.8961 14.0499C56.6038 13.862 57.0464 13.9131 57.6111 14.2489C58.0298 14.4977 58.4824 14.6414 58.6168 14.5679C58.7514 14.4944 59.5529 11.5819 60.3981 8.09562L61.935 1.75656L62.5797 2.89287C63.4245 4.38228 64.6406 8.74443 65.5677 13.6111C65.9774 15.7613 66.3795 17.6229 66.4616 17.7483C66.5437 17.8738 67.2884 17.7941 68.1164 17.5715C69.4679 17.208 69.6319 17.2151 69.7197 17.6423C69.7734 17.9037 70.151 19.7981 70.559 21.8518C71.4844 26.5103 72.64 30.6353 73.0537 30.7548C73.2263 30.805 73.6965 30.6505 74.0982 30.4115C74.6715 30.071 74.9516 29.6011 75.3995 28.2297C76.0999 26.0849 76.0826 26.0371 76.8972 32.3893C77.5939 37.8239 77.8117 38.1402 78.5878 34.846C78.8587 33.6959 79.1382 32.5533 79.209 32.3069C79.2795 32.0605 79.6382 33.6729 80.0061 35.8903C80.4608 38.631 80.7724 39.9463 80.9792 39.998C81.1481 40.0401 81.5913 39.402 81.974 38.5671L82.664 37.0601L83.2098 37.6707C83.5098 38.0064 83.908 38.2785 84.0945 38.2756C84.7389 38.2645 85.9449 34.7217 86.6429 30.7888C87.0045 28.751 87.3292 27.0426 87.3644 26.9927C87.3997 26.9425 87.692 27.9495 88.014 29.2307C88.7739 32.2543 88.8228 32.3383 89.6021 31.9517C89.9474 31.7806 90.2794 31.711 90.3398 31.797C90.4005 31.883 90.7642 33.1421 91.1485 34.5948C91.5458 36.097 91.9677 37.2357 92.1266 37.2357C92.3301 37.2357 92.6174 35.286 93.1816 30.0773C93.9865 22.647 94.3227 20.9336 95.8353 16.5496C96.2463 15.3583 96.7076 14.3839 96.8603 14.3839C97.1854 14.3839 97.9781 13.3247 97.9781 12.8903C97.9781 12.5029 98.2504 11.9999 97.9781 11.9999C97.4871 11.9999 96.3439 12.7394 96.4781 13.4999C96.5707 14.0248 95.9752 14.5578 95.6083 15.5232C94.2119 19.1977 93.5374 22.4436 92.8091 28.9965C92.4179 32.5151 92.0639 35.4425 92.0225 35.5014C91.9811 35.5602 91.6661 34.5631 91.3226 33.2855C90.979 32.0079 90.6116 30.9815 90.5057 31.0045C90.3999 31.0278 90.0274 31.1326 89.6777 31.2378L89.0419 31.429L88.3516 28.4328C87.9577 26.7236 87.5465 25.4364 87.3943 25.4364C87.1286 25.4364 86.897 26.4464 85.9934 31.5467C85.7242 33.0653 85.2066 34.9688 84.7958 35.9494L84.0722 37.6775L83.4855 37.0831C82.6369 36.2237 82.3009 36.3405 81.7625 37.6814C81.4992 38.3374 81.2224 38.8751 81.1474 38.8763C81.0727 38.8778 80.702 36.9967 80.3238 34.6966C79.894 32.0808 79.5385 30.5146 79.3749 30.5146C79.231 30.5146 78.8587 31.6019 78.5477 32.9306C78.2365 34.2596 77.9129 35.2343 77.8285 35.0963C77.7441 34.9586 77.4022 32.6618 77.0688 29.9918C76.3527 24.2598 76.1845 24.033 75.1173 27.3625C74.4485 29.4497 74.1266 29.898 73.287 29.913C72.9603 29.919 71.6661 25.0451 70.7612 20.4012L69.9838 16.4119L69.2291 16.5974C68.814 16.6996 68.0916 16.8627 67.6239 16.96L66.7739 17.1372L66.1771 14.0428C65.1032 8.47559 63.77 3.7475 62.8586 2.27453C61.9214 0.760038 61.724 0.668332 61.4348 1.61377Z" fill="url(#paint0_linear_1_1202)"/>
<path fill-rule="evenodd" clip-rule="evenodd" d="M61.4348 1.61377C61.3219 1.98328 60.6281 4.83991 59.8931 7.9615C58.7608 12.7699 58.4962 13.6282 58.1607 13.5777C57.9429 13.5451 57.3335 13.4298 56.8066 13.3214C56.0609 13.1678 55.6076 13.2715 54.76 13.7904C53.8474 14.3487 53.5631 14.7256 53.0018 16.1215C52.6335 17.0371 52.3078 17.6593 52.2781 17.504C52.2483 17.3487 51.9228 15.5749 51.5549 13.5624C51.1486 11.3397 50.7828 9.90315 50.6232 9.90315C50.4737 9.90315 50.0653 11.2447 49.6742 13.0212L48.9878 16.1392L48.3167 15.4109C47.9475 15.0103 47.5351 14.6826 47.4005 14.6826C47.2656 14.6826 46.9005 15.4219 46.589 16.3256C46.2774 17.2292 45.9658 17.9685 45.8965 17.9685C45.827 17.9685 45.4925 17.0117 45.1527 15.8425C44.6042 13.9546 44.4391 13.6574 43.6779 13.1863C42.9014 12.7057 42.7498 12.4204 42.0681 10.1592C41.3548 7.79302 41.2727 7.64725 40.493 7.36406C40.0404 7.19977 39.2731 6.69076 38.7881 6.23282C38.3028 5.77489 37.8311 5.46572 37.7402 5.54548C37.6491 5.62553 37.298 6.97334 36.9601 8.54071C36.622 10.1078 36.2919 11.3917 36.2266 11.3935C36.1613 11.3952 35.8832 10.6266 35.609 9.68539C35.097 7.92804 33.6712 5.42241 33.1829 5.42241C32.8402 5.42241 32.8129 5.55982 32.1443 10.6499C31.3321 16.8349 31.4348 16.4552 30.9081 15.2161C30.0547 13.2079 29.9913 13.1508 29.1593 13.6455C28.7523 13.8874 28.0587 14.0852 27.618 14.0852C26.8666 14.0852 26.769 13.9753 26.0539 12.3278C25.3713 10.7545 25.2014 10.5499 24.4322 10.3748C23.9595 10.2673 23.4992 10.2852 23.4091 10.4146C23.3192 10.5442 22.9215 12.3974 22.5256 14.5333L21.8056 18.4166L20.9597 18.3252L20.1137 18.2338L19.3407 21.5334L18.5677 24.8333L17.8779 24.0847C17.0491 23.1856 16.9816 23.2659 16.1831 26.1085C15.8714 27.2177 15.5871 28.1249 15.5512 28.1249C15.5153 28.1249 15.1887 26.8559 14.8255 25.305C14.2849 22.9971 14.0147 22.2918 13.3377 21.4217C12.8824 20.8368 12.4263 20.3582 12.3238 20.3582C12.2213 20.3582 11.7816 21.1403 11.3465 22.0962C10.9116 23.0518 10.2577 24.1116 9.89358 24.4509L9.23169 25.0684L8.5091 23.1617C8.0971 22.0747 7.64583 21.255 7.45914 21.2547C6.82707 21.2541 4.62593 23.3651 3.58668 24.9686C2.90841 26.0153 2.28158 26.6806 1.81603 26.8479C1.41956 26.9903 1.0525 27.29 1 27.514C0.933853 27.7957 1.01596 27.8605 1.26522 27.7243C1.46366 27.6161 1.81834 27.5274 2.05332 27.5274C2.30216 27.5274 3.06695 26.6854 3.88466 25.5111C4.6568 24.402 5.77333 23.1226 6.36572 22.6676L7.44255 21.8405L8.12818 23.6704C8.50532 24.6768 8.93896 25.5684 9.09204 25.6521C9.54352 25.8985 10.7726 24.5077 11.5893 22.8259C12.0286 21.9214 12.4498 21.3416 12.5878 21.4515C13.3956 22.0962 13.8253 23.1267 14.5161 26.076C14.934 27.8599 15.3914 29.3197 15.5323 29.3197C15.6732 29.3197 16.0976 28.2444 16.4754 26.93C16.8531 25.6156 17.2318 24.5403 17.3166 24.5403C17.4014 24.5403 17.6543 24.7377 17.8785 24.9788C18.7319 25.897 18.9755 25.5861 19.5679 22.8226C20.4102 18.8936 20.424 18.8626 21.1618 19.2282C21.5786 19.4352 21.8524 19.4373 21.9944 19.2354C22.1699 18.9856 22.8971 15.4697 23.5076 11.9195C23.6229 11.2492 23.7656 11.098 24.2824 11.098C24.8345 11.098 25.0262 11.348 25.7719 13.0397C26.5787 14.8702 26.673 14.9813 27.4187 14.9813C27.8536 14.9813 28.5654 14.7698 29.0005 14.5112C29.8796 13.9887 29.7613 13.8779 30.7082 16.1144C31.0068 16.8196 31.3579 17.3481 31.4883 17.2886C31.6189 17.2292 32.0465 14.8374 32.4385 11.9736C32.8306 9.10976 33.1859 6.70928 33.2281 6.63908C33.4465 6.27614 34.6749 8.52727 35.3079 10.4498C35.7396 11.7615 36.134 12.5922 36.29 12.5184C36.4332 12.4503 36.8868 11.0269 37.298 9.35501L38.0453 6.31497L38.7301 7.03368C39.1066 7.42889 39.7431 7.83992 40.1442 7.94686C40.8183 8.12669 40.9363 8.3343 41.6962 10.6741C42.4045 12.8551 42.6244 13.2694 43.2779 13.658C43.9322 14.047 44.15 14.4586 44.8541 16.6362C45.3033 18.0262 45.7684 19.1634 45.8875 19.1634C46.0065 19.1634 46.3902 18.3568 46.74 17.3711C47.0899 16.3853 47.4319 15.5788 47.5002 15.5788C47.5684 15.5788 47.9122 15.9232 48.2639 16.3444C49.085 17.3272 49.2415 17.1004 49.9915 13.8423C50.3059 12.4763 50.5928 11.4009 50.6289 11.4526C50.6648 11.504 50.8968 12.6887 51.1442 14.0852C51.9518 18.6457 52.0031 18.8647 52.2645 18.8647C52.4067 18.8647 52.8363 18.0536 53.2193 17.0625C54.0137 15.0073 54.5452 14.409 55.8961 14.0499C56.6038 13.862 57.0464 13.9131 57.6111 14.2489C58.0298 14.4977 58.4824 14.6414 58.6168 14.5679C58.7514 14.4944 59.5529 11.5819 60.3981 8.09562L61.935 1.75656L62.5797 2.89287C63.4245 4.38228 64.6406 8.74443 65.5677 13.6111C65.9774 15.7613 66.3795 17.6229 66.4616 17.7483C66.5437 17.8738 67.2884 17.7941 68.1164 17.5715C69.4679 17.208 69.6319 17.2151 69.7197 17.6423C69.7734 17.9037 70.151 19.7981 70.559 21.8518C71.4844 26.5103 72.64 30.6353 73.0537 30.7548C73.2263 30.805 73.6965 30.6505 74.0982 30.4115C74.6715 30.071 74.9516 29.6011 75.3995 28.2297C76.0999 26.0849 76.0826 26.0371 76.8972 32.3893C77.5939 37.8239 77.8117 38.1402 78.5878 34.846C78.8587 33.6959 79.1382 32.5533 79.209 32.3069C79.2795 32.0605 79.6382 33.6729 80.0061 35.8903C80.4608 38.631 80.7724 39.9463 80.9792 39.998C81.1481 40.0401 81.5913 39.402 81.974 38.5671L82.664 37.0601L83.2098 37.6707C83.5098 38.0064 83.908 38.2785 84.0945 38.2756C84.7389 38.2645 85.9449 34.7217 86.6429 30.7888C87.0045 28.751 87.3292 27.0426 87.3644 26.9927C87.3997 26.9425 87.692 27.9495 88.014 29.2307C88.7739 32.2543 88.8228 32.3383 89.6021 31.9517C89.9474 31.7806 90.2794 31.711 90.3398 31.797C90.4005 31.883 90.7642 33.1421 91.1485 34.5948C91.5458 36.097 91.9677 37.2357 92.1266 37.2357C92.3301 37.2357 92.6174 35.286 93.1816 30.0773C93.9865 22.647 94.3227 20.9336 95.8353 16.5496C96.2463 15.3583 96.7076 14.3839 96.8603 14.3839C97.1854 14.3839 97.9781 13.3247 97.9781 12.8903C97.9781 12.5029 98.2504 11.9999 97.9781 11.9999C97.4871 11.9999 96.3439 12.7394 96.4781 13.4999C96.5707 14.0248 95.9752 14.5578 95.6083 15.5232C94.2119 19.1977 93.5374 22.4436 92.8091 28.9965C92.4179 32.5151 92.0639 35.4425 92.0225 35.5014C91.9811 35.5602 91.6661 34.5631 91.3226 33.2855C90.979 32.0079 90.6116 30.9815 90.5057 31.0045C90.3999 31.0278 90.0274 31.1326 89.6777 31.2378L89.0419 31.429L88.3516 28.4328C87.9577 26.7236 87.5465 25.4364 87.3943 25.4364C87.1286 25.4364 86.897 26.4464 85.9934 31.5467C85.7242 33.0653 85.2066 34.9688 84.7958 35.9494L84.0722 37.6775L83.4855 37.0831C82.6369 36.2237 82.3009 36.3405 81.7625 37.6814C81.4992 38.3374 81.2224 38.8751 81.1474 38.8763C81.0727 38.8778 80.702 36.9967 80.3238 34.6966C79.894 32.0808 79.5385 30.5146 79.3749 30.5146C79.231 30.5146 78.8587 31.6019 78.5477 32.9306C78.2365 34.2596 77.9129 35.2343 77.8285 35.0963C77.7441 34.9586 77.4022 32.6618 77.0688 29.9918C76.3527 24.2598 76.1845 24.033 75.1173 27.3625C74.4485 29.4497 74.1266 29.898 73.287 29.913C72.9603 29.919 71.6661 25.0451 70.7612 20.4012L69.9838 16.4119L69.2291 16.5974C68.814 16.6996 68.0916 16.8627 67.6239 16.96L66.7739 17.1372L66.1771 14.0428C65.1032 8.47559 63.77 3.7475 62.8586 2.27453C61.9214 0.760038 61.724 0.668332 61.4348 1.61377Z" stroke="black" stroke-width="0.4" mask="url(#path-1-outside-1_1_1202)"/>
<defs>
<linearGradient id="paint0_linear_1_1202" x1="1" y1="28.1138" x2="98" y2="40.1138" gradientUnits="userSpaceOnUse">
<stop stop-color="#BEBEBE"/>
<stop offset="0.405"/>
<stop offset="1"/>
</linearGradient>
</defs>
</svg>
