<svg width="38" height="38" viewBox="0 0 38 38" fill="none" xmlns="http://www.w3.org/2000/svg">
<path d="M18.7472 35.9126C28.2274 35.9126 35.9126 28.2274 35.9126 18.7472C35.9126 9.267 28.2274 1.58179 18.7472 1.58179C9.267 1.58179 1.58179 9.267 1.58179 18.7472C1.58179 28.2274 9.267 35.9126 18.7472 35.9126Z" fill="white"/>
<path d="M36.2642 18.7472C36.2642 18.3372 36.3813 12.3615 32.8662 8.49487C32.6905 8.14336 31.9874 6.73733 29.5855 5.03836C28.0037 3.80808 26.3633 2.9293 26.1875 2.81213C26.0118 2.69496 23.0825 1.17175 19.5674 1.17175C19.2745 1.17175 19.0402 1.17175 18.7472 1.23034C16.0523 1.17175 13.5918 1.87477 11.7756 2.69496C9.90091 3.51515 8.67063 4.33534 8.55346 4.45251C6.56157 5.56563 2.75355 10.0181 2.46062 12.4201C1.23034 13.9433 0.234393 20.9149 2.46062 25.133C4.04242 30.9915 9.90091 33.9208 10.3696 34.1551C10.6625 34.3308 13.8261 36.3227 17.7513 36.3227H18.2786C18.6301 36.3813 18.923 36.3813 19.2745 36.3813C23.4926 36.3813 29.8198 33.3935 31.1087 31.0501C34.7409 28.3552 36.6157 21.5593 36.2642 18.7472ZM10.4282 27.5936C8.72921 24.8987 7.79185 21.325 7.55751 20.5048C8.08478 19.6846 10.7211 15.818 12.1857 14.6463C13.0059 14.8221 16.5796 15.4665 19.9189 16.0523C20.329 17.1655 22.2038 21.9108 22.731 23.7856C22.1452 24.4886 19.8604 27.1249 17.6341 29.1754C15.2321 29.234 11.1898 27.8279 10.4282 27.5936ZM31.5188 8.55346C31.5188 8.7878 31.4602 9.72516 30.9915 10.8383C30.1127 10.3696 27.8865 9.43223 24.7815 9.25648C24.3128 8.55346 22.5553 6.15148 19.8018 4.5111C20.1533 3.74949 20.6805 2.87072 21.0321 2.57779C21.1492 2.57779 21.2664 2.51921 21.5007 2.51921C22.9654 2.51921 25.5431 3.51515 25.7774 3.57374C26.0118 3.69091 30.64 6.15148 31.5188 8.55346ZM6.91308 19.9189C4.92119 19.5674 3.69091 18.9816 3.3394 18.7472C2.57779 16.0523 3.22223 13.1231 3.28081 12.713C4.04242 11.4241 6.09289 8.0262 7.49893 7.38176C8.90497 7.08884 10.7211 7.44035 11.4241 7.6161C11.3655 8.55346 11.2484 11.1898 11.5999 14.0019C10.0767 15.2907 7.55751 18.9816 6.91308 19.9189ZM18.5715 2.05053C19.0402 2.10911 19.6846 2.1677 20.1533 2.34345C19.6846 2.9293 19.2159 3.80808 19.0402 4.27676C18.1028 4.45251 14.6463 5.09695 11.8928 6.8545C11.3655 6.73733 9.66657 6.32723 8.08478 6.4444C8.49487 5.6828 9.08072 5.15553 9.13931 5.09695C9.31506 4.92119 13.4746 1.99194 18.5715 2.05053ZM29.7612 24.3714C29.0582 24.3714 26.4219 24.1956 23.5512 23.4926C23.0239 21.5593 21.1492 16.8139 20.7391 15.7008C22.5553 13.1231 24.3128 10.7211 24.7815 10.0181C28.1208 10.2524 30.4642 11.4827 30.9329 11.717C32.8662 14.8221 33.2763 17.9856 33.3349 18.5129C32.2804 21.7351 30.2885 23.9027 29.7612 24.3714ZM2.1677 16.6968C2.22628 17.4584 2.34345 18.22 2.57779 18.9816C2.40204 19.5089 2.22628 20.0361 2.1677 20.5634C1.99194 19.2159 1.99194 17.8685 2.1677 16.6968ZM10.8383 33.3935C9.37365 32.6905 8.26053 31.0501 7.79185 30.4057C8.67063 29.5269 9.78374 28.7067 10.1938 28.4138C11.1312 28.7653 15.0564 30.0541 17.5755 30.0541C17.9856 30.64 19.3917 32.3975 21.0906 33.8036C20.0361 34.8581 18.5129 35.3268 18.22 35.444C14.2362 35.5611 10.8383 33.3935 10.8383 33.3935ZM20.3876 35.3854C20.9149 35.0925 21.5007 34.6824 21.9694 34.1551C22.731 34.0379 26.0118 33.5107 28.941 31.343C29.1168 31.343 29.4683 31.4016 29.8198 31.4016C28.0037 33.1006 23.6684 35.0339 20.3876 35.3854ZM29.4097 30.4642C30.4642 27.7107 30.4057 25.6017 30.3471 24.9573C30.9329 24.3714 32.9248 22.2623 34.0379 19.0402C34.6238 19.1573 35.0339 19.2745 35.2096 19.3917C35.2682 19.626 35.3854 20.1533 35.3268 20.9735C34.8581 23.9027 33.3349 28.3552 30.5814 30.2885C30.2885 30.4642 29.8198 30.5228 29.4097 30.4642Z" fill="#4A4E51"/>
</svg>
